%TF.GenerationSoftware,KiCad,Pcbnew,6.0.10-86aedd382b~118~ubuntu22.04.1*%
%TF.CreationDate,2023-04-05T16:54:16+05:30*%
%TF.ProjectId,Quadruped,51756164-7275-4706-9564-2e6b69636164,rev?*%
%TF.SameCoordinates,Original*%
%TF.FileFunction,Legend,Bot*%
%TF.FilePolarity,Positive*%
%FSLAX46Y46*%
G04 Gerber Fmt 4.6, Leading zero omitted, Abs format (unit mm)*
G04 Created by KiCad (PCBNEW 6.0.10-86aedd382b~118~ubuntu22.04.1) date 2023-04-05 16:54:16*
%MOMM*%
%LPD*%
G01*
G04 APERTURE LIST*
%ADD10C,0.300000*%
%ADD11C,0.200000*%
%ADD12C,0.150000*%
%ADD13C,0.075000*%
%ADD14C,0.120000*%
%ADD15C,0.127000*%
G04 APERTURE END LIST*
D10*
X64427142Y-119278571D02*
X64498571Y-119278571D01*
X64641428Y-119207142D01*
X64855714Y-118992857D01*
X65212857Y-118564285D01*
X65355714Y-118350000D01*
X65427142Y-118135714D01*
X65427142Y-117992857D01*
X65355714Y-117850000D01*
X65212857Y-117778571D01*
X65141428Y-117778571D01*
X64998571Y-117850000D01*
X64927142Y-117992857D01*
X64927142Y-118064285D01*
X64998571Y-118207142D01*
X65070000Y-118278571D01*
X65498571Y-118564285D01*
X65570000Y-118635714D01*
X65641428Y-118778571D01*
X65641428Y-118992857D01*
X65570000Y-119135714D01*
X65498571Y-119207142D01*
X65355714Y-119278571D01*
X65141428Y-119278571D01*
X64998571Y-119207142D01*
X64927142Y-119135714D01*
X64712857Y-118850000D01*
X64641428Y-118635714D01*
X64641428Y-118492857D01*
D11*
X69001904Y-112842380D02*
X69001904Y-111842380D01*
X68763809Y-111842380D01*
X68620952Y-111890000D01*
X68525714Y-111985238D01*
X68478095Y-112080476D01*
X68430476Y-112270952D01*
X68430476Y-112413809D01*
X68478095Y-112604285D01*
X68525714Y-112699523D01*
X68620952Y-112794761D01*
X68763809Y-112842380D01*
X69001904Y-112842380D01*
X67620952Y-112794761D02*
X67716190Y-112842380D01*
X67906666Y-112842380D01*
X68001904Y-112794761D01*
X68049523Y-112699523D01*
X68049523Y-112318571D01*
X68001904Y-112223333D01*
X67906666Y-112175714D01*
X67716190Y-112175714D01*
X67620952Y-112223333D01*
X67573333Y-112318571D01*
X67573333Y-112413809D01*
X68049523Y-112509047D01*
X67192380Y-112794761D02*
X67097142Y-112842380D01*
X66906666Y-112842380D01*
X66811428Y-112794761D01*
X66763809Y-112699523D01*
X66763809Y-112651904D01*
X66811428Y-112556666D01*
X66906666Y-112509047D01*
X67049523Y-112509047D01*
X67144761Y-112461428D01*
X67192380Y-112366190D01*
X67192380Y-112318571D01*
X67144761Y-112223333D01*
X67049523Y-112175714D01*
X66906666Y-112175714D01*
X66811428Y-112223333D01*
X66335238Y-112842380D02*
X66335238Y-112175714D01*
X66335238Y-111842380D02*
X66382857Y-111890000D01*
X66335238Y-111937619D01*
X66287619Y-111890000D01*
X66335238Y-111842380D01*
X66335238Y-111937619D01*
X65430476Y-112175714D02*
X65430476Y-112985238D01*
X65478095Y-113080476D01*
X65525714Y-113128095D01*
X65620952Y-113175714D01*
X65763809Y-113175714D01*
X65859047Y-113128095D01*
X65430476Y-112794761D02*
X65525714Y-112842380D01*
X65716190Y-112842380D01*
X65811428Y-112794761D01*
X65859047Y-112747142D01*
X65906666Y-112651904D01*
X65906666Y-112366190D01*
X65859047Y-112270952D01*
X65811428Y-112223333D01*
X65716190Y-112175714D01*
X65525714Y-112175714D01*
X65430476Y-112223333D01*
X64954285Y-112175714D02*
X64954285Y-112842380D01*
X64954285Y-112270952D02*
X64906666Y-112223333D01*
X64811428Y-112175714D01*
X64668571Y-112175714D01*
X64573333Y-112223333D01*
X64525714Y-112318571D01*
X64525714Y-112842380D01*
X63668571Y-112794761D02*
X63763809Y-112842380D01*
X63954285Y-112842380D01*
X64049523Y-112794761D01*
X64097142Y-112699523D01*
X64097142Y-112318571D01*
X64049523Y-112223333D01*
X63954285Y-112175714D01*
X63763809Y-112175714D01*
X63668571Y-112223333D01*
X63620952Y-112318571D01*
X63620952Y-112413809D01*
X64097142Y-112509047D01*
X62763809Y-112842380D02*
X62763809Y-111842380D01*
X62763809Y-112794761D02*
X62859047Y-112842380D01*
X63049523Y-112842380D01*
X63144761Y-112794761D01*
X63192380Y-112747142D01*
X63240000Y-112651904D01*
X63240000Y-112366190D01*
X63192380Y-112270952D01*
X63144761Y-112223333D01*
X63049523Y-112175714D01*
X62859047Y-112175714D01*
X62763809Y-112223333D01*
X61525714Y-112842380D02*
X61525714Y-111842380D01*
X61525714Y-112223333D02*
X61430476Y-112175714D01*
X61240000Y-112175714D01*
X61144761Y-112223333D01*
X61097142Y-112270952D01*
X61049523Y-112366190D01*
X61049523Y-112651904D01*
X61097142Y-112747142D01*
X61144761Y-112794761D01*
X61240000Y-112842380D01*
X61430476Y-112842380D01*
X61525714Y-112794761D01*
X60716190Y-112175714D02*
X60478095Y-112842380D01*
X60240000Y-112175714D02*
X60478095Y-112842380D01*
X60573333Y-113080476D01*
X60620952Y-113128095D01*
X60716190Y-113175714D01*
D12*
%TO.C,R11*%
X63082380Y-100863142D02*
X62606190Y-100529809D01*
X63082380Y-100291714D02*
X62082380Y-100291714D01*
X62082380Y-100672666D01*
X62130000Y-100767904D01*
X62177619Y-100815523D01*
X62272857Y-100863142D01*
X62415714Y-100863142D01*
X62510952Y-100815523D01*
X62558571Y-100767904D01*
X62606190Y-100672666D01*
X62606190Y-100291714D01*
X63082380Y-101815523D02*
X63082380Y-101244095D01*
X63082380Y-101529809D02*
X62082380Y-101529809D01*
X62225238Y-101434571D01*
X62320476Y-101339333D01*
X62368095Y-101244095D01*
X63082380Y-102767904D02*
X63082380Y-102196476D01*
X63082380Y-102482190D02*
X62082380Y-102482190D01*
X62225238Y-102386952D01*
X62320476Y-102291714D01*
X62368095Y-102196476D01*
D13*
%TO.C,C26*%
X72732857Y-116552142D02*
X72747142Y-116566428D01*
X72790000Y-116580714D01*
X72818571Y-116580714D01*
X72861428Y-116566428D01*
X72890000Y-116537857D01*
X72904285Y-116509285D01*
X72918571Y-116452142D01*
X72918571Y-116409285D01*
X72904285Y-116352142D01*
X72890000Y-116323571D01*
X72861428Y-116295000D01*
X72818571Y-116280714D01*
X72790000Y-116280714D01*
X72747142Y-116295000D01*
X72732857Y-116309285D01*
X72618571Y-116309285D02*
X72604285Y-116295000D01*
X72575714Y-116280714D01*
X72504285Y-116280714D01*
X72475714Y-116295000D01*
X72461428Y-116309285D01*
X72447142Y-116337857D01*
X72447142Y-116366428D01*
X72461428Y-116409285D01*
X72632857Y-116580714D01*
X72447142Y-116580714D01*
X72190000Y-116280714D02*
X72247142Y-116280714D01*
X72275714Y-116295000D01*
X72290000Y-116309285D01*
X72318571Y-116352142D01*
X72332857Y-116409285D01*
X72332857Y-116523571D01*
X72318571Y-116552142D01*
X72304285Y-116566428D01*
X72275714Y-116580714D01*
X72218571Y-116580714D01*
X72190000Y-116566428D01*
X72175714Y-116552142D01*
X72161428Y-116523571D01*
X72161428Y-116452142D01*
X72175714Y-116423571D01*
X72190000Y-116409285D01*
X72218571Y-116395000D01*
X72275714Y-116395000D01*
X72304285Y-116409285D01*
X72318571Y-116423571D01*
X72332857Y-116452142D01*
%TO.C,C25*%
X74482857Y-116592142D02*
X74497142Y-116606428D01*
X74540000Y-116620714D01*
X74568571Y-116620714D01*
X74611428Y-116606428D01*
X74640000Y-116577857D01*
X74654285Y-116549285D01*
X74668571Y-116492142D01*
X74668571Y-116449285D01*
X74654285Y-116392142D01*
X74640000Y-116363571D01*
X74611428Y-116335000D01*
X74568571Y-116320714D01*
X74540000Y-116320714D01*
X74497142Y-116335000D01*
X74482857Y-116349285D01*
X74368571Y-116349285D02*
X74354285Y-116335000D01*
X74325714Y-116320714D01*
X74254285Y-116320714D01*
X74225714Y-116335000D01*
X74211428Y-116349285D01*
X74197142Y-116377857D01*
X74197142Y-116406428D01*
X74211428Y-116449285D01*
X74382857Y-116620714D01*
X74197142Y-116620714D01*
X73925714Y-116320714D02*
X74068571Y-116320714D01*
X74082857Y-116463571D01*
X74068571Y-116449285D01*
X74040000Y-116435000D01*
X73968571Y-116435000D01*
X73940000Y-116449285D01*
X73925714Y-116463571D01*
X73911428Y-116492142D01*
X73911428Y-116563571D01*
X73925714Y-116592142D01*
X73940000Y-116606428D01*
X73968571Y-116620714D01*
X74040000Y-116620714D01*
X74068571Y-116606428D01*
X74082857Y-116592142D01*
%TO.C,C28*%
X73477142Y-113657142D02*
X73491428Y-113642857D01*
X73505714Y-113600000D01*
X73505714Y-113571428D01*
X73491428Y-113528571D01*
X73462857Y-113500000D01*
X73434285Y-113485714D01*
X73377142Y-113471428D01*
X73334285Y-113471428D01*
X73277142Y-113485714D01*
X73248571Y-113500000D01*
X73220000Y-113528571D01*
X73205714Y-113571428D01*
X73205714Y-113600000D01*
X73220000Y-113642857D01*
X73234285Y-113657142D01*
X73234285Y-113771428D02*
X73220000Y-113785714D01*
X73205714Y-113814285D01*
X73205714Y-113885714D01*
X73220000Y-113914285D01*
X73234285Y-113928571D01*
X73262857Y-113942857D01*
X73291428Y-113942857D01*
X73334285Y-113928571D01*
X73505714Y-113757142D01*
X73505714Y-113942857D01*
X73334285Y-114114285D02*
X73320000Y-114085714D01*
X73305714Y-114071428D01*
X73277142Y-114057142D01*
X73262857Y-114057142D01*
X73234285Y-114071428D01*
X73220000Y-114085714D01*
X73205714Y-114114285D01*
X73205714Y-114171428D01*
X73220000Y-114200000D01*
X73234285Y-114214285D01*
X73262857Y-114228571D01*
X73277142Y-114228571D01*
X73305714Y-114214285D01*
X73320000Y-114200000D01*
X73334285Y-114171428D01*
X73334285Y-114114285D01*
X73348571Y-114085714D01*
X73362857Y-114071428D01*
X73391428Y-114057142D01*
X73448571Y-114057142D01*
X73477142Y-114071428D01*
X73491428Y-114085714D01*
X73505714Y-114114285D01*
X73505714Y-114171428D01*
X73491428Y-114200000D01*
X73477142Y-114214285D01*
X73448571Y-114228571D01*
X73391428Y-114228571D01*
X73362857Y-114214285D01*
X73348571Y-114200000D01*
X73334285Y-114171428D01*
%TO.C,C27*%
X72277142Y-115157142D02*
X72291428Y-115142857D01*
X72305714Y-115100000D01*
X72305714Y-115071428D01*
X72291428Y-115028571D01*
X72262857Y-115000000D01*
X72234285Y-114985714D01*
X72177142Y-114971428D01*
X72134285Y-114971428D01*
X72077142Y-114985714D01*
X72048571Y-115000000D01*
X72020000Y-115028571D01*
X72005714Y-115071428D01*
X72005714Y-115100000D01*
X72020000Y-115142857D01*
X72034285Y-115157142D01*
X72034285Y-115271428D02*
X72020000Y-115285714D01*
X72005714Y-115314285D01*
X72005714Y-115385714D01*
X72020000Y-115414285D01*
X72034285Y-115428571D01*
X72062857Y-115442857D01*
X72091428Y-115442857D01*
X72134285Y-115428571D01*
X72305714Y-115257142D01*
X72305714Y-115442857D01*
X72005714Y-115542857D02*
X72005714Y-115742857D01*
X72305714Y-115614285D01*
%TO.C,U4*%
X80328952Y-121756190D02*
X80328952Y-122160952D01*
X80305142Y-122208571D01*
X80281333Y-122232380D01*
X80233714Y-122256190D01*
X80138476Y-122256190D01*
X80090857Y-122232380D01*
X80067047Y-122208571D01*
X80043238Y-122160952D01*
X80043238Y-121756190D01*
X79590857Y-121922857D02*
X79590857Y-122256190D01*
X79709904Y-121732380D02*
X79828952Y-122089523D01*
X79519428Y-122089523D01*
D12*
%TO.C,C8*%
X53257142Y-97123333D02*
X53304761Y-97075714D01*
X53352380Y-96932857D01*
X53352380Y-96837619D01*
X53304761Y-96694761D01*
X53209523Y-96599523D01*
X53114285Y-96551904D01*
X52923809Y-96504285D01*
X52780952Y-96504285D01*
X52590476Y-96551904D01*
X52495238Y-96599523D01*
X52400000Y-96694761D01*
X52352380Y-96837619D01*
X52352380Y-96932857D01*
X52400000Y-97075714D01*
X52447619Y-97123333D01*
X52780952Y-97694761D02*
X52733333Y-97599523D01*
X52685714Y-97551904D01*
X52590476Y-97504285D01*
X52542857Y-97504285D01*
X52447619Y-97551904D01*
X52400000Y-97599523D01*
X52352380Y-97694761D01*
X52352380Y-97885238D01*
X52400000Y-97980476D01*
X52447619Y-98028095D01*
X52542857Y-98075714D01*
X52590476Y-98075714D01*
X52685714Y-98028095D01*
X52733333Y-97980476D01*
X52780952Y-97885238D01*
X52780952Y-97694761D01*
X52828571Y-97599523D01*
X52876190Y-97551904D01*
X52971428Y-97504285D01*
X53161904Y-97504285D01*
X53257142Y-97551904D01*
X53304761Y-97599523D01*
X53352380Y-97694761D01*
X53352380Y-97885238D01*
X53304761Y-97980476D01*
X53257142Y-98028095D01*
X53161904Y-98075714D01*
X52971428Y-98075714D01*
X52876190Y-98028095D01*
X52828571Y-97980476D01*
X52780952Y-97885238D01*
D13*
%TO.C,D1*%
X76536190Y-111850952D02*
X76036190Y-111850952D01*
X76036190Y-111970000D01*
X76060000Y-112041428D01*
X76107619Y-112089047D01*
X76155238Y-112112857D01*
X76250476Y-112136666D01*
X76321904Y-112136666D01*
X76417142Y-112112857D01*
X76464761Y-112089047D01*
X76512380Y-112041428D01*
X76536190Y-111970000D01*
X76536190Y-111850952D01*
X76536190Y-112612857D02*
X76536190Y-112327142D01*
X76536190Y-112470000D02*
X76036190Y-112470000D01*
X76107619Y-112422380D01*
X76155238Y-112374761D01*
X76179047Y-112327142D01*
D12*
%TO.C,U2*%
X57831904Y-99190380D02*
X57831904Y-99999904D01*
X57784285Y-100095142D01*
X57736666Y-100142761D01*
X57641428Y-100190380D01*
X57450952Y-100190380D01*
X57355714Y-100142761D01*
X57308095Y-100095142D01*
X57260476Y-99999904D01*
X57260476Y-99190380D01*
X56831904Y-99285619D02*
X56784285Y-99238000D01*
X56689047Y-99190380D01*
X56450952Y-99190380D01*
X56355714Y-99238000D01*
X56308095Y-99285619D01*
X56260476Y-99380857D01*
X56260476Y-99476095D01*
X56308095Y-99618952D01*
X56879523Y-100190380D01*
X56260476Y-100190380D01*
D14*
%TO.C,R11*%
X61712500Y-101082742D02*
X61712500Y-101557258D01*
X60667500Y-101082742D02*
X60667500Y-101557258D01*
%TO.C,C26*%
X73180000Y-118084420D02*
X73180000Y-118365580D01*
X72160000Y-118084420D02*
X72160000Y-118365580D01*
%TO.C,G\u002A\u002A\u002A*%
G36*
X30469195Y-95304796D02*
G01*
X30478479Y-95310075D01*
X30580599Y-95368144D01*
X30590243Y-95373737D01*
X30710761Y-95465416D01*
X30804924Y-95580433D01*
X30868062Y-95713183D01*
X30869709Y-95718242D01*
X30876644Y-95741986D01*
X30882573Y-95768976D01*
X30887576Y-95802607D01*
X30891733Y-95846273D01*
X30895124Y-95903369D01*
X30897828Y-95977291D01*
X30899926Y-96071432D01*
X30901497Y-96189187D01*
X30902622Y-96333952D01*
X30903379Y-96509120D01*
X30903850Y-96718087D01*
X30904113Y-96964247D01*
X30904250Y-97250995D01*
X30904295Y-97417066D01*
X30904294Y-97679911D01*
X30904116Y-97904043D01*
X30903679Y-98092837D01*
X30902901Y-98249667D01*
X30901701Y-98377906D01*
X30899995Y-98480927D01*
X30897701Y-98562106D01*
X30894738Y-98624815D01*
X30891022Y-98672428D01*
X30886473Y-98708318D01*
X30881006Y-98735860D01*
X30874541Y-98758427D01*
X30866996Y-98779394D01*
X30838105Y-98841864D01*
X30769573Y-98948226D01*
X30685841Y-99044942D01*
X30599166Y-99116576D01*
X30586494Y-99124431D01*
X30559482Y-99138283D01*
X30527953Y-99148729D01*
X30486471Y-99156381D01*
X30429600Y-99161848D01*
X30351903Y-99165741D01*
X30247945Y-99168670D01*
X30112289Y-99171246D01*
X29699680Y-99178249D01*
X29587811Y-99118787D01*
X29573945Y-99111165D01*
X29453564Y-99019588D01*
X29358736Y-98897621D01*
X29292682Y-98749294D01*
X29288659Y-98736405D01*
X29281184Y-98710268D01*
X29274836Y-98682130D01*
X29269522Y-98648493D01*
X29265150Y-98605858D01*
X29261628Y-98550728D01*
X29258865Y-98479602D01*
X29256769Y-98388984D01*
X29255247Y-98275374D01*
X29254207Y-98135273D01*
X29254043Y-98092217D01*
X29642953Y-98092217D01*
X30037507Y-98252600D01*
X30092822Y-98275087D01*
X30203418Y-98320059D01*
X30300318Y-98359478D01*
X30378165Y-98391163D01*
X30431601Y-98412933D01*
X30455270Y-98422611D01*
X30463218Y-98422972D01*
X30474839Y-98397914D01*
X30478479Y-98333679D01*
X30478479Y-98235120D01*
X30283523Y-98152230D01*
X30278175Y-97961398D01*
X30272828Y-97770566D01*
X30375653Y-97732176D01*
X30478479Y-97693786D01*
X30478479Y-97598841D01*
X30477998Y-97572932D01*
X30473511Y-97523514D01*
X30465838Y-97503896D01*
X30452473Y-97508373D01*
X30409046Y-97524996D01*
X30341632Y-97551553D01*
X30256368Y-97585561D01*
X30159394Y-97624535D01*
X30056850Y-97665994D01*
X29954874Y-97707453D01*
X29859607Y-97746428D01*
X29777187Y-97780437D01*
X29713753Y-97806996D01*
X29675445Y-97823621D01*
X29672481Y-97825103D01*
X29654470Y-97845663D01*
X29645430Y-97888906D01*
X29642953Y-97965344D01*
X29642953Y-98092217D01*
X29254043Y-98092217D01*
X29253559Y-97965184D01*
X29253210Y-97761608D01*
X29253067Y-97521046D01*
X29253051Y-97349956D01*
X29642953Y-97349956D01*
X30478479Y-97349956D01*
X30478479Y-97153180D01*
X30195329Y-97147109D01*
X29912178Y-97141039D01*
X30195329Y-97023337D01*
X30478479Y-96905636D01*
X30478437Y-96825415D01*
X30478394Y-96745194D01*
X30213853Y-96637476D01*
X30168627Y-96618892D01*
X30079789Y-96581343D01*
X30006264Y-96548868D01*
X29954681Y-96524438D01*
X29931674Y-96511026D01*
X29933392Y-96507431D01*
X29962117Y-96501410D01*
X30019276Y-96496613D01*
X30099209Y-96493440D01*
X30196257Y-96492294D01*
X30478479Y-96492294D01*
X30478479Y-96316363D01*
X29642953Y-96316363D01*
X29642953Y-96576647D01*
X29796133Y-96636458D01*
X29934191Y-96691119D01*
X30056845Y-96741731D01*
X30146696Y-96781641D01*
X30205280Y-96811577D01*
X30234134Y-96832269D01*
X30234794Y-96844443D01*
X30222727Y-96850594D01*
X30178725Y-96870354D01*
X30110229Y-96899773D01*
X30023827Y-96936036D01*
X29926103Y-96976329D01*
X29642953Y-97092093D01*
X29642953Y-97349956D01*
X29253051Y-97349956D01*
X29253041Y-97240000D01*
X29253044Y-97129788D01*
X29253110Y-96864155D01*
X29253333Y-96637703D01*
X29253802Y-96446939D01*
X29254606Y-96288370D01*
X29255836Y-96158502D01*
X29257581Y-96053841D01*
X29259932Y-95970894D01*
X29262978Y-95906168D01*
X29266809Y-95856168D01*
X29271514Y-95817401D01*
X29277184Y-95786375D01*
X29283909Y-95759594D01*
X29291778Y-95733566D01*
X29326075Y-95648535D01*
X29404265Y-95524287D01*
X29503801Y-95421198D01*
X29615080Y-95350643D01*
X29645511Y-95338016D01*
X29684966Y-95325349D01*
X29730162Y-95316335D01*
X29787376Y-95310372D01*
X29862885Y-95306859D01*
X29962969Y-95305195D01*
X30093905Y-95304779D01*
X30469195Y-95304796D01*
G37*
G36*
X30138237Y-97849156D02*
G01*
X30142595Y-97897771D01*
X30144269Y-97968067D01*
X30142076Y-98044865D01*
X30134678Y-98085023D01*
X30121060Y-98092237D01*
X30119834Y-98091709D01*
X30088998Y-98079279D01*
X30034704Y-98058009D01*
X29967880Y-98032184D01*
X29960890Y-98029483D01*
X29896218Y-98002941D01*
X29846497Y-97979884D01*
X29821999Y-97965040D01*
X29821939Y-97964972D01*
X29833161Y-97953310D01*
X29870692Y-97932858D01*
X29925389Y-97907473D01*
X29988112Y-97881013D01*
X30049720Y-97857337D01*
X30101072Y-97840302D01*
X30133028Y-97833766D01*
X30138237Y-97849156D01*
G37*
G36*
X47374906Y-79847851D02*
G01*
X47457978Y-80304918D01*
X47543131Y-80766528D01*
X47608942Y-81115673D01*
X47645668Y-81300091D01*
X47648452Y-81313118D01*
X47650441Y-81397508D01*
X47595850Y-81449418D01*
X47456104Y-81474541D01*
X47202628Y-81478570D01*
X46806846Y-81467196D01*
X45923511Y-81435351D01*
X45896712Y-81073290D01*
X45869913Y-80711228D01*
X46883490Y-80711228D01*
X46724875Y-79847851D01*
X46654884Y-79460727D01*
X46590419Y-79051538D01*
X46574534Y-78796840D01*
X46611072Y-78660121D01*
X46703877Y-78604866D01*
X46856791Y-78594562D01*
X47148657Y-78594562D01*
X47374906Y-79847851D01*
G37*
G36*
X44718338Y-78607935D02*
G01*
X44769330Y-78627135D01*
X45161986Y-78896360D01*
X45457819Y-79332027D01*
X45644056Y-79908420D01*
X45707919Y-80599825D01*
X45687535Y-80935138D01*
X45599555Y-81173788D01*
X45410379Y-81357932D01*
X45216643Y-81443931D01*
X44891459Y-81482850D01*
X44550112Y-81446127D01*
X44272765Y-81335353D01*
X44176145Y-81263971D01*
X43937548Y-81020059D01*
X43792384Y-80764843D01*
X43772407Y-80548272D01*
X43815999Y-80473990D01*
X43978720Y-80389114D01*
X44169940Y-80393287D01*
X44301855Y-80495293D01*
X44313500Y-80516876D01*
X44479214Y-80668460D01*
X44708441Y-80758378D01*
X44906178Y-80747051D01*
X44984938Y-80630604D01*
X45016572Y-80366333D01*
X44987920Y-80033259D01*
X44906068Y-79703252D01*
X44778103Y-79448180D01*
X44732941Y-79390067D01*
X44619667Y-79280407D01*
X44503237Y-79290137D01*
X44310569Y-79413897D01*
X44061864Y-79541883D01*
X43797703Y-79579001D01*
X43598803Y-79502892D01*
X43508373Y-79318684D01*
X43550744Y-79020459D01*
X43726422Y-78771729D01*
X44002482Y-78606612D01*
X44344571Y-78545288D01*
X44718338Y-78607935D01*
G37*
G36*
X39533590Y-81309529D02*
G01*
X39552130Y-81439665D01*
X39551701Y-81442307D01*
X39464037Y-81471702D01*
X39257082Y-81487123D01*
X38978802Y-81489204D01*
X38677164Y-81478578D01*
X38400137Y-81455879D01*
X38195685Y-81421742D01*
X38153747Y-81409163D01*
X37880263Y-81241979D01*
X37663388Y-80974372D01*
X37526595Y-80657914D01*
X37522565Y-80619874D01*
X38196011Y-80619874D01*
X38319057Y-80755011D01*
X38537237Y-80819181D01*
X38711392Y-80792985D01*
X38781124Y-80683377D01*
X38759444Y-80509465D01*
X38630551Y-80319668D01*
X38406764Y-80308360D01*
X38367457Y-80323412D01*
X38216255Y-80455074D01*
X38196011Y-80619874D01*
X37522565Y-80619874D01*
X37493357Y-80344178D01*
X37587148Y-80084736D01*
X37614402Y-79963168D01*
X37501626Y-79766681D01*
X37389738Y-79560659D01*
X37379855Y-79510803D01*
X38024000Y-79510803D01*
X38148014Y-79640976D01*
X38386857Y-79717722D01*
X38527928Y-79650323D01*
X38546799Y-79430088D01*
X38492329Y-79247012D01*
X38394609Y-79151579D01*
X38368005Y-79152294D01*
X38158763Y-79217307D01*
X38035839Y-79353195D01*
X38024000Y-79510803D01*
X37379855Y-79510803D01*
X37328561Y-79252034D01*
X37331690Y-79165677D01*
X37405726Y-78898902D01*
X37591636Y-78722307D01*
X37907290Y-78624619D01*
X38370557Y-78594562D01*
X39032406Y-78594562D01*
X39117880Y-79012325D01*
X39118828Y-79016966D01*
X39175604Y-79308013D01*
X39198400Y-79430088D01*
X39250250Y-79707749D01*
X39333068Y-80161973D01*
X39414362Y-80616480D01*
X39426064Y-80683377D01*
X39484435Y-81017066D01*
X39533590Y-81309529D01*
G37*
G36*
X53013082Y-80453157D02*
G01*
X52957686Y-80545528D01*
X52895177Y-80592235D01*
X52630627Y-80675976D01*
X52311407Y-80675825D01*
X52010230Y-80597888D01*
X51799809Y-80448273D01*
X51787500Y-80427524D01*
X52247574Y-80427524D01*
X52256738Y-80472895D01*
X52418898Y-80485034D01*
X52474222Y-80484565D01*
X52599756Y-80453157D01*
X52576803Y-80365474D01*
X52491970Y-80301685D01*
X52489020Y-80302749D01*
X52324514Y-80362086D01*
X52247574Y-80427524D01*
X51787500Y-80427524D01*
X51733360Y-80336257D01*
X51967931Y-80336257D01*
X52038325Y-80377018D01*
X52083600Y-80368978D01*
X52095340Y-80302749D01*
X52082805Y-80289416D01*
X51981311Y-80302749D01*
X51967931Y-80336257D01*
X51733360Y-80336257D01*
X51720624Y-80314787D01*
X51768283Y-80265614D01*
X51782725Y-80264808D01*
X51822281Y-80202866D01*
X51743848Y-80018019D01*
X51660765Y-79824853D01*
X51632777Y-79553045D01*
X51810113Y-79553045D01*
X51831658Y-79748354D01*
X51870126Y-79842107D01*
X51961953Y-79931404D01*
X51985372Y-79928579D01*
X52032688Y-79828456D01*
X52020072Y-79790870D01*
X52310983Y-79790870D01*
X52324388Y-79828456D01*
X52349284Y-79898264D01*
X52495394Y-80023626D01*
X52548640Y-80034371D01*
X52608284Y-79999038D01*
X52555544Y-79829949D01*
X52523780Y-79761218D01*
X52410671Y-79618512D01*
X52325070Y-79626052D01*
X52310983Y-79790870D01*
X52020072Y-79790870D01*
X51956144Y-79600420D01*
X51866284Y-79493039D01*
X51810113Y-79553045D01*
X51632777Y-79553045D01*
X51623311Y-79461120D01*
X51701055Y-79262983D01*
X52123847Y-79262983D01*
X52126536Y-79331328D01*
X52166202Y-79360258D01*
X52252898Y-79294725D01*
X52492514Y-79294725D01*
X52577578Y-79386766D01*
X52652197Y-79459039D01*
X52790407Y-79710093D01*
X52847432Y-79994929D01*
X52846568Y-79999038D01*
X52799389Y-80223463D01*
X52752592Y-80308107D01*
X52744318Y-80377018D01*
X52852450Y-80286624D01*
X52925880Y-80079088D01*
X52924781Y-79861971D01*
X52920715Y-79847520D01*
X52804903Y-79571239D01*
X52653392Y-79352879D01*
X52516821Y-79266370D01*
X52492514Y-79294725D01*
X52252898Y-79294725D01*
X52294891Y-79262983D01*
X52311273Y-79249027D01*
X52372544Y-79171684D01*
X52273511Y-79153285D01*
X52194363Y-79169350D01*
X52123847Y-79262983D01*
X51701055Y-79262983D01*
X51752254Y-79132500D01*
X51759999Y-79121698D01*
X51984284Y-78962690D01*
X52278206Y-78940260D01*
X52589658Y-79038423D01*
X52771615Y-79171684D01*
X52866530Y-79241198D01*
X53056715Y-79532601D01*
X53063110Y-79548671D01*
X53109343Y-79628280D01*
X53119484Y-79530791D01*
X53096339Y-79235132D01*
X53080883Y-79063529D01*
X53075096Y-78826950D01*
X53118313Y-78726728D01*
X53224292Y-78705965D01*
X53365519Y-78768678D01*
X53456685Y-79012325D01*
X53483607Y-79167161D01*
X53557337Y-79573748D01*
X53615755Y-79817258D01*
X53677044Y-79939469D01*
X53759389Y-79982159D01*
X53880975Y-79987106D01*
X54064269Y-80033095D01*
X54164665Y-80165319D01*
X54134252Y-80322717D01*
X53961944Y-80442878D01*
X53670714Y-80446531D01*
X53407250Y-80292053D01*
X53238554Y-80015862D01*
X53190234Y-79868116D01*
X53163558Y-79860920D01*
X53155531Y-80064341D01*
X53152909Y-80079088D01*
X53117295Y-80279384D01*
X53013082Y-80453157D01*
G37*
G36*
X47826373Y-78616309D02*
G01*
X48232602Y-78650263D01*
X48235039Y-79384131D01*
X48238540Y-79593054D01*
X48289634Y-80130452D01*
X48408324Y-80480689D01*
X48603452Y-80661573D01*
X48883860Y-80690912D01*
X48934514Y-80684905D01*
X49131606Y-80684175D01*
X49230619Y-80770210D01*
X49291519Y-80986489D01*
X49292342Y-80990446D01*
X49331102Y-81250987D01*
X49326784Y-81407500D01*
X49325104Y-81411187D01*
X49203941Y-81481966D01*
X48976607Y-81496881D01*
X48699012Y-81462668D01*
X48427066Y-81386060D01*
X48216679Y-81273791D01*
X48107274Y-81179318D01*
X47943167Y-80980991D01*
X47814505Y-80712671D01*
X47700164Y-80324416D01*
X47579018Y-79766286D01*
X47504277Y-79386168D01*
X47438937Y-78995919D01*
X47430716Y-78759890D01*
X47487375Y-78641999D01*
X47616673Y-78606166D01*
X47826373Y-78616309D01*
G37*
G36*
X43598442Y-80548387D02*
G01*
X43671600Y-80963744D01*
X43722715Y-81270244D01*
X43742103Y-81414225D01*
X43737044Y-81429867D01*
X43629115Y-81470876D01*
X43424728Y-81469927D01*
X43413498Y-81468686D01*
X43205329Y-81421260D01*
X43098487Y-81294503D01*
X43031384Y-81017588D01*
X43017026Y-80940009D01*
X42952450Y-80709261D01*
X42840576Y-80616745D01*
X42619675Y-80599825D01*
X42537718Y-80597612D01*
X42099985Y-80495722D01*
X41766349Y-80252660D01*
X41558817Y-79883289D01*
X41499913Y-79687107D01*
X41490507Y-79633257D01*
X42135243Y-79633257D01*
X42244263Y-79776354D01*
X42366526Y-79864502D01*
X42568940Y-79926011D01*
X42733832Y-79895543D01*
X42801962Y-79773410D01*
X42801945Y-79767531D01*
X42739025Y-79456090D01*
X42585805Y-79281002D01*
X42389075Y-79267832D01*
X42195628Y-79442143D01*
X42166632Y-79490380D01*
X42135243Y-79633257D01*
X41490507Y-79633257D01*
X41443495Y-79364100D01*
X41489243Y-79116521D01*
X41643529Y-78868007D01*
X41678175Y-78824149D01*
X41802333Y-78702029D01*
X41955538Y-78632691D01*
X42185070Y-78601686D01*
X42538212Y-78594562D01*
X43222978Y-78594562D01*
X43308655Y-79012325D01*
X43343549Y-79185779D01*
X43424733Y-79605744D01*
X43456055Y-79773410D01*
X43512925Y-80077833D01*
X43598442Y-80548387D01*
G37*
G36*
X51817008Y-77657114D02*
G01*
X52319924Y-77776017D01*
X52768493Y-77958764D01*
X53108566Y-78195809D01*
X53165587Y-78254098D01*
X53189528Y-78304597D01*
X53094501Y-78286273D01*
X52858572Y-78199445D01*
X52402514Y-78069574D01*
X51908736Y-78031877D01*
X51471991Y-78105078D01*
X51125107Y-78283130D01*
X50900911Y-78559987D01*
X50878946Y-78591075D01*
X50711661Y-78674367D01*
X50444319Y-78705965D01*
X50056117Y-78705965D01*
X50277524Y-79048723D01*
X50405455Y-79298348D01*
X50497683Y-79690782D01*
X50465959Y-80048862D01*
X50308859Y-80314999D01*
X50288818Y-80333304D01*
X50183084Y-80441915D01*
X50213747Y-80482404D01*
X50398129Y-80488421D01*
X50497138Y-80484288D01*
X50632006Y-80431053D01*
X50652344Y-80293465D01*
X50649155Y-80251667D01*
X50704001Y-80123397D01*
X50895101Y-80064577D01*
X50962102Y-80055546D01*
X51096571Y-80010590D01*
X51128973Y-79888175D01*
X51089566Y-79618963D01*
X51042422Y-79324613D01*
X51015429Y-78963477D01*
X51059467Y-78765982D01*
X51177043Y-78705965D01*
X51204849Y-78708099D01*
X51299625Y-78775955D01*
X51371927Y-78973381D01*
X51440760Y-79346535D01*
X51483639Y-79621373D01*
X51542829Y-79990667D01*
X51584378Y-80237763D01*
X51592040Y-80283702D01*
X51589082Y-80419470D01*
X51496970Y-80476692D01*
X51274891Y-80488421D01*
X51199902Y-80488880D01*
X51021144Y-80506165D01*
X50969519Y-80569599D01*
X51010627Y-80707733D01*
X51047860Y-80781837D01*
X51267529Y-81039933D01*
X51596989Y-81287187D01*
X51990094Y-81493081D01*
X52400698Y-81627093D01*
X52667043Y-81670859D01*
X53188773Y-81645942D01*
X53625170Y-81445472D01*
X53996631Y-81062230D01*
X54291440Y-80655527D01*
X54232591Y-81040083D01*
X54140954Y-81383240D01*
X53872880Y-81823686D01*
X53449437Y-82179272D01*
X53111088Y-82312046D01*
X52648338Y-82366224D01*
X52135035Y-82332749D01*
X51625090Y-82215437D01*
X51172413Y-82018103D01*
X50977912Y-81892068D01*
X50626158Y-81606245D01*
X50308884Y-81282781D01*
X50066489Y-80964989D01*
X49939373Y-80696181D01*
X49858475Y-80533415D01*
X49679156Y-80373393D01*
X49544117Y-80263654D01*
X49472669Y-80096218D01*
X49482895Y-80020445D01*
X49567286Y-79964535D01*
X49771995Y-79994456D01*
X49805811Y-80002627D01*
X49986974Y-80028409D01*
X50058248Y-79957655D01*
X50070012Y-79748846D01*
X50032047Y-79388084D01*
X49910090Y-79194599D01*
X49696113Y-79176445D01*
X49635067Y-79185788D01*
X49446789Y-79137448D01*
X49333057Y-79000195D01*
X49342071Y-78822249D01*
X49423896Y-78748926D01*
X49605999Y-78705965D01*
X49740644Y-78672781D01*
X49814756Y-78546946D01*
X49857018Y-78408101D01*
X50022277Y-78182383D01*
X50274683Y-77948379D01*
X50573517Y-77748915D01*
X50864737Y-77649022D01*
X51313896Y-77611600D01*
X51817008Y-77657114D01*
G37*
G36*
X40421308Y-78594020D02*
G01*
X40840713Y-78779751D01*
X41159645Y-79145236D01*
X41377279Y-79689331D01*
X41492787Y-80410896D01*
X41510057Y-80666724D01*
X41503133Y-80921472D01*
X41440536Y-81089023D01*
X41304269Y-81249428D01*
X41192395Y-81342322D01*
X40901339Y-81461117D01*
X40573052Y-81477903D01*
X40242176Y-81407072D01*
X39943353Y-81263016D01*
X39711225Y-81060127D01*
X39580434Y-80812797D01*
X39585622Y-80535418D01*
X39630570Y-80462917D01*
X39792708Y-80386881D01*
X39982222Y-80395815D01*
X40111726Y-80496228D01*
X40249851Y-80648539D01*
X40476939Y-80733992D01*
X40685295Y-80694145D01*
X40688426Y-80691967D01*
X40808517Y-80495635D01*
X40833060Y-80195595D01*
X40773932Y-79860059D01*
X40643011Y-79557237D01*
X40452174Y-79355341D01*
X40405053Y-79328845D01*
X40232853Y-79291412D01*
X40080255Y-79412412D01*
X39918797Y-79528180D01*
X39686695Y-79590401D01*
X39468376Y-79576304D01*
X39335321Y-79479458D01*
X39318533Y-79433331D01*
X39316872Y-79174233D01*
X39409234Y-78894990D01*
X39565956Y-78696327D01*
X39632499Y-78661126D01*
X39873439Y-78595065D01*
X40160183Y-78568853D01*
X40421308Y-78594020D01*
G37*
%TO.C,C25*%
X73760000Y-118109420D02*
X73760000Y-118390580D01*
X74780000Y-118109420D02*
X74780000Y-118390580D01*
%TO.C,G\u002A\u002A\u002A*%
G36*
X68265657Y-115971251D02*
G01*
X68288008Y-115976405D01*
X68375052Y-115995151D01*
X68445292Y-116008504D01*
X68477064Y-116016315D01*
X68544964Y-116055636D01*
X68581875Y-116112368D01*
X68577995Y-116174269D01*
X68547485Y-116213991D01*
X68490180Y-116251753D01*
X68458732Y-116263825D01*
X68418332Y-116274580D01*
X68378134Y-116271567D01*
X68313702Y-116255274D01*
X68305879Y-116253038D01*
X68224440Y-116208071D01*
X68173809Y-116133624D01*
X68156396Y-116033101D01*
X68156396Y-115945607D01*
X68265657Y-115971251D01*
G37*
G36*
X58824210Y-117110039D02*
G01*
X58824210Y-116425964D01*
X59248400Y-116425964D01*
X59362026Y-116432225D01*
X59420507Y-116434297D01*
X59521706Y-116427621D01*
X59591997Y-116402673D01*
X59643408Y-116356205D01*
X59689755Y-116297424D01*
X59751871Y-116349378D01*
X59818822Y-116393389D01*
X59896714Y-116428519D01*
X59966720Y-116446183D01*
X60107482Y-116451142D01*
X60255754Y-116417172D01*
X60274603Y-116410113D01*
X60353246Y-116362575D01*
X60615013Y-116362575D01*
X60639898Y-116400914D01*
X60700931Y-116427131D01*
X60803154Y-116447881D01*
X60961857Y-116448527D01*
X61113246Y-116411092D01*
X61161741Y-116390630D01*
X61220573Y-116356691D01*
X61262719Y-116314253D01*
X61290851Y-116257102D01*
X61307643Y-116179021D01*
X61315767Y-116073797D01*
X61317895Y-115935214D01*
X61317898Y-115916114D01*
X61684242Y-115916114D01*
X61694694Y-116049610D01*
X61732666Y-116175005D01*
X61797173Y-116283386D01*
X61887227Y-116365841D01*
X61930247Y-116390002D01*
X62048467Y-116431315D01*
X62179689Y-116450830D01*
X62310129Y-116448316D01*
X62425998Y-116423543D01*
X62513511Y-116376282D01*
X62549886Y-116349993D01*
X62581636Y-116336736D01*
X62589716Y-116353186D01*
X62596799Y-116401855D01*
X62601595Y-116474990D01*
X62603360Y-116564761D01*
X62603360Y-116792786D01*
X62911862Y-116792786D01*
X62911862Y-116435878D01*
X63297489Y-116435878D01*
X63605991Y-116435878D01*
X63605991Y-116277252D01*
X63704808Y-116353467D01*
X63738177Y-116376944D01*
X63817687Y-116419942D01*
X63887982Y-116442694D01*
X63926705Y-116447745D01*
X64068431Y-116451255D01*
X64195666Y-116432251D01*
X64292985Y-116392640D01*
X64303192Y-116384903D01*
X64342267Y-116342765D01*
X64380756Y-116287166D01*
X64385603Y-116278641D01*
X64401112Y-116244147D01*
X64412381Y-116201751D01*
X64420062Y-116145104D01*
X64424808Y-116067856D01*
X64427269Y-115963657D01*
X64428099Y-115826159D01*
X64428663Y-115444465D01*
X64123407Y-115444465D01*
X64115357Y-115799348D01*
X64112812Y-115895709D01*
X64107099Y-116015443D01*
X64097153Y-116103483D01*
X64080606Y-116164665D01*
X64055095Y-116203830D01*
X64018254Y-116225814D01*
X63967718Y-116235456D01*
X63901122Y-116237595D01*
X63900996Y-116237595D01*
X63810439Y-116230358D01*
X63739434Y-116206198D01*
X63685932Y-116161392D01*
X63647885Y-116092217D01*
X63623245Y-115994951D01*
X63609963Y-115865872D01*
X63605991Y-115701256D01*
X63605991Y-115444465D01*
X63297489Y-115444465D01*
X63297489Y-116435878D01*
X62911862Y-116435878D01*
X62911862Y-115444465D01*
X62603360Y-115444465D01*
X62603360Y-115503950D01*
X62603250Y-115509984D01*
X62591652Y-115552606D01*
X62565866Y-115561489D01*
X62532905Y-115533675D01*
X62530070Y-115530080D01*
X62476332Y-115492518D01*
X62390712Y-115458615D01*
X62290929Y-115434083D01*
X62194705Y-115424637D01*
X62177244Y-115424881D01*
X62029404Y-115447127D01*
X61900127Y-115502178D01*
X61800857Y-115585364D01*
X61761879Y-115642747D01*
X61749843Y-115660467D01*
X61702296Y-115783429D01*
X61684242Y-115916114D01*
X61317898Y-115916114D01*
X61317935Y-115642747D01*
X61523603Y-115642747D01*
X61523603Y-115444465D01*
X61317935Y-115444465D01*
X61317935Y-115372499D01*
X64787287Y-115372499D01*
X64903547Y-115428310D01*
X64933318Y-115442500D01*
X64937879Y-115444465D01*
X65001853Y-115472024D01*
X65045106Y-115480067D01*
X65076381Y-115466924D01*
X65108982Y-115432894D01*
X65133538Y-115409486D01*
X65221917Y-115362443D01*
X65336710Y-115333385D01*
X65463060Y-115323913D01*
X65586110Y-115335630D01*
X65691005Y-115370137D01*
X65765061Y-115418688D01*
X65840907Y-115509128D01*
X65885456Y-115627866D01*
X65899846Y-115777121D01*
X65893992Y-115885004D01*
X65866576Y-116005219D01*
X65814876Y-116097609D01*
X65736845Y-116167069D01*
X65701979Y-116186320D01*
X65594690Y-116219774D01*
X65473361Y-116230967D01*
X65352739Y-116220646D01*
X65247565Y-116189559D01*
X65172586Y-116138454D01*
X65164750Y-116128803D01*
X65132976Y-116070957D01*
X65112148Y-116004613D01*
X65096477Y-115920343D01*
X65508421Y-115920343D01*
X65508421Y-115702232D01*
X64788583Y-115702232D01*
X64788583Y-116435878D01*
X65097085Y-116435878D01*
X65097085Y-116250825D01*
X65193491Y-116331213D01*
X65195043Y-116332501D01*
X65292507Y-116396424D01*
X65392732Y-116433543D01*
X65482888Y-116448102D01*
X65660192Y-116449281D01*
X65825041Y-116414702D01*
X65970936Y-116346936D01*
X66091375Y-116248556D01*
X66179858Y-116122132D01*
X66205202Y-116064690D01*
X66210798Y-116044579D01*
X67153765Y-116044579D01*
X67153839Y-116153375D01*
X67154432Y-116303481D01*
X67155899Y-116421409D01*
X67158574Y-116511811D01*
X67162791Y-116579340D01*
X67168882Y-116628649D01*
X67177183Y-116664391D01*
X67188025Y-116691218D01*
X67201743Y-116713783D01*
X67249721Y-116782872D01*
X67513354Y-116788549D01*
X67623330Y-116790417D01*
X67702567Y-116789769D01*
X67746372Y-116785433D01*
X67763080Y-116776520D01*
X67761023Y-116762142D01*
X67751291Y-116732112D01*
X67745060Y-116679903D01*
X67745059Y-116678872D01*
X67740131Y-116646627D01*
X67715493Y-116636650D01*
X67656061Y-116642624D01*
X67631817Y-116645626D01*
X67566761Y-116642753D01*
X67514665Y-116615089D01*
X67501473Y-116603841D01*
X67489030Y-116587781D01*
X67479539Y-116564295D01*
X67472601Y-116528776D01*
X67467818Y-116476623D01*
X67464792Y-116403230D01*
X67464540Y-116388234D01*
X67682466Y-116388234D01*
X67705048Y-116418352D01*
X67760407Y-116432125D01*
X67857713Y-116435574D01*
X67872203Y-116435552D01*
X67950588Y-116430377D01*
X68006882Y-116410558D01*
X68066339Y-116367904D01*
X68149459Y-116299930D01*
X68204189Y-116357025D01*
X68269713Y-116403143D01*
X68355482Y-116434802D01*
X68457323Y-116449972D01*
X68601806Y-116446157D01*
X68700637Y-116418347D01*
X69086653Y-116418347D01*
X69103187Y-116429205D01*
X69155015Y-116433396D01*
X69250014Y-116431883D01*
X69424584Y-116425964D01*
X69523253Y-116198435D01*
X69544865Y-116149152D01*
X69592968Y-116047668D01*
X69636024Y-115976794D01*
X69680434Y-115931100D01*
X69732596Y-115905153D01*
X69798910Y-115893523D01*
X69885775Y-115890779D01*
X70045971Y-115890601D01*
X70053124Y-116163239D01*
X70060276Y-116435878D01*
X70367327Y-116435878D01*
X70367327Y-115127213D01*
X69935730Y-115127213D01*
X69864007Y-115127266D01*
X69720891Y-115128098D01*
X69615928Y-115130543D01*
X69539710Y-115135370D01*
X69482826Y-115143347D01*
X69435867Y-115155243D01*
X69389425Y-115171826D01*
X69373347Y-115180301D01*
X69300217Y-115218849D01*
X69218638Y-115297403D01*
X69172678Y-115389665D01*
X69162831Y-115487566D01*
X69189593Y-115583037D01*
X69253458Y-115668009D01*
X69354922Y-115734415D01*
X69395737Y-115753500D01*
X69447351Y-115780201D01*
X69467530Y-115794624D01*
X69466553Y-115796771D01*
X69441817Y-115818376D01*
X69394170Y-115851543D01*
X69390027Y-115854316D01*
X69350922Y-115889893D01*
X69310545Y-115945797D01*
X69265096Y-116028065D01*
X69210773Y-116142730D01*
X69205540Y-116154310D01*
X69204624Y-116156337D01*
X69162863Y-116248568D01*
X69127101Y-116327243D01*
X69100967Y-116384394D01*
X69088090Y-116412055D01*
X69086653Y-116418347D01*
X68700637Y-116418347D01*
X68724369Y-116411669D01*
X68819144Y-116349523D01*
X68880259Y-116262733D01*
X68901847Y-116154310D01*
X68901536Y-116140083D01*
X68882434Y-116053294D01*
X68830483Y-115983687D01*
X68741161Y-115928317D01*
X68609944Y-115884239D01*
X68432311Y-115848507D01*
X68340934Y-115831512D01*
X68235814Y-115801050D01*
X68175601Y-115764617D01*
X68156396Y-115720404D01*
X68176779Y-115671353D01*
X68233715Y-115638574D01*
X68317286Y-115624147D01*
X68417560Y-115628582D01*
X68524601Y-115652393D01*
X68628477Y-115696090D01*
X68738591Y-115755952D01*
X68805905Y-115675195D01*
X68838951Y-115632609D01*
X68853457Y-115596184D01*
X68837197Y-115566360D01*
X68785080Y-115535049D01*
X68692018Y-115494162D01*
X68545029Y-115448928D01*
X68379363Y-115426687D01*
X68216236Y-115430076D01*
X68072884Y-115460044D01*
X68004297Y-115485884D01*
X67949185Y-115515908D01*
X67909746Y-115554543D01*
X67882939Y-115607999D01*
X67865722Y-115682483D01*
X67855054Y-115784205D01*
X67847894Y-115919374D01*
X67835040Y-116227681D01*
X67767539Y-116233717D01*
X67723660Y-116243041D01*
X67699582Y-116268802D01*
X67685637Y-116322561D01*
X67683496Y-116335750D01*
X67682466Y-116388234D01*
X67464540Y-116388234D01*
X67463123Y-116303993D01*
X67462415Y-116174307D01*
X67462267Y-116009570D01*
X67462267Y-115444465D01*
X67153765Y-115444465D01*
X67153765Y-116044579D01*
X66210798Y-116044579D01*
X66224459Y-115995478D01*
X66234820Y-115911897D01*
X66238587Y-115801373D01*
X66237998Y-115744247D01*
X66232344Y-115648564D01*
X66222002Y-115566333D01*
X66208333Y-115510640D01*
X66201942Y-115495207D01*
X66123575Y-115370516D01*
X66008864Y-115261642D01*
X65903167Y-115199667D01*
X67107010Y-115199667D01*
X67147338Y-115263754D01*
X67173879Y-115284212D01*
X67251967Y-115314010D01*
X67335586Y-115315279D01*
X67411530Y-115291259D01*
X67466597Y-115245186D01*
X67487582Y-115180301D01*
X67482094Y-115128059D01*
X67454477Y-115084183D01*
X67393258Y-115050868D01*
X67334328Y-115033181D01*
X67246502Y-115035445D01*
X67165450Y-115076741D01*
X67116039Y-115133044D01*
X67107010Y-115199667D01*
X65903167Y-115199667D01*
X65869335Y-115179830D01*
X65793629Y-115149719D01*
X65718267Y-115129325D01*
X65630205Y-115117708D01*
X65510100Y-115111171D01*
X65425649Y-115109567D01*
X65231420Y-115121101D01*
X65073342Y-115156558D01*
X64946603Y-115217341D01*
X64846391Y-115304856D01*
X64787287Y-115372499D01*
X61317935Y-115372499D01*
X61317935Y-115346899D01*
X61317237Y-115305980D01*
X61309640Y-115266408D01*
X61286896Y-115247559D01*
X61240809Y-115237844D01*
X61173453Y-115227809D01*
X61086558Y-115214864D01*
X61009433Y-115203375D01*
X61009433Y-115444465D01*
X60649514Y-115444465D01*
X60649514Y-115642747D01*
X61009433Y-115642747D01*
X61009433Y-115900515D01*
X61009267Y-115960021D01*
X61007506Y-116049842D01*
X61002775Y-116111170D01*
X60993799Y-116151379D01*
X60990732Y-116156980D01*
X60979305Y-116177844D01*
X60958016Y-116197939D01*
X60914667Y-116223509D01*
X60838669Y-116236194D01*
X60740400Y-116218033D01*
X60705138Y-116209454D01*
X60671521Y-116215654D01*
X60646590Y-116252732D01*
X60623905Y-116304502D01*
X60615013Y-116362575D01*
X60353246Y-116362575D01*
X60372109Y-116351173D01*
X60430805Y-116267264D01*
X60451752Y-116156980D01*
X60450436Y-116123738D01*
X60418284Y-116028574D01*
X60342851Y-115953383D01*
X60223319Y-115897547D01*
X60058869Y-115860448D01*
X59933112Y-115839075D01*
X59823780Y-115812072D01*
X59755079Y-115781837D01*
X59721113Y-115746379D01*
X59715068Y-115713591D01*
X59741627Y-115667857D01*
X59803794Y-115635313D01*
X59891939Y-115622919D01*
X60006785Y-115636125D01*
X60129814Y-115672864D01*
X60229346Y-115724975D01*
X60285487Y-115765654D01*
X60429515Y-115597794D01*
X60340273Y-115540172D01*
X60283046Y-115509108D01*
X60150041Y-115463299D01*
X59997613Y-115435615D01*
X59841002Y-115427367D01*
X59695448Y-115439868D01*
X59576193Y-115474429D01*
X59553891Y-115485053D01*
X59499108Y-115518336D01*
X59458811Y-115559447D01*
X59430405Y-115614749D01*
X59411295Y-115690603D01*
X59398885Y-115793372D01*
X59390580Y-115929418D01*
X59386680Y-116012650D01*
X59381572Y-116102667D01*
X59375645Y-116163481D01*
X59367345Y-116201240D01*
X59355118Y-116222090D01*
X59337412Y-116232177D01*
X59312672Y-116237650D01*
X59304050Y-116239309D01*
X59267915Y-116252877D01*
X59251974Y-116281591D01*
X59248400Y-116337630D01*
X59248400Y-116425964D01*
X58824210Y-116425964D01*
X58824210Y-114809961D01*
X70830080Y-114809961D01*
X70830080Y-117110039D01*
X58824210Y-117110039D01*
G37*
G36*
X70058825Y-115490731D02*
G01*
X70058589Y-115516714D01*
X70055133Y-115590546D01*
X70048416Y-115645406D01*
X70039544Y-115670957D01*
X70033810Y-115673239D01*
X69987018Y-115678472D01*
X69906596Y-115680622D01*
X69805894Y-115679216D01*
X69770929Y-115678041D01*
X69674322Y-115672854D01*
X69612629Y-115664145D01*
X69572949Y-115649293D01*
X69542382Y-115625678D01*
X69515207Y-115591549D01*
X69492518Y-115515762D01*
X69506515Y-115438151D01*
X69556341Y-115374165D01*
X69574082Y-115361197D01*
X69610457Y-115342097D01*
X69657768Y-115331327D01*
X69729500Y-115326566D01*
X69839135Y-115325495D01*
X70058825Y-115325495D01*
X70058825Y-115490731D01*
G37*
G36*
X62379468Y-115646287D02*
G01*
X62464000Y-115671696D01*
X62508449Y-115701879D01*
X62564951Y-115775124D01*
X62596615Y-115866598D01*
X62603287Y-115965825D01*
X62584812Y-116062328D01*
X62541039Y-116145632D01*
X62471813Y-116205261D01*
X62462305Y-116209832D01*
X62391073Y-116229579D01*
X62307712Y-116237595D01*
X62292374Y-116237271D01*
X62208799Y-116226514D01*
X62143611Y-116205261D01*
X62120619Y-116190793D01*
X62058925Y-116122882D01*
X62022584Y-116033898D01*
X62011779Y-115934291D01*
X62026691Y-115834511D01*
X62067503Y-115745008D01*
X62134396Y-115676232D01*
X62187093Y-115653476D01*
X62279872Y-115640314D01*
X62379468Y-115646287D01*
G37*
G36*
X59739248Y-115948919D02*
G01*
X59742069Y-115949789D01*
X59802843Y-115965898D01*
X59878259Y-115983009D01*
X59966530Y-116002950D01*
X60052554Y-116029392D01*
X60102642Y-116057587D01*
X60125603Y-116091393D01*
X60132799Y-116146942D01*
X60109288Y-116211252D01*
X60052350Y-116253627D01*
X59963109Y-116268428D01*
X59865223Y-116253271D01*
X59780453Y-116210800D01*
X59759007Y-116191248D01*
X59725037Y-116134215D01*
X59705714Y-116049337D01*
X59698549Y-115988065D01*
X59699650Y-115953723D01*
X59712333Y-115943320D01*
X59739248Y-115948919D01*
G37*
%TO.C,C28*%
X75210580Y-114160000D02*
X74929420Y-114160000D01*
X75210580Y-113140000D02*
X74929420Y-113140000D01*
%TO.C,G\u002A\u002A\u002A*%
G36*
X30181292Y-100412024D02*
G01*
X30204641Y-100412866D01*
X30325069Y-100418533D01*
X30414382Y-100426161D01*
X30482037Y-100437217D01*
X30537493Y-100453169D01*
X30590206Y-100475485D01*
X30614319Y-100488015D01*
X30712218Y-100558477D01*
X30801320Y-100650782D01*
X30871248Y-100752764D01*
X30911623Y-100852259D01*
X30917059Y-100875112D01*
X30932090Y-100935603D01*
X30941836Y-100970903D01*
X30942731Y-100981829D01*
X30944192Y-101034306D01*
X30945601Y-101125973D01*
X30946927Y-101252579D01*
X30948139Y-101409873D01*
X30949207Y-101593603D01*
X30950099Y-101799515D01*
X30950784Y-102023360D01*
X30951232Y-102260884D01*
X30951409Y-102402281D01*
X30951570Y-102671897D01*
X30951178Y-102901163D01*
X30949914Y-103093936D01*
X30947463Y-103254071D01*
X30943509Y-103385424D01*
X30937734Y-103491853D01*
X30929823Y-103577213D01*
X30919458Y-103645361D01*
X30906324Y-103700153D01*
X30890105Y-103745445D01*
X30870482Y-103785093D01*
X30847141Y-103822954D01*
X30819765Y-103862884D01*
X30817039Y-103866735D01*
X30731631Y-103957505D01*
X30616084Y-104037753D01*
X30481269Y-104113990D01*
X30069445Y-104106939D01*
X30060948Y-104106793D01*
X29919645Y-104103999D01*
X29813211Y-104100626D01*
X29734753Y-104095846D01*
X29677380Y-104088833D01*
X29634199Y-104078758D01*
X29598318Y-104064794D01*
X29562845Y-104046114D01*
X29472874Y-103986070D01*
X29363606Y-103874326D01*
X29285182Y-103734493D01*
X29236394Y-103616736D01*
X29231855Y-102615921D01*
X29622501Y-102615921D01*
X29629531Y-102894052D01*
X29632451Y-102999180D01*
X29636468Y-103083850D01*
X29642971Y-103139816D01*
X29653784Y-103176294D01*
X29670736Y-103202502D01*
X29695653Y-103227657D01*
X29722292Y-103249208D01*
X29802507Y-103281663D01*
X29883411Y-103273769D01*
X29954395Y-103225613D01*
X29968677Y-103210206D01*
X30004963Y-103175850D01*
X30021970Y-103173390D01*
X30026195Y-103200560D01*
X30028274Y-103213144D01*
X30055957Y-103257524D01*
X30105236Y-103302790D01*
X30162521Y-103337986D01*
X30214220Y-103352153D01*
X30291751Y-103342071D01*
X30379044Y-103303163D01*
X30440413Y-103241147D01*
X30448895Y-103225552D01*
X30463804Y-103181829D01*
X30474194Y-103118485D01*
X30481233Y-103026726D01*
X30486091Y-102897759D01*
X30493876Y-102615921D01*
X29622501Y-102615921D01*
X29231855Y-102615921D01*
X29230459Y-102307974D01*
X29229369Y-102059487D01*
X29228504Y-101797791D01*
X29228431Y-101575329D01*
X29229460Y-101388390D01*
X29229694Y-101373529D01*
X29623927Y-101373529D01*
X29630244Y-101503132D01*
X29636560Y-101632734D01*
X29946217Y-101748669D01*
X30009568Y-101772732D01*
X30106193Y-101810939D01*
X30182580Y-101843087D01*
X30232151Y-101866361D01*
X30248326Y-101877944D01*
X30241080Y-101882687D01*
X30200729Y-101901147D01*
X30131323Y-101929811D01*
X30039902Y-101965810D01*
X29933505Y-102006275D01*
X29626232Y-102121265D01*
X29626130Y-102242053D01*
X29626029Y-102362841D01*
X30489545Y-102362841D01*
X30489545Y-102180081D01*
X30199951Y-102173680D01*
X29910358Y-102167279D01*
X30199951Y-102055403D01*
X30489545Y-101943527D01*
X30489545Y-101793684D01*
X30199951Y-101681387D01*
X29910358Y-101569091D01*
X30199951Y-101562690D01*
X30489545Y-101556289D01*
X30489545Y-101373529D01*
X29623927Y-101373529D01*
X29229694Y-101373529D01*
X29231903Y-101233261D01*
X29236069Y-101106230D01*
X29242270Y-101003586D01*
X29250817Y-100921617D01*
X29262020Y-100856610D01*
X29276189Y-100804854D01*
X29293636Y-100762636D01*
X29314672Y-100726244D01*
X29339607Y-100691967D01*
X29368752Y-100656092D01*
X29425885Y-100592623D01*
X29507016Y-100523250D01*
X29597523Y-100472149D01*
X29622501Y-100463982D01*
X29623927Y-100463516D01*
X29703806Y-100437397D01*
X29832263Y-100417074D01*
X29989292Y-100409257D01*
X30181292Y-100412024D01*
G37*
G36*
X29963011Y-102921917D02*
G01*
X29960925Y-102981052D01*
X29945918Y-103051279D01*
X29912896Y-103088289D01*
X29857704Y-103099073D01*
X29822553Y-103095563D01*
X29780808Y-103070318D01*
X29758807Y-103014766D01*
X29752397Y-102921917D01*
X29752397Y-102799979D01*
X29963011Y-102799979D01*
X29963011Y-102921917D01*
G37*
G36*
X30359205Y-102952307D02*
G01*
X30348678Y-103047285D01*
X30324581Y-103118580D01*
X30283765Y-103156761D01*
X30222253Y-103168095D01*
X30190039Y-103164254D01*
X30134069Y-103127674D01*
X30100539Y-103052305D01*
X30089379Y-102938022D01*
X30089379Y-102799979D01*
X30368084Y-102799979D01*
X30359205Y-102952307D01*
G37*
G36*
X30161363Y-112508104D02*
G01*
X30166912Y-112535539D01*
X30168018Y-112590540D01*
X30166484Y-112636974D01*
X30158570Y-112675833D01*
X30142890Y-112687797D01*
X30142254Y-112687784D01*
X30112165Y-112681925D01*
X30058591Y-112667628D01*
X29992711Y-112648188D01*
X29925706Y-112626896D01*
X29868754Y-112607047D01*
X29865070Y-112604191D01*
X29879490Y-112590820D01*
X29928923Y-112569556D01*
X30012421Y-112540771D01*
X30129033Y-112504839D01*
X30148024Y-112500877D01*
X30161363Y-112508104D01*
G37*
G36*
X30302676Y-111152521D02*
G01*
X30380213Y-111154907D01*
X30438485Y-111159402D01*
X30483014Y-111166252D01*
X30519324Y-111175702D01*
X30609095Y-111211623D01*
X30723800Y-111286471D01*
X30811414Y-111384265D01*
X30869716Y-111502929D01*
X30873164Y-111516183D01*
X30877602Y-111544976D01*
X30881450Y-111587157D01*
X30884750Y-111644881D01*
X30887542Y-111720304D01*
X30889865Y-111815579D01*
X30891761Y-111932863D01*
X30893268Y-112074310D01*
X30894428Y-112242074D01*
X30895280Y-112438312D01*
X30895865Y-112665177D01*
X30896222Y-112924825D01*
X30896293Y-112998956D01*
X30896514Y-113250063D01*
X30896533Y-113469270D01*
X30896161Y-113658962D01*
X30895209Y-113821529D01*
X30893492Y-113959357D01*
X30890819Y-114074834D01*
X30887005Y-114170348D01*
X30881860Y-114248286D01*
X30875197Y-114311036D01*
X30866828Y-114360984D01*
X30856565Y-114400520D01*
X30844221Y-114432030D01*
X30829607Y-114457902D01*
X30812536Y-114480523D01*
X30792819Y-114502281D01*
X30770270Y-114525564D01*
X30746501Y-114548704D01*
X30684910Y-114600978D01*
X30626370Y-114642439D01*
X30551450Y-114688003D01*
X29554338Y-114688003D01*
X29445576Y-114618127D01*
X29383120Y-114573681D01*
X29326889Y-114517169D01*
X29280141Y-114444667D01*
X29223467Y-114341084D01*
X29223467Y-113980506D01*
X29700419Y-113980506D01*
X30336354Y-113980506D01*
X30336354Y-114294949D01*
X30467282Y-114294949D01*
X30467282Y-113840754D01*
X29700419Y-113840754D01*
X29700419Y-113980506D01*
X29223467Y-113980506D01*
X29223467Y-113648594D01*
X29700419Y-113648594D01*
X30467282Y-113648594D01*
X30467205Y-113574351D01*
X30467127Y-113500107D01*
X30205426Y-113351621D01*
X30143980Y-113316391D01*
X30064355Y-113269505D01*
X30000869Y-113230621D01*
X29958855Y-113203033D01*
X29943648Y-113190032D01*
X29945852Y-113188330D01*
X29974849Y-113183845D01*
X30032237Y-113180226D01*
X30111325Y-113177810D01*
X30205426Y-113176930D01*
X30467282Y-113176930D01*
X30467282Y-113037178D01*
X29700419Y-113037178D01*
X29700419Y-113209501D01*
X29920190Y-113335524D01*
X30009682Y-113386765D01*
X30091015Y-113434377D01*
X30141611Y-113467702D01*
X30161872Y-113489279D01*
X30152199Y-113501644D01*
X30112991Y-113507334D01*
X30044651Y-113508888D01*
X29947578Y-113508842D01*
X29700419Y-113508842D01*
X29700419Y-113648594D01*
X29223467Y-113648594D01*
X29223467Y-112504372D01*
X29699359Y-112504372D01*
X29709771Y-112693632D01*
X30074498Y-112812075D01*
X30103700Y-112821545D01*
X30211494Y-112856275D01*
X30305944Y-112886355D01*
X30381560Y-112910060D01*
X30432852Y-112925663D01*
X30454329Y-112931441D01*
X30458084Y-112929110D01*
X30464025Y-112903614D01*
X30463681Y-112858890D01*
X30460043Y-112824184D01*
X30448942Y-112794783D01*
X30421704Y-112776691D01*
X30368386Y-112759540D01*
X30278842Y-112733664D01*
X30289594Y-112453598D01*
X30378438Y-112427878D01*
X30419050Y-112415447D01*
X30452077Y-112399219D01*
X30465038Y-112375765D01*
X30467282Y-112335349D01*
X30467017Y-112322428D01*
X30462203Y-112283998D01*
X30453254Y-112268530D01*
X30450498Y-112269005D01*
X30420058Y-112277410D01*
X30361275Y-112295028D01*
X30279592Y-112320187D01*
X30180450Y-112351217D01*
X30069292Y-112386446D01*
X29699359Y-112504372D01*
X29223467Y-112504372D01*
X29223467Y-111915466D01*
X29686487Y-111915466D01*
X29693660Y-112004363D01*
X29720062Y-112086355D01*
X29762691Y-112152539D01*
X29818544Y-112194016D01*
X29845207Y-112202692D01*
X29869453Y-112195484D01*
X29894872Y-112162085D01*
X29902290Y-112150242D01*
X29916172Y-112120464D01*
X29908008Y-112098476D01*
X29874483Y-112069166D01*
X29869940Y-112065465D01*
X29839441Y-112033764D01*
X29825390Y-111996261D01*
X29821995Y-111938537D01*
X29825450Y-111881893D01*
X29840495Y-111839882D01*
X29872938Y-111802496D01*
X29885293Y-111791535D01*
X29922474Y-111767902D01*
X29970228Y-111754798D01*
X30041946Y-111747895D01*
X30120545Y-111747138D01*
X30216574Y-111762974D01*
X30285285Y-111800061D01*
X30328736Y-111859198D01*
X30344274Y-111904663D01*
X30344153Y-111976316D01*
X30308641Y-112040498D01*
X30236775Y-112099729D01*
X30221709Y-112110808D01*
X30212523Y-112132611D01*
X30225749Y-112168803D01*
X30246712Y-112201955D01*
X30265469Y-112216132D01*
X30288747Y-112211969D01*
X30339932Y-112187577D01*
X30391798Y-112149243D01*
X30430631Y-112106103D01*
X30442419Y-112084556D01*
X30453254Y-112045957D01*
X30463997Y-112007685D01*
X30468122Y-111918139D01*
X30455014Y-111829291D01*
X30424890Y-111754513D01*
X30394466Y-111713242D01*
X30317144Y-111652591D01*
X30214521Y-111616692D01*
X30085584Y-111605099D01*
X30022332Y-111607555D01*
X29901974Y-111629509D01*
X29808687Y-111674802D01*
X29741278Y-111744153D01*
X29698554Y-111838280D01*
X29686487Y-111915466D01*
X29223467Y-111915466D01*
X29223467Y-111508636D01*
X29265678Y-111434856D01*
X29331158Y-111344693D01*
X29425172Y-111258277D01*
X29530411Y-111196337D01*
X29536359Y-111193802D01*
X29567926Y-111182009D01*
X29602711Y-111173055D01*
X29646412Y-111166450D01*
X29704728Y-111161699D01*
X29783357Y-111158311D01*
X29887997Y-111155794D01*
X30024346Y-111153654D01*
X30067716Y-111153091D01*
X30085584Y-111152944D01*
X30200352Y-111151997D01*
X30302676Y-111152521D01*
G37*
G36*
X30055034Y-105369654D02*
G01*
X30183374Y-105370085D01*
X30279819Y-105371742D01*
X30350995Y-105375380D01*
X30403533Y-105381751D01*
X30444061Y-105391608D01*
X30479208Y-105405703D01*
X30515601Y-105424791D01*
X30538517Y-105438341D01*
X30652783Y-105532422D01*
X30744411Y-105653788D01*
X30805084Y-105791893D01*
X30807319Y-105799567D01*
X30814764Y-105828569D01*
X30821029Y-105861635D01*
X30826196Y-105902623D01*
X30830350Y-105955394D01*
X30833576Y-106023808D01*
X30835957Y-106111723D01*
X30837579Y-106222999D01*
X30838524Y-106361497D01*
X30838877Y-106531075D01*
X30838723Y-106735593D01*
X30838146Y-106978912D01*
X30837230Y-107264890D01*
X30832605Y-108613974D01*
X30783260Y-108727408D01*
X30759697Y-108775480D01*
X30677292Y-108894668D01*
X30575292Y-108992321D01*
X30465638Y-109056084D01*
X30436287Y-109066131D01*
X30387828Y-109077050D01*
X30326253Y-109084110D01*
X30244944Y-109087738D01*
X30137284Y-109088364D01*
X29996659Y-109086414D01*
X29879939Y-109083879D01*
X29776771Y-109080461D01*
X29700764Y-109075659D01*
X29645244Y-109068583D01*
X29603536Y-109058343D01*
X29568969Y-109044049D01*
X29534868Y-109024810D01*
X29450230Y-108964107D01*
X29347439Y-108851135D01*
X29273665Y-108709765D01*
X29227769Y-108590714D01*
X29227769Y-107946145D01*
X29579548Y-107946145D01*
X29587147Y-108064513D01*
X29615114Y-108173685D01*
X29660270Y-108261809D01*
X29719434Y-108317036D01*
X29747678Y-108328588D01*
X29773360Y-108318990D01*
X29800287Y-108274520D01*
X29808145Y-108258751D01*
X29822850Y-108219101D01*
X29814202Y-108189823D01*
X29778689Y-108150797D01*
X29773877Y-108145870D01*
X29741570Y-108103660D01*
X29726686Y-108053725D01*
X29723089Y-107976865D01*
X29726749Y-107901443D01*
X29742686Y-107845505D01*
X29777052Y-107795727D01*
X29790140Y-107781131D01*
X29829525Y-107749664D01*
X29880110Y-107732215D01*
X29956079Y-107723025D01*
X30039338Y-107722017D01*
X30141061Y-107743102D01*
X30213844Y-107792483D01*
X30259871Y-107871224D01*
X30276331Y-107931761D01*
X30276203Y-108027167D01*
X30238585Y-108112626D01*
X30162459Y-108191493D01*
X30146499Y-108206244D01*
X30136769Y-108235275D01*
X30150779Y-108283464D01*
X30172984Y-108327606D01*
X30192854Y-108346483D01*
X30217512Y-108340939D01*
X30271731Y-108308462D01*
X30326672Y-108257420D01*
X30367807Y-108199979D01*
X30380294Y-108171289D01*
X30403151Y-108068936D01*
X30407521Y-107949705D01*
X30393635Y-107831403D01*
X30361726Y-107731836D01*
X30329498Y-107676884D01*
X30247592Y-107596127D01*
X30138885Y-107548327D01*
X30002305Y-107532892D01*
X29935303Y-107536162D01*
X29807810Y-107565393D01*
X29708993Y-107625701D01*
X29637587Y-107718042D01*
X29592331Y-107843373D01*
X29579548Y-107946145D01*
X29227769Y-107946145D01*
X29227769Y-106322857D01*
X29592328Y-106322857D01*
X29598270Y-106453884D01*
X29604212Y-106584910D01*
X29895512Y-106702119D01*
X29955108Y-106726446D01*
X30046004Y-106765073D01*
X30117863Y-106797575D01*
X30164495Y-106821104D01*
X30179712Y-106832815D01*
X30172895Y-106837610D01*
X30134936Y-106856273D01*
X30069645Y-106885252D01*
X29983643Y-106921647D01*
X29883554Y-106962556D01*
X29594496Y-107078809D01*
X29594401Y-107200925D01*
X29594306Y-107323040D01*
X30406630Y-107323040D01*
X30406630Y-107138272D01*
X30134204Y-107131801D01*
X29861779Y-107125329D01*
X30134204Y-107012224D01*
X30406630Y-106899118D01*
X30406630Y-106747629D01*
X30134204Y-106634098D01*
X29861779Y-106520568D01*
X30134204Y-106514096D01*
X30406630Y-106507625D01*
X30406630Y-106322857D01*
X29592328Y-106322857D01*
X29227769Y-106322857D01*
X29227769Y-105846025D01*
X29274077Y-105741355D01*
X29320513Y-105650608D01*
X29421097Y-105518777D01*
X29544774Y-105424723D01*
X29551028Y-105421266D01*
X29586788Y-105403059D01*
X29592328Y-105400983D01*
X29622395Y-105389716D01*
X29664481Y-105380486D01*
X29719674Y-105374616D01*
X29794603Y-105371355D01*
X29895897Y-105369950D01*
X30030187Y-105369648D01*
X30055034Y-105369654D01*
G37*
%TO.C,C27*%
X74010580Y-115860000D02*
X73729420Y-115860000D01*
X74010580Y-114840000D02*
X73729420Y-114840000D01*
D15*
%TO.C,U4*%
X81685000Y-121502500D02*
X81685000Y-114997500D01*
X78180000Y-121502500D02*
X81685000Y-121502500D01*
X81685000Y-114997500D02*
X78180000Y-114997500D01*
X78180000Y-114997500D02*
X78180000Y-121502500D01*
D11*
X75032500Y-120540000D02*
G75*
G03*
X75032500Y-120540000I-100000J0D01*
G01*
D14*
%TO.C,C8*%
X53820000Y-97149420D02*
X53820000Y-97430580D01*
X54840000Y-97149420D02*
X54840000Y-97430580D01*
%TO.C,D1*%
X84020000Y-109300000D02*
X78320000Y-109300000D01*
X84020000Y-113600000D02*
X78320000Y-113600000D01*
X84020000Y-109300000D02*
X84020000Y-113600000D01*
%TO.C,G\u002A\u002A\u002A*%
G36*
X63969321Y-121133113D02*
G01*
X64017256Y-121179674D01*
X64046850Y-121245957D01*
X64056502Y-121284415D01*
X63706583Y-121284415D01*
X63715729Y-121238682D01*
X63731949Y-121186972D01*
X63767104Y-121140352D01*
X63820411Y-121113793D01*
X63836866Y-121109915D01*
X63907654Y-121108962D01*
X63969321Y-121133113D01*
G37*
G36*
X67568069Y-121377397D02*
G01*
X67592190Y-121386000D01*
X67648447Y-121402218D01*
X67718602Y-121419258D01*
X67765695Y-121439406D01*
X67801768Y-121479385D01*
X67814775Y-121532480D01*
X67810106Y-121565306D01*
X67783442Y-121607571D01*
X67736115Y-121631313D01*
X67679706Y-121634830D01*
X67624124Y-121615387D01*
X67580948Y-121573605D01*
X67552985Y-121512345D01*
X67543041Y-121434468D01*
X67543118Y-121420883D01*
X67545425Y-121387348D01*
X67552877Y-121374826D01*
X67568069Y-121377397D01*
G37*
G36*
X57331554Y-122342748D02*
G01*
X57331554Y-121770676D01*
X57787279Y-121770676D01*
X57987801Y-121770676D01*
X57992195Y-121477854D01*
X57992933Y-121430077D01*
X57994580Y-121342726D01*
X57996599Y-121278093D01*
X57999440Y-121232121D01*
X58003550Y-121200751D01*
X58009377Y-121179927D01*
X58017369Y-121165589D01*
X58027973Y-121153680D01*
X58064250Y-121132215D01*
X58117813Y-121122212D01*
X58174831Y-121126765D01*
X58223992Y-121146299D01*
X58250502Y-121166245D01*
X58272446Y-121191306D01*
X58288589Y-121224170D01*
X58299960Y-121268994D01*
X58307589Y-121329938D01*
X58312506Y-121411160D01*
X58315742Y-121516819D01*
X58321568Y-121770676D01*
X58518604Y-121770676D01*
X58518604Y-121758243D01*
X58636988Y-121758243D01*
X58648922Y-121765753D01*
X58680322Y-121769596D01*
X58735727Y-121770676D01*
X58841496Y-121770676D01*
X58969111Y-121599055D01*
X58991243Y-121569517D01*
X59034334Y-121513378D01*
X59070324Y-121468307D01*
X59095963Y-121438321D01*
X59108002Y-121427433D01*
X59108119Y-121427442D01*
X59112457Y-121441469D01*
X59116005Y-121478431D01*
X59118400Y-121532802D01*
X59119280Y-121599055D01*
X59119280Y-121770676D01*
X59319505Y-121770676D01*
X59548334Y-121770676D01*
X59748559Y-121770676D01*
X59748559Y-121642713D01*
X59810212Y-121704366D01*
X59829376Y-121722266D01*
X59877506Y-121757609D01*
X59919263Y-121775498D01*
X59947005Y-121780187D01*
X60039697Y-121782019D01*
X60083671Y-121770676D01*
X60476049Y-121770676D01*
X60678176Y-121770676D01*
X60678176Y-121473220D01*
X60678404Y-121375132D01*
X60679285Y-121301343D01*
X60681163Y-121247761D01*
X60684382Y-121210297D01*
X60689286Y-121184861D01*
X60696218Y-121167361D01*
X60705523Y-121153708D01*
X60710571Y-121148138D01*
X60750860Y-121125530D01*
X60802616Y-121119387D01*
X60855755Y-121129588D01*
X60900191Y-121156015D01*
X60911476Y-121167570D01*
X60930466Y-121194620D01*
X60944431Y-121229578D01*
X60954076Y-121276576D01*
X60960105Y-121339745D01*
X60963223Y-121423217D01*
X60964132Y-121531121D01*
X60964212Y-121770676D01*
X61162832Y-121770676D01*
X61167210Y-121470818D01*
X61168764Y-121377323D01*
X61170740Y-121298526D01*
X61173343Y-121240945D01*
X61176928Y-121200713D01*
X61181851Y-121173965D01*
X61188468Y-121156833D01*
X61197134Y-121145452D01*
X61201011Y-121141969D01*
X61239738Y-121125075D01*
X61290465Y-121120958D01*
X61341450Y-121129335D01*
X61380952Y-121149919D01*
X61398163Y-121166869D01*
X61417515Y-121193719D01*
X61431536Y-121227629D01*
X61441034Y-121272903D01*
X61446817Y-121333844D01*
X61449694Y-121414754D01*
X61450473Y-121519935D01*
X61450473Y-121770676D01*
X61650699Y-121770676D01*
X61861766Y-121770676D01*
X62062466Y-121770676D01*
X62067934Y-121488216D01*
X62068703Y-121452416D01*
X62072289Y-121342746D01*
X62077198Y-121259407D01*
X62083376Y-121203149D01*
X62090769Y-121174721D01*
X62104341Y-121157968D01*
X62145196Y-121132904D01*
X62196388Y-121119456D01*
X62246359Y-121121573D01*
X62264282Y-121126403D01*
X62306360Y-121143178D01*
X62338507Y-121167715D01*
X62361985Y-121203472D01*
X62378053Y-121253905D01*
X62387970Y-121322472D01*
X62392997Y-121412629D01*
X62394392Y-121527835D01*
X62394392Y-121770676D01*
X62594617Y-121770676D01*
X62594617Y-121517979D01*
X62767510Y-121517979D01*
X62770853Y-121585921D01*
X62787677Y-121641931D01*
X62788864Y-121644178D01*
X62830228Y-121696079D01*
X62890231Y-121740112D01*
X62959313Y-121769192D01*
X62967780Y-121770676D01*
X63033471Y-121782189D01*
X63145766Y-121779770D01*
X63264453Y-121753928D01*
X63289436Y-121743476D01*
X63330518Y-121718671D01*
X63369425Y-121688359D01*
X63398434Y-121658794D01*
X63409820Y-121636230D01*
X63405674Y-121625694D01*
X63385739Y-121598614D01*
X63354872Y-121565506D01*
X63299923Y-121511850D01*
X63254214Y-121554548D01*
X63250433Y-121557967D01*
X63198179Y-121591381D01*
X63135255Y-121613833D01*
X63072292Y-121622583D01*
X63019920Y-121614894D01*
X62989459Y-121595301D01*
X62963227Y-121561907D01*
X62954397Y-121536697D01*
X62959744Y-121515807D01*
X62984805Y-121490840D01*
X63002632Y-121478573D01*
X63050576Y-121456887D01*
X63106669Y-121441147D01*
X63185503Y-121421125D01*
X63203614Y-121413131D01*
X63524235Y-121413131D01*
X64053401Y-121413131D01*
X64053401Y-121446771D01*
X64047165Y-121477066D01*
X64023717Y-121523162D01*
X63989799Y-121566155D01*
X63952859Y-121595060D01*
X63934253Y-121602710D01*
X63878219Y-121612134D01*
X63817204Y-121608165D01*
X63759450Y-121592674D01*
X63713200Y-121567533D01*
X63686695Y-121534615D01*
X63681338Y-121524629D01*
X63665416Y-121513244D01*
X63643819Y-121520646D01*
X63611044Y-121540256D01*
X63576667Y-121565550D01*
X63549545Y-121589983D01*
X63538536Y-121607009D01*
X63539040Y-121611931D01*
X63551139Y-121636230D01*
X63554428Y-121642836D01*
X63586318Y-121679936D01*
X63627967Y-121716291D01*
X63672627Y-121744961D01*
X63699297Y-121755895D01*
X63764460Y-121771520D01*
X63840103Y-121780114D01*
X63914777Y-121780654D01*
X63977031Y-121772119D01*
X64063221Y-121738360D01*
X64142178Y-121681945D01*
X64202969Y-121608817D01*
X64240935Y-121523369D01*
X64240961Y-121523277D01*
X64249257Y-121478044D01*
X64254984Y-121417382D01*
X64256904Y-121354395D01*
X64254657Y-121303357D01*
X64246778Y-121262306D01*
X64426882Y-121262306D01*
X64436123Y-121354395D01*
X64440178Y-121394799D01*
X64473499Y-121506966D01*
X64526981Y-121599008D01*
X64600762Y-121671127D01*
X64694981Y-121723524D01*
X64809773Y-121756402D01*
X64825411Y-121758734D01*
X64877575Y-121763449D01*
X64947837Y-121767237D01*
X65028955Y-121769760D01*
X65113687Y-121770676D01*
X65340563Y-121770676D01*
X65941239Y-121770676D01*
X66141464Y-121770676D01*
X66141464Y-121476765D01*
X66141682Y-121377767D01*
X66142550Y-121303206D01*
X66144408Y-121248997D01*
X66147596Y-121211058D01*
X66152454Y-121185306D01*
X66159322Y-121167659D01*
X66168541Y-121154033D01*
X66198227Y-121131514D01*
X66247441Y-121119980D01*
X66301832Y-121126209D01*
X66351771Y-121150392D01*
X66363395Y-121159948D01*
X66385339Y-121185986D01*
X66401692Y-121221183D01*
X66413215Y-121269418D01*
X66420667Y-121334567D01*
X66424809Y-121420509D01*
X66426401Y-121531121D01*
X66427500Y-121770676D01*
X66627726Y-121770676D01*
X66627726Y-121476765D01*
X66627943Y-121377767D01*
X66628811Y-121303206D01*
X66630669Y-121248997D01*
X66633857Y-121211058D01*
X66638715Y-121185306D01*
X66645583Y-121167659D01*
X66654802Y-121154033D01*
X66684395Y-121131580D01*
X66733599Y-121120011D01*
X66788034Y-121126155D01*
X66838064Y-121150212D01*
X66856529Y-121165767D01*
X66876832Y-121191284D01*
X66891690Y-121225057D01*
X66901917Y-121271149D01*
X66908328Y-121333624D01*
X66911735Y-121416543D01*
X66912954Y-121523970D01*
X66913762Y-121770676D01*
X67113987Y-121770676D01*
X67113987Y-121733831D01*
X67251244Y-121733831D01*
X67263054Y-121757457D01*
X67292686Y-121767955D01*
X67345460Y-121770457D01*
X67370492Y-121769992D01*
X67433813Y-121760606D01*
X67477849Y-121737295D01*
X67508101Y-121697592D01*
X67531738Y-121651883D01*
X67565733Y-121695321D01*
X67571786Y-121702427D01*
X67611592Y-121736257D01*
X67657484Y-121761868D01*
X67682674Y-121770676D01*
X67686420Y-121771986D01*
X67770528Y-121785070D01*
X67848112Y-121774349D01*
X67855791Y-121770676D01*
X68186622Y-121770676D01*
X68386847Y-121770676D01*
X68386847Y-121485438D01*
X68386874Y-121423133D01*
X68387229Y-121341314D01*
X68388360Y-121281293D01*
X68390716Y-121238837D01*
X68394746Y-121209718D01*
X68400900Y-121189704D01*
X68409625Y-121174566D01*
X68421371Y-121160072D01*
X68444996Y-121136927D01*
X68475346Y-121123750D01*
X68520598Y-121121295D01*
X68535338Y-121122160D01*
X68584747Y-121131513D01*
X68623136Y-121147435D01*
X68644817Y-121163929D01*
X68665643Y-121188566D01*
X68680794Y-121221741D01*
X68691111Y-121267460D01*
X68697437Y-121329728D01*
X68700615Y-121412551D01*
X68701487Y-121519935D01*
X68701487Y-121770676D01*
X68901712Y-121770676D01*
X68901712Y-121714203D01*
X69050732Y-121714203D01*
X69056471Y-121738616D01*
X69081682Y-121754941D01*
X69130541Y-121770545D01*
X69131284Y-121770676D01*
X69204544Y-121783599D01*
X69290178Y-121779672D01*
X69367055Y-121756055D01*
X69428047Y-121714101D01*
X69450222Y-121687847D01*
X69452161Y-121684241D01*
X69674009Y-121684241D01*
X69674235Y-121701653D01*
X69679209Y-121738770D01*
X69695166Y-121759571D01*
X69727945Y-121768669D01*
X69783383Y-121770676D01*
X69793453Y-121770574D01*
X69853424Y-121762823D01*
X69896325Y-121739772D01*
X69930517Y-121697249D01*
X69956666Y-121654251D01*
X69986775Y-121696535D01*
X69992657Y-121703972D01*
X70030009Y-121736831D01*
X70074565Y-121761899D01*
X70145097Y-121780388D01*
X70224823Y-121780803D01*
X70299054Y-121761437D01*
X70361400Y-121724057D01*
X70405470Y-121670430D01*
X70424446Y-121615688D01*
X70431791Y-121547037D01*
X70425993Y-121479296D01*
X70406977Y-121424674D01*
X70383546Y-121395771D01*
X70328774Y-121356348D01*
X70254862Y-121323263D01*
X70167422Y-121299450D01*
X70159546Y-121297887D01*
X70082021Y-121280808D01*
X70029093Y-121265079D01*
X69997197Y-121249407D01*
X69982763Y-121232497D01*
X69974534Y-121195332D01*
X69980223Y-121153994D01*
X70002011Y-121127598D01*
X70005759Y-121125715D01*
X70056850Y-121114007D01*
X70120406Y-121116632D01*
X70186557Y-121131459D01*
X70245433Y-121156354D01*
X70287163Y-121189187D01*
X70301956Y-121204078D01*
X70323810Y-121210328D01*
X70347559Y-121193678D01*
X70377630Y-121152325D01*
X70378983Y-121150201D01*
X70398910Y-121114414D01*
X70403769Y-121087237D01*
X70390848Y-121063491D01*
X70357436Y-121037995D01*
X70320614Y-121016904D01*
X70519508Y-121016904D01*
X70522921Y-121057871D01*
X70530234Y-121104358D01*
X70531009Y-121107884D01*
X70537897Y-121129390D01*
X70551164Y-121140920D01*
X70578218Y-121145777D01*
X70626468Y-121147264D01*
X70668974Y-121149335D01*
X70714969Y-121158056D01*
X70749984Y-121176467D01*
X70775596Y-121207713D01*
X70793385Y-121254941D01*
X70804932Y-121321296D01*
X70811814Y-121409924D01*
X70815612Y-121523970D01*
X70816114Y-121547037D01*
X70820984Y-121770676D01*
X71018379Y-121770676D01*
X71018379Y-120997965D01*
X71205373Y-120997965D01*
X71206728Y-121058006D01*
X71210170Y-121111563D01*
X71217565Y-121156360D01*
X71231381Y-121191970D01*
X71254543Y-121228846D01*
X71295111Y-121277441D01*
X71347545Y-121317378D01*
X71412597Y-121344458D01*
X71495327Y-121360717D01*
X71600794Y-121368193D01*
X71762072Y-121373313D01*
X71762072Y-121770676D01*
X71976599Y-121770676D01*
X71976599Y-120695313D01*
X71714539Y-120700252D01*
X71683500Y-120700843D01*
X71598371Y-120702719D01*
X71535156Y-120705042D01*
X71488731Y-120708522D01*
X71453969Y-120713868D01*
X71425745Y-120721790D01*
X71398934Y-120733000D01*
X71368411Y-120748207D01*
X71345840Y-120760153D01*
X71302427Y-120788559D01*
X71271649Y-120821738D01*
X71243119Y-120869772D01*
X71241074Y-120873683D01*
X71220325Y-120917292D01*
X71209165Y-120954890D01*
X71205373Y-120997965D01*
X71018379Y-120997965D01*
X71018379Y-120969775D01*
X70818154Y-120969775D01*
X70818154Y-121090707D01*
X70774494Y-121037740D01*
X70773273Y-121036271D01*
X70714652Y-120986916D01*
X70644417Y-120961137D01*
X70569252Y-120961422D01*
X70535372Y-120970352D01*
X70521336Y-120985837D01*
X70519508Y-121016904D01*
X70320614Y-121016904D01*
X70300823Y-121005568D01*
X70260995Y-120987556D01*
X70171512Y-120964018D01*
X70070885Y-120954969D01*
X69968609Y-120961665D01*
X69958848Y-120963373D01*
X69892072Y-120987970D01*
X69835612Y-121029946D01*
X69798424Y-121082922D01*
X69794316Y-121098979D01*
X69790487Y-121127095D01*
X69788432Y-121142180D01*
X69782869Y-121204352D01*
X69778108Y-121279862D01*
X69774627Y-121363075D01*
X69766971Y-121606205D01*
X69720490Y-121610687D01*
X69698899Y-121613404D01*
X69681696Y-121621771D01*
X69675087Y-121642712D01*
X69674009Y-121684241D01*
X69452161Y-121684241D01*
X69471225Y-121648782D01*
X69486109Y-121598241D01*
X69495709Y-121531978D01*
X69500857Y-121445743D01*
X69502388Y-121335289D01*
X69502388Y-121127095D01*
X69616802Y-121127095D01*
X69616802Y-120969775D01*
X69503815Y-120969775D01*
X69499526Y-120887809D01*
X69495237Y-120805842D01*
X69303357Y-120774482D01*
X69299184Y-120868553D01*
X69295012Y-120962624D01*
X69073334Y-120970978D01*
X69073334Y-121127095D01*
X69302163Y-121127095D01*
X69302163Y-121335121D01*
X69302138Y-121376886D01*
X69301649Y-121446307D01*
X69299934Y-121494668D01*
X69296225Y-121527086D01*
X69289754Y-121548678D01*
X69279755Y-121564560D01*
X69265460Y-121579850D01*
X69259794Y-121585398D01*
X69236781Y-121603086D01*
X69211556Y-121609488D01*
X69175846Y-121605243D01*
X69121382Y-121590990D01*
X69111168Y-121588838D01*
X69095247Y-121593183D01*
X69081797Y-121613908D01*
X69066044Y-121656680D01*
X69060293Y-121674332D01*
X69050732Y-121714203D01*
X68901712Y-121714203D01*
X68901712Y-120640834D01*
X68701487Y-120640834D01*
X68701487Y-121075239D01*
X68662157Y-121038442D01*
X68655841Y-121032636D01*
X68593069Y-120987395D01*
X68524213Y-120962861D01*
X68439729Y-120955473D01*
X68385565Y-120958778D01*
X68315620Y-120978892D01*
X68261599Y-121019642D01*
X68218801Y-121083760D01*
X68212237Y-121097178D01*
X68203219Y-121119207D01*
X68196605Y-121143929D01*
X68192024Y-121175662D01*
X68189105Y-121218723D01*
X68187479Y-121277432D01*
X68186774Y-121356107D01*
X68186622Y-121459067D01*
X68186622Y-121770676D01*
X67855791Y-121770676D01*
X67915261Y-121742232D01*
X67968065Y-121691128D01*
X68002615Y-121623447D01*
X68015000Y-121541596D01*
X68009660Y-121486114D01*
X67987362Y-121428905D01*
X67945610Y-121381825D01*
X67882160Y-121343144D01*
X67794773Y-121311132D01*
X67681204Y-121284059D01*
X67630768Y-121270993D01*
X67577782Y-121245681D01*
X67549721Y-121214293D01*
X67547804Y-121178455D01*
X67573247Y-121139794D01*
X67597585Y-121123598D01*
X67649136Y-121112171D01*
X67711267Y-121116185D01*
X67776358Y-121134843D01*
X67836789Y-121167348D01*
X67863612Y-121185631D01*
X67895218Y-121205233D01*
X67911730Y-121212803D01*
X67918010Y-121208757D01*
X67937041Y-121186749D01*
X67961453Y-121152020D01*
X68000866Y-121091341D01*
X67954607Y-121051815D01*
X67935469Y-121036537D01*
X67849535Y-120989108D01*
X67747077Y-120963043D01*
X67626301Y-120957831D01*
X67586671Y-120959953D01*
X67520969Y-120968711D01*
X67472116Y-120986170D01*
X67432311Y-121015793D01*
X67393756Y-121061040D01*
X67390682Y-121065274D01*
X67380427Y-121082976D01*
X67372985Y-121105486D01*
X67367775Y-121137563D01*
X67364210Y-121183967D01*
X67361709Y-121249455D01*
X67359687Y-121338788D01*
X67358593Y-121383999D01*
X67355351Y-121464711D01*
X67350963Y-121529676D01*
X67345756Y-121574610D01*
X67340059Y-121595226D01*
X67325135Y-121605835D01*
X67292868Y-121613356D01*
X67287567Y-121613495D01*
X67269693Y-121619514D01*
X67259601Y-121639707D01*
X67253069Y-121681283D01*
X67251938Y-121691943D01*
X67251244Y-121733831D01*
X67113987Y-121733831D01*
X67113987Y-120969775D01*
X66913762Y-120969775D01*
X66913762Y-121075499D01*
X66867281Y-121031504D01*
X66837417Y-121004804D01*
X66791361Y-120974136D01*
X66742365Y-120959323D01*
X66678263Y-120955473D01*
X66672849Y-120955502D01*
X66586223Y-120965394D01*
X66520008Y-120992618D01*
X66475847Y-121036514D01*
X66474251Y-121039057D01*
X66455597Y-121068213D01*
X66444736Y-121084190D01*
X66442204Y-121084587D01*
X66425787Y-121072797D01*
X66401077Y-121046744D01*
X66388855Y-121033093D01*
X66332789Y-120988021D01*
X66266009Y-120963136D01*
X66181505Y-120955527D01*
X66127685Y-120958625D01*
X66058307Y-120977406D01*
X66006799Y-121015071D01*
X65969325Y-121073759D01*
X65968244Y-121076165D01*
X65959407Y-121098973D01*
X65952761Y-121125064D01*
X65947995Y-121158658D01*
X65944801Y-121203975D01*
X65942869Y-121265235D01*
X65941889Y-121346657D01*
X65941553Y-121452461D01*
X65941239Y-121770676D01*
X65340563Y-121770676D01*
X65340563Y-120694599D01*
X65072405Y-120701546D01*
X64957721Y-120705444D01*
X64866568Y-120711221D01*
X64794193Y-120719941D01*
X64735687Y-120732673D01*
X64686139Y-120750484D01*
X64640640Y-120774445D01*
X64594279Y-120805624D01*
X64562404Y-120831708D01*
X64519596Y-120881723D01*
X64480427Y-120950274D01*
X64462305Y-120988629D01*
X64446331Y-121030325D01*
X64436538Y-121072508D01*
X64430903Y-121124552D01*
X64427401Y-121195827D01*
X64426882Y-121262306D01*
X64246778Y-121262306D01*
X64234977Y-121200820D01*
X64194116Y-121115077D01*
X64130915Y-121043263D01*
X64085950Y-121008604D01*
X64023208Y-120977370D01*
X63949482Y-120960518D01*
X63856725Y-120955473D01*
X63769560Y-120962728D01*
X63683423Y-120990596D01*
X63615297Y-121039934D01*
X63564056Y-121111342D01*
X63546953Y-121146634D01*
X63532693Y-121188832D01*
X63525939Y-121236182D01*
X63524235Y-121300350D01*
X63524235Y-121413131D01*
X63203614Y-121413131D01*
X63271815Y-121383027D01*
X63332899Y-121332326D01*
X63369214Y-121268607D01*
X63381217Y-121191453D01*
X63380750Y-121174356D01*
X63364195Y-121097072D01*
X63324501Y-121035965D01*
X63262437Y-120991626D01*
X63178771Y-120964645D01*
X63074273Y-120955613D01*
X63046259Y-120955912D01*
X62983959Y-120960119D01*
X62933827Y-120971023D01*
X62883990Y-120990820D01*
X62854540Y-121005294D01*
X62814941Y-121031441D01*
X62800970Y-121057271D01*
X62811267Y-121087454D01*
X62844474Y-121126660D01*
X62897940Y-121181414D01*
X62948500Y-121147104D01*
X62993008Y-121126212D01*
X63055123Y-121113397D01*
X63117409Y-121113496D01*
X63167630Y-121127598D01*
X63173398Y-121131312D01*
X63191951Y-121160346D01*
X63192710Y-121197788D01*
X63174824Y-121231332D01*
X63168797Y-121235701D01*
X63137253Y-121249840D01*
X63088556Y-121266206D01*
X63030456Y-121282078D01*
X63008078Y-121287714D01*
X62922487Y-121313961D01*
X62860314Y-121342998D01*
X62817306Y-121377237D01*
X62789214Y-121419093D01*
X62777558Y-121451350D01*
X62767510Y-121517979D01*
X62594617Y-121517979D01*
X62594617Y-120640834D01*
X62394392Y-120640834D01*
X62394392Y-120855361D01*
X62394377Y-120867352D01*
X62393225Y-120952294D01*
X62390351Y-121015994D01*
X62385919Y-121056007D01*
X62380090Y-121069888D01*
X62376479Y-121069413D01*
X62365789Y-121055271D01*
X62359982Y-121045660D01*
X62335590Y-121023931D01*
X62298631Y-120998064D01*
X62285107Y-120989700D01*
X62242104Y-120968179D01*
X62198627Y-120958023D01*
X62140741Y-120955473D01*
X62069563Y-120960283D01*
X61999220Y-120981082D01*
X61946239Y-121020317D01*
X61906587Y-121080136D01*
X61901467Y-121090956D01*
X61891648Y-121114957D01*
X61884242Y-121141187D01*
X61878797Y-121174041D01*
X61874862Y-121217915D01*
X61871984Y-121277205D01*
X61869713Y-121356305D01*
X61867595Y-121459612D01*
X61861766Y-121770676D01*
X61650699Y-121770676D01*
X61650699Y-120969775D01*
X61464775Y-120969775D01*
X61464775Y-121019832D01*
X61463613Y-121045449D01*
X61455571Y-121066188D01*
X61437463Y-121061756D01*
X61406485Y-121032774D01*
X61353014Y-120987742D01*
X61291531Y-120962952D01*
X61213790Y-120955473D01*
X61201842Y-120955636D01*
X61119015Y-120967443D01*
X61054377Y-120997007D01*
X61010971Y-121043015D01*
X61008983Y-121046334D01*
X60990415Y-121073178D01*
X60978120Y-121084190D01*
X60976857Y-121083887D01*
X60961657Y-121070526D01*
X60939494Y-121043482D01*
X60889671Y-120996709D01*
X60817102Y-120965860D01*
X60725848Y-120955473D01*
X60714878Y-120955607D01*
X60628716Y-120968409D01*
X60561777Y-121002218D01*
X60513705Y-121057203D01*
X60508924Y-121065741D01*
X60500754Y-121084498D01*
X60494530Y-121108152D01*
X60489908Y-121140654D01*
X60486545Y-121185954D01*
X60484098Y-121248004D01*
X60483342Y-121281384D01*
X60482223Y-121330756D01*
X60480575Y-121438159D01*
X60476049Y-121770676D01*
X60083671Y-121770676D01*
X60119903Y-121761330D01*
X60184720Y-121719225D01*
X60231245Y-121656807D01*
X60237797Y-121643389D01*
X60246818Y-121621323D01*
X60253435Y-121596574D01*
X60258018Y-121564822D01*
X60260939Y-121521747D01*
X60262566Y-121463029D01*
X60263271Y-121384348D01*
X60263424Y-121281384D01*
X60263424Y-120969775D01*
X60063199Y-120969775D01*
X60063199Y-121256461D01*
X60063167Y-121328750D01*
X60062793Y-121408163D01*
X60061628Y-121466079D01*
X60059218Y-121506644D01*
X60055112Y-121533999D01*
X60048857Y-121552290D01*
X60040002Y-121565660D01*
X60028094Y-121578252D01*
X59992373Y-121603153D01*
X59937519Y-121615427D01*
X59880032Y-121605935D01*
X59826928Y-121576141D01*
X59785228Y-121527513D01*
X59781819Y-121521491D01*
X59771909Y-121499768D01*
X59764608Y-121473217D01*
X59759374Y-121437083D01*
X59755667Y-121386611D01*
X59752946Y-121317046D01*
X59750671Y-121223632D01*
X59745369Y-120969775D01*
X59548334Y-120969775D01*
X59548334Y-121770676D01*
X59319505Y-121770676D01*
X59319505Y-120640834D01*
X59119280Y-120640834D01*
X59119280Y-120955473D01*
X59119183Y-120997621D01*
X59118322Y-121084833D01*
X59116685Y-121159770D01*
X59114411Y-121218350D01*
X59111640Y-121256492D01*
X59108512Y-121270113D01*
X59107311Y-121269648D01*
X59092117Y-121254746D01*
X59064105Y-121221996D01*
X59026807Y-121175645D01*
X58983752Y-121119944D01*
X58869760Y-120969775D01*
X58764847Y-120969775D01*
X58734782Y-120970034D01*
X58691865Y-120972479D01*
X58671737Y-120978108D01*
X58670529Y-120987652D01*
X58672307Y-120990389D01*
X58688810Y-121013174D01*
X58718369Y-121052541D01*
X58757439Y-121103796D01*
X58802473Y-121162247D01*
X58816058Y-121179890D01*
X58858381Y-121236224D01*
X58892594Y-121283838D01*
X58915479Y-121318164D01*
X58923822Y-121334633D01*
X58919869Y-121343737D01*
X58901608Y-121373463D01*
X58871054Y-121419032D01*
X58831039Y-121476252D01*
X58784394Y-121540934D01*
X58751931Y-121585571D01*
X58708362Y-121646351D01*
X58672750Y-121697080D01*
X58648111Y-121733442D01*
X58637462Y-121751121D01*
X58636988Y-121758243D01*
X58518604Y-121758243D01*
X58518604Y-120640834D01*
X58318379Y-120640834D01*
X58318379Y-120855361D01*
X58318233Y-120893800D01*
X58317146Y-120963423D01*
X58315171Y-121019274D01*
X58312515Y-121056411D01*
X58309386Y-121069888D01*
X58302370Y-121066502D01*
X58278509Y-121048664D01*
X58245881Y-121020640D01*
X58218095Y-120998263D01*
X58162002Y-120969529D01*
X58095008Y-120956949D01*
X58009634Y-120958559D01*
X58005625Y-120958910D01*
X57929749Y-120975547D01*
X57871494Y-121011837D01*
X57824967Y-121071383D01*
X57821127Y-121078171D01*
X57812654Y-121096914D01*
X57806202Y-121120212D01*
X57801416Y-121152073D01*
X57797940Y-121196506D01*
X57795419Y-121257517D01*
X57793497Y-121339116D01*
X57791821Y-121445310D01*
X57787279Y-121770676D01*
X57331554Y-121770676D01*
X57331554Y-120011555D01*
X72334144Y-120011555D01*
X72334144Y-122342748D01*
X57331554Y-122342748D01*
G37*
G36*
X65126036Y-121602952D02*
G01*
X64993563Y-121596023D01*
X64934776Y-121591460D01*
X64835101Y-121573359D01*
X64758681Y-121541367D01*
X64703227Y-121493094D01*
X64666450Y-121426153D01*
X64646063Y-121338153D01*
X64639775Y-121226707D01*
X64639801Y-121214154D01*
X64641511Y-121152204D01*
X64647332Y-121106975D01*
X64659264Y-121068319D01*
X64679306Y-121026087D01*
X64681505Y-121021921D01*
X64718043Y-120965805D01*
X64761479Y-120926371D01*
X64817023Y-120901199D01*
X64889883Y-120887870D01*
X64985268Y-120883964D01*
X65126036Y-120883964D01*
X65126036Y-121602952D01*
G37*
G36*
X71762072Y-121198604D02*
G01*
X71633582Y-121198604D01*
X71581990Y-121198249D01*
X71536968Y-121195847D01*
X71506791Y-121189620D01*
X71483803Y-121177803D01*
X71460352Y-121158629D01*
X71454694Y-121153491D01*
X71429557Y-121125028D01*
X71417871Y-121093343D01*
X71414514Y-121045836D01*
X71414477Y-121040329D01*
X71424424Y-120968569D01*
X71453095Y-120915389D01*
X71499168Y-120883326D01*
X71502448Y-120882220D01*
X71537435Y-120875852D01*
X71589475Y-120871362D01*
X71648589Y-120869663D01*
X71762072Y-120869663D01*
X71762072Y-121198604D01*
G37*
G36*
X69985074Y-121377717D02*
G01*
X70004511Y-121384362D01*
X70045873Y-121396168D01*
X70095913Y-121408929D01*
X70102251Y-121410477D01*
X70165693Y-121430090D01*
X70205418Y-121453512D01*
X70225942Y-121484683D01*
X70231780Y-121527545D01*
X70229140Y-121555428D01*
X70206351Y-121601997D01*
X70160271Y-121631966D01*
X70155370Y-121633541D01*
X70111610Y-121634676D01*
X70062225Y-121620627D01*
X70020806Y-121594997D01*
X69989618Y-121550892D01*
X69968086Y-121487604D01*
X69960125Y-121415176D01*
X69961092Y-121390719D01*
X69968029Y-121375038D01*
X69985074Y-121377717D01*
G37*
D15*
%TO.C,U2*%
X58725000Y-105600000D02*
X54325000Y-105600000D01*
X58725000Y-100600000D02*
X54325000Y-100600000D01*
D11*
X60965000Y-100740000D02*
G75*
G03*
X60965000Y-100740000I-100000J0D01*
G01*
%TO.C,G\u002A\u002A\u002A*%
G36*
X72935232Y-81547771D02*
G01*
X73062465Y-81612560D01*
X73102908Y-81737554D01*
X73093570Y-81808386D01*
X73033178Y-81869717D01*
X72889821Y-81906372D01*
X72745652Y-81932035D01*
X72609777Y-81965932D01*
X72555196Y-82001262D01*
X72562839Y-82046176D01*
X72573866Y-82058825D01*
X72670269Y-82094601D01*
X72808164Y-82101059D01*
X72936733Y-82079788D01*
X73005159Y-82032372D01*
X73020414Y-82005619D01*
X73073737Y-82001509D01*
X73090317Y-82031606D01*
X73083300Y-82129362D01*
X73030757Y-82179019D01*
X72898728Y-82214038D01*
X72733524Y-82216942D01*
X72577723Y-82187891D01*
X72473899Y-82127049D01*
X72434343Y-82057143D01*
X72451028Y-81951119D01*
X72561550Y-81871107D01*
X72753550Y-81830223D01*
X72830771Y-81820726D01*
X72959718Y-81776558D01*
X72998770Y-81719386D01*
X72943725Y-81669907D01*
X72790380Y-81648814D01*
X72764280Y-81649305D01*
X72641451Y-81668079D01*
X72591499Y-81705638D01*
X72589848Y-81719220D01*
X72534675Y-81762461D01*
X72518221Y-81760556D01*
X72478894Y-81710962D01*
X72498226Y-81630838D01*
X72567735Y-81569659D01*
X72644068Y-81549762D01*
X72790380Y-81535168D01*
X72935232Y-81547771D01*
G37*
G36*
X59880257Y-81543010D02*
G01*
X59858327Y-81606652D01*
X59760587Y-81722549D01*
X59627322Y-81900909D01*
X59578971Y-82063488D01*
X59563655Y-82168089D01*
X59522147Y-82217047D01*
X59482787Y-82172224D01*
X59465324Y-82057208D01*
X59430847Y-81915269D01*
X59295447Y-81734617D01*
X59254411Y-81693577D01*
X59172921Y-81595943D01*
X59153982Y-81543453D01*
X59167494Y-81541827D01*
X59244217Y-81585620D01*
X59356930Y-81681369D01*
X59531467Y-81847696D01*
X59656794Y-81691432D01*
X59668988Y-81676673D01*
X59775250Y-81576261D01*
X59862163Y-81535168D01*
X59880257Y-81543010D01*
G37*
G36*
X70008831Y-81586671D02*
G01*
X70113899Y-81666348D01*
X70135230Y-81737803D01*
X70087015Y-81836002D01*
X69957944Y-81906147D01*
X69767886Y-81932931D01*
X69625667Y-81953459D01*
X69579866Y-82018166D01*
X69583991Y-82042670D01*
X69649115Y-82089326D01*
X69807159Y-82103401D01*
X69858109Y-82101952D01*
X69984041Y-82082160D01*
X70034452Y-82046577D01*
X70036103Y-82032995D01*
X70091275Y-81989754D01*
X70098598Y-81990193D01*
X70143923Y-82035955D01*
X70135347Y-82117716D01*
X70077069Y-82179414D01*
X70069202Y-82182218D01*
X69957287Y-82202029D01*
X69799911Y-82212561D01*
X69737291Y-82211100D01*
X69567752Y-82165682D01*
X69484622Y-82077456D01*
X69489755Y-81972758D01*
X69585005Y-81877922D01*
X69772225Y-81819284D01*
X69805600Y-81814051D01*
X69934996Y-81777922D01*
X69993716Y-81734049D01*
X69993973Y-81721389D01*
X69939940Y-81677824D01*
X69827700Y-81659519D01*
X69700971Y-81669209D01*
X69603468Y-81709629D01*
X69512743Y-81752255D01*
X69478444Y-81713170D01*
X69524237Y-81618963D01*
X69543370Y-81600326D01*
X69674396Y-81549708D01*
X69845940Y-81546474D01*
X70008831Y-81586671D01*
G37*
G36*
X58201773Y-81540233D02*
G01*
X58334305Y-81560873D01*
X58385682Y-81591991D01*
X58364372Y-81625018D01*
X58272036Y-81648814D01*
X58245749Y-81650030D01*
X58189769Y-81677525D01*
X58164372Y-81762517D01*
X58158389Y-81932931D01*
X58154554Y-82035274D01*
X58133980Y-82165942D01*
X58101566Y-82217047D01*
X58081097Y-82197874D01*
X58054964Y-82095003D01*
X58044743Y-81932931D01*
X58043397Y-81818908D01*
X58029055Y-81705036D01*
X57986994Y-81658026D01*
X57902684Y-81648814D01*
X57809254Y-81634707D01*
X57760626Y-81591991D01*
X57788485Y-81568606D01*
X57902003Y-81544509D01*
X58073154Y-81535168D01*
X58201773Y-81540233D01*
G37*
G36*
X61188888Y-81550441D02*
G01*
X61216604Y-81647714D01*
X61228014Y-81805078D01*
X61229183Y-82074989D01*
X61473678Y-81795519D01*
X61588119Y-81674480D01*
X61710980Y-81574821D01*
X61785037Y-81557374D01*
X61821100Y-81631715D01*
X61844293Y-81775447D01*
X61852220Y-81944107D01*
X61842816Y-82093433D01*
X61814019Y-82179165D01*
X61741949Y-82216557D01*
X61695984Y-82150480D01*
X61679736Y-81975548D01*
X61678040Y-81734049D01*
X61466649Y-81976428D01*
X61351064Y-82102170D01*
X61232671Y-82198240D01*
X61159930Y-82194394D01*
X61123290Y-82087920D01*
X61113199Y-81876108D01*
X61119235Y-81722136D01*
X61139755Y-81586926D01*
X61170022Y-81535168D01*
X61188888Y-81550441D01*
G37*
G36*
X67585016Y-82030079D02*
G01*
X67564495Y-82165289D01*
X67534228Y-82217047D01*
X67496856Y-82181777D01*
X67477405Y-82074989D01*
X67454597Y-81968801D01*
X67368406Y-81932931D01*
X67272413Y-81939722D01*
X67129500Y-81997583D01*
X67079642Y-82109480D01*
X67070190Y-82169712D01*
X67024893Y-82217047D01*
X67014506Y-82213123D01*
X66986809Y-82139936D01*
X66975863Y-82003786D01*
X66980941Y-81843537D01*
X66992299Y-81762461D01*
X67108054Y-81762461D01*
X67151341Y-81827479D01*
X67292729Y-81865502D01*
X67384395Y-81870213D01*
X67459575Y-81844585D01*
X67477405Y-81762461D01*
X67471098Y-81703085D01*
X67420856Y-81658734D01*
X67292729Y-81659420D01*
X67160900Y-81692110D01*
X67108054Y-81762461D01*
X66992299Y-81762461D01*
X67001322Y-81698053D01*
X67036279Y-81606197D01*
X67058432Y-81588490D01*
X67176730Y-81550365D01*
X67342304Y-81535168D01*
X67591051Y-81535168D01*
X67591051Y-81876108D01*
X67585016Y-82030079D01*
G37*
G36*
X73140790Y-78485653D02*
G01*
X73149680Y-78502744D01*
X73102908Y-78523535D01*
X73072826Y-78519434D01*
X73065026Y-78485653D01*
X73073354Y-78478852D01*
X73140790Y-78485653D01*
G37*
G36*
X65994914Y-82007327D02*
G01*
X65972804Y-82149401D01*
X65940353Y-82219484D01*
X65905478Y-82203955D01*
X65876100Y-82089195D01*
X65850514Y-82012553D01*
X65774107Y-81965602D01*
X65616443Y-81943869D01*
X65562119Y-81939570D01*
X65437156Y-81917773D01*
X65385253Y-81867430D01*
X65374944Y-81765273D01*
X65375204Y-81762461D01*
X65488590Y-81762461D01*
X65495091Y-81813766D01*
X65550399Y-81863395D01*
X65687472Y-81876108D01*
X65777256Y-81872393D01*
X65864106Y-81840789D01*
X65886353Y-81762461D01*
X65879852Y-81711156D01*
X65824545Y-81661527D01*
X65687472Y-81648814D01*
X65597688Y-81652529D01*
X65510838Y-81684133D01*
X65488590Y-81762461D01*
X65375204Y-81762461D01*
X65382433Y-81684173D01*
X65436861Y-81593520D01*
X65561617Y-81547788D01*
X65777354Y-81535168D01*
X66000000Y-81535168D01*
X66000000Y-81876108D01*
X65994914Y-82007327D01*
G37*
G36*
X69225487Y-81540233D02*
G01*
X69358019Y-81560873D01*
X69409396Y-81591991D01*
X69388085Y-81625018D01*
X69295749Y-81648814D01*
X69269463Y-81650030D01*
X69213483Y-81677525D01*
X69188086Y-81762517D01*
X69182103Y-81932931D01*
X69178268Y-82035274D01*
X69157694Y-82165942D01*
X69125279Y-82217047D01*
X69104811Y-82197874D01*
X69078677Y-82095003D01*
X69068456Y-81932931D01*
X69067111Y-81818908D01*
X69052768Y-81705036D01*
X69010708Y-81658026D01*
X68926398Y-81648814D01*
X68832968Y-81634707D01*
X68784340Y-81591991D01*
X68812199Y-81568606D01*
X68925717Y-81544509D01*
X69096868Y-81535168D01*
X69225487Y-81540233D01*
G37*
G36*
X63586676Y-81567315D02*
G01*
X63724043Y-81637569D01*
X63771032Y-81732270D01*
X63731039Y-81828406D01*
X63607457Y-81902964D01*
X63403681Y-81932931D01*
X63261462Y-81953459D01*
X63215660Y-82018166D01*
X63250043Y-82065374D01*
X63357254Y-82098575D01*
X63494945Y-82105025D01*
X63619210Y-82083400D01*
X63686143Y-82032372D01*
X63701560Y-82005667D01*
X63755799Y-82002587D01*
X63768103Y-82042189D01*
X63728209Y-82130439D01*
X63684296Y-82164234D01*
X63539066Y-82207740D01*
X63358385Y-82215455D01*
X63191896Y-82182556D01*
X63135792Y-82131328D01*
X63102013Y-82013169D01*
X63112009Y-81940939D01*
X63165998Y-81878241D01*
X63287581Y-81837502D01*
X63499776Y-81806781D01*
X63593042Y-81782286D01*
X63641834Y-81734049D01*
X63628361Y-81707104D01*
X63540988Y-81670855D01*
X63411470Y-81658487D01*
X63285934Y-81672148D01*
X63210502Y-81713983D01*
X63183670Y-81744500D01*
X63125417Y-81747983D01*
X63107117Y-81674953D01*
X63174718Y-81606092D01*
X63301554Y-81557895D01*
X63460664Y-81546561D01*
X63586676Y-81567315D01*
G37*
G36*
X68323718Y-82030079D02*
G01*
X68303198Y-82165289D01*
X68272930Y-82217047D01*
X68235559Y-82181777D01*
X68216107Y-82074989D01*
X68216026Y-82062618D01*
X68200343Y-81977258D01*
X68135255Y-81940685D01*
X67988814Y-81932931D01*
X67945046Y-81932708D01*
X67821429Y-81920905D01*
X67771084Y-81874014D01*
X67761521Y-81768540D01*
X67761890Y-81762461D01*
X67875168Y-81762461D01*
X67876926Y-81791798D01*
X67920859Y-81858248D01*
X68045637Y-81876108D01*
X68089642Y-81874935D01*
X68189318Y-81845647D01*
X68216107Y-81762461D01*
X68214349Y-81733124D01*
X68170416Y-81666674D01*
X68045637Y-81648814D01*
X68001633Y-81649987D01*
X67901957Y-81679275D01*
X67875168Y-81762461D01*
X67761890Y-81762461D01*
X67765184Y-81708244D01*
X67811892Y-81603616D01*
X67928546Y-81550161D01*
X68135520Y-81535168D01*
X68329754Y-81535168D01*
X68329754Y-81876108D01*
X68323718Y-82030079D01*
G37*
G36*
X62900382Y-81571382D02*
G01*
X62922917Y-81694504D01*
X62931543Y-81876108D01*
X62925508Y-82030079D01*
X62904988Y-82165289D01*
X62874720Y-82217047D01*
X62849058Y-82180833D01*
X62826523Y-82057712D01*
X62817897Y-81876108D01*
X62823933Y-81722136D01*
X62844453Y-81586926D01*
X62874720Y-81535168D01*
X62900382Y-81571382D01*
G37*
G36*
X72337463Y-82099562D02*
G01*
X72364206Y-82189894D01*
X72341809Y-82220396D01*
X72281651Y-82198504D01*
X72230010Y-82131812D01*
X72217396Y-82110064D01*
X72119492Y-82056895D01*
X71976813Y-82045980D01*
X71836636Y-82075978D01*
X71746235Y-82145545D01*
X71704845Y-82195634D01*
X71647118Y-82200780D01*
X71642560Y-82140553D01*
X71682226Y-82012919D01*
X71704132Y-81964016D01*
X71852796Y-81964016D01*
X71887944Y-81980918D01*
X71994854Y-81989754D01*
X72022361Y-81989398D01*
X72112978Y-81970700D01*
X72123226Y-81906581D01*
X72060204Y-81773553D01*
X71987523Y-81642586D01*
X71920159Y-81790432D01*
X71873869Y-81899110D01*
X71852796Y-81964016D01*
X71704132Y-81964016D01*
X71753101Y-81854699D01*
X71838127Y-81699758D01*
X71920246Y-81581960D01*
X71982400Y-81535168D01*
X72014252Y-81557362D01*
X72089257Y-81654479D01*
X72180872Y-81799072D01*
X72241014Y-81906581D01*
X72269980Y-81958361D01*
X72337463Y-82099562D01*
G37*
G36*
X72136913Y-79143943D02*
G01*
X72145575Y-79276917D01*
X72170824Y-79398138D01*
X72173231Y-79428775D01*
X72140509Y-79454691D01*
X72055411Y-79473091D01*
X71902618Y-79485879D01*
X71666814Y-79494957D01*
X71332681Y-79502226D01*
X70460626Y-79517942D01*
X70424732Y-79375884D01*
X70410517Y-79320402D01*
X70379090Y-79187940D01*
X70374222Y-79094902D01*
X70410424Y-79034348D01*
X70502207Y-78999336D01*
X70664082Y-78982922D01*
X70910560Y-78978164D01*
X71256152Y-78978121D01*
X72136913Y-78978121D01*
X72136913Y-79143943D01*
G37*
G36*
X67269185Y-80077952D02*
G01*
X67187500Y-80173674D01*
X67057882Y-80251912D01*
X66948311Y-80290217D01*
X66771503Y-80318927D01*
X66518388Y-80335072D01*
X66170470Y-80340497D01*
X65764289Y-80330943D01*
X65439796Y-80291789D01*
X65197836Y-80211326D01*
X65023347Y-80077881D01*
X64901266Y-79879782D01*
X64816530Y-79605356D01*
X64754076Y-79242932D01*
X64726093Y-79029829D01*
X64720469Y-78971723D01*
X65227384Y-78971723D01*
X65235121Y-79003162D01*
X65262614Y-79142258D01*
X65292157Y-79319061D01*
X65303382Y-79384935D01*
X65342856Y-79557776D01*
X65383542Y-79674206D01*
X65386294Y-79679238D01*
X65424539Y-79720444D01*
X65496665Y-79747781D01*
X65622605Y-79763956D01*
X65822288Y-79771675D01*
X66115646Y-79773647D01*
X66120967Y-79773646D01*
X66383093Y-79772495D01*
X66597543Y-79769437D01*
X66742328Y-79764933D01*
X66795459Y-79759441D01*
X66795295Y-79752575D01*
X66780066Y-79636960D01*
X66745801Y-79462146D01*
X66700609Y-79262290D01*
X66652598Y-79071553D01*
X66609876Y-78924091D01*
X66580551Y-78854064D01*
X66547917Y-78840147D01*
X66408128Y-78825602D01*
X66175638Y-78825246D01*
X65863429Y-78839344D01*
X65848439Y-78840270D01*
X65568066Y-78859679D01*
X65383135Y-78878915D01*
X65276286Y-78901592D01*
X65230156Y-78931323D01*
X65227384Y-78971723D01*
X64720469Y-78971723D01*
X64707846Y-78841289D01*
X64709260Y-78716498D01*
X64731119Y-78628471D01*
X64774205Y-78550220D01*
X64838990Y-78467235D01*
X64935055Y-78394356D01*
X65069776Y-78345063D01*
X65261853Y-78315110D01*
X65529986Y-78300251D01*
X65892874Y-78296242D01*
X65985759Y-78296460D01*
X66359798Y-78306529D01*
X66640986Y-78341076D01*
X66846201Y-78413064D01*
X66992319Y-78535456D01*
X67096218Y-78721215D01*
X67174774Y-78983305D01*
X67244866Y-79334688D01*
X67269300Y-79476628D01*
X67305819Y-79750353D01*
X67305884Y-79759441D01*
X67307203Y-79943819D01*
X67269185Y-80077952D01*
G37*
G36*
X57703803Y-82217047D02*
G01*
X57419687Y-82217047D01*
X57317344Y-82213212D01*
X57186676Y-82192638D01*
X57135570Y-82160224D01*
X57141366Y-82147486D01*
X57220532Y-82116003D01*
X57362863Y-82103401D01*
X57428208Y-82101854D01*
X57552624Y-82077432D01*
X57590156Y-82018166D01*
X57586031Y-81993661D01*
X57520907Y-81947005D01*
X57362863Y-81932931D01*
X57311914Y-81931482D01*
X57185981Y-81911690D01*
X57135570Y-81876108D01*
X57141366Y-81863370D01*
X57220532Y-81831887D01*
X57362863Y-81819284D01*
X57428208Y-81817737D01*
X57552624Y-81793316D01*
X57590156Y-81734049D01*
X57578907Y-81696767D01*
X57500850Y-81659692D01*
X57331098Y-81648814D01*
X57257722Y-81646997D01*
X57134113Y-81628099D01*
X57107159Y-81591991D01*
X57135561Y-81572815D01*
X57253577Y-81545782D01*
X57423040Y-81535168D01*
X57703803Y-81535168D01*
X57703803Y-82217047D01*
G37*
G36*
X60404574Y-81567315D02*
G01*
X60541940Y-81637569D01*
X60588930Y-81732270D01*
X60548936Y-81828406D01*
X60425354Y-81902964D01*
X60221578Y-81932931D01*
X60079359Y-81953459D01*
X60033557Y-82018166D01*
X60038950Y-82039942D01*
X60112645Y-82088043D01*
X60238929Y-82104623D01*
X60374445Y-82087916D01*
X60475831Y-82036160D01*
X60487980Y-82024796D01*
X60560904Y-81995712D01*
X60586897Y-82042360D01*
X60543835Y-82133176D01*
X60528808Y-82148951D01*
X60410915Y-82200368D01*
X60209004Y-82205578D01*
X60144405Y-82200844D01*
X60013599Y-82178976D01*
X59953142Y-82130141D01*
X59930533Y-82034353D01*
X59929658Y-82026389D01*
X59933861Y-81933040D01*
X59985166Y-81874002D01*
X60105720Y-81836256D01*
X60317673Y-81806781D01*
X60410939Y-81782286D01*
X60459731Y-81734049D01*
X60446258Y-81707104D01*
X60358885Y-81670855D01*
X60229368Y-81658487D01*
X60103831Y-81672148D01*
X60028399Y-81713983D01*
X60001567Y-81744500D01*
X59943314Y-81747983D01*
X59925014Y-81674953D01*
X59992615Y-81606092D01*
X60119451Y-81557895D01*
X60278561Y-81546561D01*
X60404574Y-81567315D01*
G37*
G36*
X74182550Y-82217047D02*
G01*
X73898434Y-82217047D01*
X73796091Y-82213212D01*
X73665423Y-82192638D01*
X73614318Y-82160224D01*
X73620113Y-82147486D01*
X73699279Y-82116003D01*
X73841611Y-82103401D01*
X73906956Y-82101854D01*
X74031371Y-82077432D01*
X74068904Y-82018166D01*
X74064778Y-81993661D01*
X73999654Y-81947005D01*
X73841611Y-81932931D01*
X73790661Y-81931482D01*
X73664728Y-81911690D01*
X73614318Y-81876108D01*
X73620113Y-81863370D01*
X73699279Y-81831887D01*
X73841611Y-81819284D01*
X73906956Y-81817737D01*
X74031371Y-81793316D01*
X74068904Y-81734049D01*
X74064778Y-81709545D01*
X73999654Y-81662889D01*
X73841611Y-81648814D01*
X73790661Y-81647365D01*
X73664728Y-81627574D01*
X73614318Y-81591991D01*
X73633491Y-81571523D01*
X73736362Y-81545389D01*
X73898434Y-81535168D01*
X74182550Y-81535168D01*
X74182550Y-82217047D01*
G37*
G36*
X70829977Y-82217047D02*
G01*
X70545861Y-82217047D01*
X70443518Y-82213212D01*
X70312850Y-82192638D01*
X70261745Y-82160224D01*
X70267541Y-82147486D01*
X70346706Y-82116003D01*
X70489038Y-82103401D01*
X70554383Y-82101854D01*
X70678799Y-82077432D01*
X70716331Y-82018166D01*
X70712206Y-81993661D01*
X70647082Y-81947005D01*
X70489038Y-81932931D01*
X70438088Y-81931482D01*
X70312156Y-81911690D01*
X70261745Y-81876108D01*
X70267541Y-81863370D01*
X70346706Y-81831887D01*
X70489038Y-81819284D01*
X70554383Y-81817737D01*
X70678799Y-81793316D01*
X70716331Y-81734049D01*
X70712206Y-81709545D01*
X70647082Y-81662889D01*
X70489038Y-81648814D01*
X70438088Y-81647365D01*
X70312156Y-81627574D01*
X70261745Y-81591991D01*
X70280918Y-81571523D01*
X70383789Y-81545389D01*
X70545861Y-81535168D01*
X70829977Y-81535168D01*
X70829977Y-82217047D01*
G37*
G36*
X69926484Y-78342138D02*
G01*
X69935336Y-78363662D01*
X69965332Y-78479949D01*
X70008463Y-78677336D01*
X70060379Y-78935427D01*
X70116727Y-79233826D01*
X70143077Y-79377212D01*
X70198029Y-79673412D01*
X70245895Y-79927720D01*
X70282267Y-80116828D01*
X70302737Y-80217427D01*
X70312895Y-80273397D01*
X70297036Y-80322611D01*
X70220046Y-80337841D01*
X70055888Y-80331073D01*
X69779180Y-80313468D01*
X69697205Y-79816264D01*
X69679110Y-79710918D01*
X69639914Y-79510151D01*
X69606061Y-79371236D01*
X69583342Y-79319435D01*
X69562572Y-79340125D01*
X69494005Y-79440464D01*
X69392619Y-79605159D01*
X69271770Y-79813049D01*
X68992085Y-80306287D01*
X68517698Y-79798468D01*
X68406704Y-79680727D01*
X68237849Y-79509199D01*
X68130819Y-79414900D01*
X68077899Y-79391511D01*
X68071374Y-79432707D01*
X68130437Y-79749600D01*
X68172661Y-80020435D01*
X68190920Y-80205154D01*
X68183629Y-80291636D01*
X68130116Y-80315787D01*
X68010402Y-80334846D01*
X67870080Y-80343288D01*
X67753422Y-80338637D01*
X67704698Y-80318417D01*
X67700604Y-80291923D01*
X67678808Y-80170760D01*
X67641407Y-79969528D01*
X67592010Y-79707586D01*
X67534228Y-79404295D01*
X67498716Y-79216992D01*
X67445201Y-78927257D01*
X67402413Y-78686075D01*
X67374036Y-78514441D01*
X67363758Y-78433351D01*
X67369412Y-78408627D01*
X67443073Y-78366186D01*
X67613314Y-78353065D01*
X67705255Y-78355381D01*
X67796313Y-78372143D01*
X67884641Y-78417406D01*
X67989890Y-78505198D01*
X68131711Y-78649545D01*
X68329754Y-78864474D01*
X68337488Y-78872940D01*
X68519117Y-79068472D01*
X68672945Y-79228133D01*
X68782949Y-79335675D01*
X68833106Y-79374852D01*
X68854898Y-79353288D01*
X68922688Y-79250673D01*
X69021018Y-79082837D01*
X69136923Y-78871268D01*
X69190071Y-78771616D01*
X69297916Y-78576873D01*
X69378937Y-78455525D01*
X69451862Y-78387963D01*
X69535418Y-78354578D01*
X69648333Y-78335758D01*
X69712699Y-78328569D01*
X69854119Y-78324994D01*
X69926484Y-78342138D01*
G37*
G36*
X58099051Y-78353076D02*
G01*
X58433505Y-78353831D01*
X58674583Y-78357181D01*
X58838211Y-78365072D01*
X58940314Y-78379446D01*
X58996819Y-78402249D01*
X59023652Y-78435424D01*
X59036738Y-78480917D01*
X59038269Y-78488016D01*
X59060753Y-78604216D01*
X59095793Y-78796818D01*
X59139328Y-79042286D01*
X59187302Y-79317084D01*
X59235654Y-79597674D01*
X59280326Y-79860522D01*
X59317260Y-80082091D01*
X59342397Y-80238844D01*
X59351678Y-80307245D01*
X59336614Y-80319741D01*
X59239949Y-80333163D01*
X59083391Y-80330787D01*
X58815104Y-80313468D01*
X58679928Y-79588971D01*
X58544753Y-78864474D01*
X57874653Y-78864474D01*
X57586649Y-78866501D01*
X57388601Y-78874394D01*
X57265734Y-78890749D01*
X57198712Y-78918157D01*
X57168199Y-78959211D01*
X57155624Y-79044328D01*
X57203388Y-79108730D01*
X57325735Y-79153901D01*
X57535648Y-79184558D01*
X57846109Y-79205414D01*
X58437844Y-79233826D01*
X58086246Y-79785478D01*
X57734648Y-80337131D01*
X57392492Y-80356968D01*
X57236359Y-80366880D01*
X57081980Y-80378836D01*
X57004364Y-80387754D01*
X56989687Y-80388536D01*
X56988929Y-80354349D01*
X57045274Y-80257955D01*
X57165778Y-80086175D01*
X57215514Y-80017122D01*
X57302283Y-79881604D01*
X57316606Y-79797723D01*
X57254828Y-79736404D01*
X57113294Y-79668568D01*
X57099082Y-79662141D01*
X56848857Y-79491067D01*
X56678997Y-79257637D01*
X56600570Y-78983972D01*
X56624649Y-78692192D01*
X56639711Y-78641065D01*
X56683907Y-78542619D01*
X56753010Y-78469395D01*
X56861801Y-78417722D01*
X57025065Y-78383925D01*
X57257582Y-78364332D01*
X57574137Y-78355270D01*
X57989510Y-78353065D01*
X58099051Y-78353076D01*
G37*
G36*
X75525056Y-81539752D02*
G01*
X75673052Y-81560383D01*
X75745190Y-81591991D01*
X75731575Y-81630777D01*
X75634897Y-81648814D01*
X75574554Y-81651603D01*
X75517359Y-81680330D01*
X75493970Y-81764401D01*
X75489485Y-81932931D01*
X75485651Y-82035274D01*
X75465076Y-82165942D01*
X75432662Y-82217047D01*
X75412193Y-82197874D01*
X75386060Y-82095003D01*
X75375839Y-81932931D01*
X75374493Y-81818908D01*
X75360151Y-81705036D01*
X75318091Y-81658026D01*
X75233781Y-81648814D01*
X75140351Y-81634707D01*
X75091722Y-81591991D01*
X75118498Y-81568925D01*
X75230794Y-81544605D01*
X75400897Y-81535168D01*
X75525056Y-81539752D01*
G37*
G36*
X56275530Y-81593981D02*
G01*
X56369694Y-81765206D01*
X56398840Y-81827187D01*
X56469778Y-81958297D01*
X56519697Y-82023841D01*
X56545704Y-82016029D01*
X56612237Y-81935263D01*
X56691622Y-81793803D01*
X56759258Y-81666732D01*
X56848291Y-81552991D01*
X56912731Y-81550110D01*
X56951894Y-81657884D01*
X56965101Y-81876108D01*
X56959065Y-82030079D01*
X56938545Y-82165289D01*
X56908277Y-82217047D01*
X56893207Y-82208518D01*
X56861998Y-82123083D01*
X56847929Y-81975548D01*
X56844404Y-81734049D01*
X56723088Y-81975548D01*
X56681242Y-82052329D01*
X56599293Y-82170495D01*
X56538926Y-82217047D01*
X56512623Y-82204460D01*
X56438268Y-82117660D01*
X56354765Y-81975548D01*
X56233448Y-81734049D01*
X56229923Y-81975548D01*
X56226989Y-82039066D01*
X56205028Y-82166408D01*
X56169575Y-82217047D01*
X56143913Y-82180833D01*
X56121378Y-82057712D01*
X56112752Y-81876108D01*
X56117132Y-81742663D01*
X56146232Y-81584012D01*
X56200037Y-81534018D01*
X56275530Y-81593981D01*
G37*
G36*
X65231656Y-81561164D02*
G01*
X65255039Y-81667372D01*
X65261750Y-81820484D01*
X65252630Y-81982316D01*
X65228523Y-82114688D01*
X65190268Y-82179414D01*
X65080265Y-82205004D01*
X64909318Y-82211092D01*
X64748070Y-82191418D01*
X64647606Y-82148859D01*
X64632916Y-82127921D01*
X64600235Y-82017904D01*
X64583001Y-81864855D01*
X64582129Y-81707539D01*
X64598533Y-81584722D01*
X64633128Y-81535168D01*
X64651854Y-81550402D01*
X64683909Y-81647667D01*
X64704157Y-81805078D01*
X64714319Y-81934856D01*
X64740935Y-82034514D01*
X64805797Y-82076429D01*
X64934564Y-82092625D01*
X65147651Y-82110261D01*
X65147651Y-81822714D01*
X65151635Y-81717216D01*
X65172225Y-81586308D01*
X65204474Y-81535168D01*
X65231656Y-81561164D01*
G37*
G36*
X58927169Y-81567315D02*
G01*
X59064535Y-81637569D01*
X59111525Y-81732270D01*
X59071531Y-81828406D01*
X58947949Y-81902964D01*
X58744173Y-81932931D01*
X58601954Y-81953459D01*
X58556152Y-82018166D01*
X58590536Y-82065374D01*
X58697746Y-82098575D01*
X58835437Y-82105025D01*
X58959702Y-82083400D01*
X59026635Y-82032372D01*
X59042052Y-82005667D01*
X59096291Y-82002587D01*
X59108595Y-82042189D01*
X59068701Y-82130439D01*
X59024788Y-82164234D01*
X58879559Y-82207740D01*
X58698877Y-82215455D01*
X58532388Y-82182556D01*
X58476285Y-82131328D01*
X58442505Y-82013169D01*
X58452501Y-81940939D01*
X58506490Y-81878241D01*
X58628073Y-81837502D01*
X58840268Y-81806781D01*
X58933534Y-81782286D01*
X58982326Y-81734049D01*
X58968853Y-81707104D01*
X58881480Y-81670855D01*
X58751963Y-81658487D01*
X58626426Y-81672148D01*
X58550995Y-81713983D01*
X58524162Y-81744500D01*
X58465909Y-81747983D01*
X58447609Y-81674953D01*
X58515210Y-81606092D01*
X58642046Y-81557895D01*
X58801156Y-81546561D01*
X58927169Y-81567315D01*
G37*
G36*
X62051301Y-80082495D02*
G01*
X61975049Y-80187802D01*
X61851901Y-80268350D01*
X61809275Y-80284273D01*
X61626397Y-80315280D01*
X61335951Y-80334307D01*
X60941843Y-80341042D01*
X60828087Y-80340741D01*
X60438084Y-80327890D01*
X60141679Y-80287594D01*
X59923409Y-80208114D01*
X59767805Y-80077710D01*
X59659403Y-79884642D01*
X59582735Y-79617171D01*
X59522337Y-79263556D01*
X59515014Y-79211030D01*
X59487767Y-78922654D01*
X59994882Y-78922654D01*
X59998079Y-78963915D01*
X60009304Y-79010224D01*
X60037492Y-79161025D01*
X60065995Y-79347472D01*
X60080946Y-79442291D01*
X60118737Y-79617801D01*
X60156928Y-79731893D01*
X60165832Y-79747261D01*
X60213892Y-79790328D01*
X60303619Y-79814148D01*
X60458917Y-79822543D01*
X60703692Y-79819336D01*
X60734085Y-79818526D01*
X61088240Y-79805438D01*
X61349947Y-79788319D01*
X61512149Y-79767779D01*
X61567785Y-79744432D01*
X61558537Y-79686717D01*
X61532867Y-79548860D01*
X61497232Y-79364859D01*
X61458122Y-79168189D01*
X61422022Y-78992327D01*
X61406968Y-78941045D01*
X61373918Y-78904619D01*
X61304136Y-78882072D01*
X61178393Y-78870081D01*
X60977461Y-78865322D01*
X60682113Y-78864474D01*
X60492285Y-78864857D01*
X60256618Y-78868277D01*
X60106758Y-78877364D01*
X60025310Y-78894647D01*
X59994882Y-78922654D01*
X59487767Y-78922654D01*
X59486354Y-78907699D01*
X59501061Y-78678759D01*
X59570710Y-78514105D01*
X59706875Y-78403632D01*
X59921129Y-78337234D01*
X60225047Y-78304805D01*
X60630201Y-78296242D01*
X61006538Y-78303969D01*
X61321119Y-78337351D01*
X61554857Y-78408696D01*
X61724338Y-78530273D01*
X61846149Y-78714347D01*
X61936875Y-78973187D01*
X62013102Y-79319061D01*
X62032026Y-79421713D01*
X62076457Y-79719080D01*
X62077351Y-79744432D01*
X62083993Y-79932798D01*
X62051301Y-80082495D01*
G37*
G36*
X71511857Y-81876108D02*
G01*
X71505821Y-82030079D01*
X71485301Y-82165289D01*
X71455033Y-82217047D01*
X71417661Y-82181777D01*
X71398210Y-82074989D01*
X71388884Y-81991306D01*
X71333824Y-81943544D01*
X71199329Y-81932931D01*
X71173228Y-81932440D01*
X71050399Y-81913666D01*
X71000447Y-81876108D01*
X71002165Y-81868650D01*
X71067874Y-81833556D01*
X71199329Y-81819284D01*
X71217442Y-81819130D01*
X71355083Y-81797091D01*
X71398210Y-81734049D01*
X71393448Y-81707948D01*
X71326867Y-81662482D01*
X71167564Y-81648814D01*
X71117650Y-81647751D01*
X70997612Y-81629297D01*
X70972036Y-81591991D01*
X70991064Y-81576573D01*
X71098910Y-81546937D01*
X71259506Y-81535168D01*
X71511857Y-81535168D01*
X71511857Y-81876108D01*
G37*
G36*
X75760879Y-80678946D02*
G01*
X75753518Y-80928427D01*
X75745617Y-81080974D01*
X75745034Y-81092220D01*
X75735719Y-81156346D01*
X75731955Y-81157264D01*
X75647323Y-81161292D01*
X75456187Y-81165194D01*
X75164378Y-81168948D01*
X74777732Y-81172531D01*
X74302081Y-81175921D01*
X73743259Y-81179095D01*
X73107099Y-81182031D01*
X72399436Y-81184705D01*
X71626103Y-81187097D01*
X70792932Y-81189182D01*
X69905759Y-81190938D01*
X68970416Y-81192344D01*
X67992737Y-81193376D01*
X66978556Y-81194011D01*
X65933706Y-81194228D01*
X56169575Y-81194228D01*
X56169575Y-77671186D01*
X56281530Y-77671186D01*
X56296582Y-79361678D01*
X56311633Y-81052170D01*
X64337919Y-81066572D01*
X72364206Y-81080974D01*
X72364206Y-78875321D01*
X73875779Y-78875321D01*
X73889218Y-78955872D01*
X73927400Y-79120353D01*
X73985246Y-79347833D01*
X74057680Y-79617383D01*
X74257025Y-80341879D01*
X74645962Y-80341879D01*
X74823351Y-80336903D01*
X74980248Y-80315504D01*
X75034899Y-80278804D01*
X75023556Y-80221652D01*
X74958180Y-80069040D01*
X74849689Y-79872184D01*
X74715387Y-79659483D01*
X74572577Y-79459335D01*
X74438565Y-79300141D01*
X74378615Y-79239104D01*
X74208539Y-79080689D01*
X74054131Y-78955801D01*
X73936464Y-78880535D01*
X73876611Y-78870983D01*
X73875779Y-78875321D01*
X72364206Y-78875321D01*
X72364206Y-78363200D01*
X72949835Y-78363200D01*
X72951739Y-78395682D01*
X72977402Y-78496992D01*
X73013474Y-78651387D01*
X73020672Y-78682270D01*
X73049096Y-78752961D01*
X73107543Y-78790383D01*
X73223884Y-78805094D01*
X73425989Y-78807651D01*
X73430837Y-78807649D01*
X73614427Y-78803210D01*
X73737003Y-78791924D01*
X73772260Y-78776182D01*
X73740940Y-78756526D01*
X73626519Y-78701448D01*
X73464467Y-78632112D01*
X73188143Y-78519511D01*
X73415436Y-78552975D01*
X73436485Y-78556576D01*
X73610944Y-78604429D01*
X73836161Y-78686052D01*
X74068904Y-78786027D01*
X74114021Y-78807492D01*
X74330157Y-78919034D01*
X74513356Y-79026660D01*
X74627954Y-79109720D01*
X74760830Y-79233826D01*
X74721071Y-79020738D01*
X74681312Y-78807651D01*
X75113810Y-78807651D01*
X75333480Y-78804554D01*
X75475888Y-78784905D01*
X75537193Y-78733557D01*
X75534253Y-78635367D01*
X75483927Y-78475191D01*
X75421545Y-78296242D01*
X74173162Y-78296242D01*
X73940721Y-78296376D01*
X73588590Y-78297775D01*
X73329295Y-78301600D01*
X73149304Y-78308954D01*
X73035085Y-78320937D01*
X72973106Y-78338652D01*
X72949835Y-78363200D01*
X72364206Y-78363200D01*
X72364206Y-77671186D01*
X56281530Y-77671186D01*
X56169575Y-77671186D01*
X56169575Y-77557539D01*
X75773602Y-77557539D01*
X75773602Y-79338002D01*
X75773317Y-79556163D01*
X75771070Y-79978836D01*
X75767711Y-80278804D01*
X75766827Y-80357756D01*
X75760879Y-80678946D01*
G37*
G36*
X66784161Y-82148859D02*
G01*
X66762679Y-82164154D01*
X66640493Y-82201927D01*
X66473632Y-82217047D01*
X66425961Y-82215892D01*
X66243696Y-82172509D01*
X66143969Y-82056773D01*
X66120286Y-81899565D01*
X66235827Y-81899565D01*
X66247793Y-82018039D01*
X66264610Y-82043234D01*
X66366027Y-82091160D01*
X66508115Y-82103945D01*
X66641439Y-82081141D01*
X66716568Y-82022298D01*
X66731291Y-81948993D01*
X66728990Y-81809211D01*
X66712525Y-81746352D01*
X66645410Y-81685881D01*
X66499118Y-81659704D01*
X66366896Y-81656666D01*
X66290442Y-81691933D01*
X66251491Y-81787430D01*
X66235827Y-81899565D01*
X66120286Y-81899565D01*
X66113646Y-81855490D01*
X66158261Y-81685995D01*
X66291735Y-81574245D01*
X66504103Y-81535168D01*
X66561716Y-81536628D01*
X66734829Y-81576614D01*
X66825882Y-81684071D01*
X66852349Y-81876108D01*
X66852037Y-81896005D01*
X66844448Y-81948993D01*
X66830095Y-82049216D01*
X66784161Y-82148859D01*
G37*
G36*
X64377787Y-81571382D02*
G01*
X64400322Y-81694504D01*
X64408948Y-81876108D01*
X64408948Y-82217047D01*
X64124832Y-82217047D01*
X64022489Y-82213212D01*
X63891821Y-82192638D01*
X63840716Y-82160224D01*
X63846512Y-82147486D01*
X63925677Y-82116003D01*
X64068009Y-82103401D01*
X64295302Y-82103401D01*
X64295302Y-81819284D01*
X64299137Y-81716941D01*
X64319711Y-81586273D01*
X64352125Y-81535168D01*
X64377787Y-81571382D01*
G37*
G36*
X75003738Y-81571382D02*
G01*
X75026273Y-81694504D01*
X75034899Y-81876108D01*
X75028863Y-82030079D01*
X75008343Y-82165289D01*
X74978076Y-82217047D01*
X74940704Y-82181777D01*
X74921253Y-82074989D01*
X74921172Y-82062618D01*
X74905488Y-81977258D01*
X74840401Y-81940685D01*
X74693960Y-81932931D01*
X74674165Y-81932981D01*
X74537589Y-81942783D01*
X74479073Y-81983463D01*
X74466667Y-82074989D01*
X74452559Y-82168419D01*
X74409843Y-82217047D01*
X74384181Y-82180833D01*
X74361646Y-82057712D01*
X74353020Y-81876108D01*
X74359056Y-81722136D01*
X74379576Y-81586926D01*
X74409843Y-81535168D01*
X74447215Y-81570438D01*
X74466667Y-81677226D01*
X74466748Y-81689597D01*
X74482431Y-81774957D01*
X74547519Y-81811530D01*
X74693960Y-81819284D01*
X74713754Y-81819234D01*
X74850330Y-81809432D01*
X74908847Y-81768752D01*
X74921253Y-81677226D01*
X74935360Y-81583796D01*
X74978076Y-81535168D01*
X75003738Y-81571382D01*
G37*
G36*
X62636062Y-82148859D02*
G01*
X62613662Y-82165602D01*
X62483125Y-82204590D01*
X62308795Y-82214796D01*
X62141917Y-82196219D01*
X62033736Y-82148859D01*
X62027208Y-82141394D01*
X61983451Y-82031812D01*
X61965548Y-81876108D01*
X62107606Y-81876108D01*
X62107750Y-81907268D01*
X62121407Y-82022488D01*
X62181317Y-82072902D01*
X62321150Y-82092652D01*
X62361324Y-82095162D01*
X62513409Y-82073678D01*
X62581991Y-81983389D01*
X62580892Y-81809211D01*
X62555937Y-81728538D01*
X62484810Y-81687008D01*
X62334899Y-81677226D01*
X62267830Y-81677671D01*
X62156974Y-81692182D01*
X62114487Y-81748771D01*
X62107606Y-81876108D01*
X61965548Y-81876108D01*
X61965860Y-81856210D01*
X61987802Y-81702999D01*
X62033736Y-81603356D01*
X62149963Y-81550794D01*
X62320732Y-81537708D01*
X62493136Y-81562896D01*
X62614957Y-81624462D01*
X62661565Y-81696981D01*
X62699454Y-81857733D01*
X62693684Y-81983389D01*
X62691693Y-82026737D01*
X62636062Y-82148859D01*
G37*
G36*
X63725678Y-78296761D02*
G01*
X63989245Y-78301068D01*
X64166059Y-78316887D01*
X64273438Y-78351546D01*
X64328697Y-78412371D01*
X64349154Y-78506690D01*
X64352125Y-78641829D01*
X64351968Y-78675940D01*
X64341832Y-78751970D01*
X64296786Y-78791198D01*
X64190583Y-78805942D01*
X63996980Y-78808521D01*
X63828406Y-78813604D01*
X63663990Y-78829442D01*
X63574601Y-78852147D01*
X63570713Y-78854969D01*
X63546872Y-78910107D01*
X63545734Y-79028629D01*
X63568266Y-79226317D01*
X63615432Y-79518950D01*
X63651666Y-79733345D01*
X63689272Y-79969185D01*
X63715199Y-80148029D01*
X63725283Y-80242439D01*
X63717622Y-80287596D01*
X63654729Y-80330309D01*
X63506252Y-80341879D01*
X63285434Y-80341879D01*
X63165312Y-79697321D01*
X63122549Y-79461663D01*
X63082441Y-79226498D01*
X63055220Y-79049994D01*
X63045190Y-78958618D01*
X63045135Y-78954812D01*
X63026581Y-78908472D01*
X62959787Y-78880999D01*
X62822992Y-78867848D01*
X62594433Y-78864474D01*
X62541622Y-78864528D01*
X62333806Y-78862386D01*
X62207901Y-78843696D01*
X62137443Y-78791369D01*
X62095971Y-78688318D01*
X62057022Y-78517457D01*
X62048997Y-78478763D01*
X62048909Y-78415002D01*
X62093241Y-78377536D01*
X62204923Y-78354290D01*
X62406886Y-78333185D01*
X62607822Y-78319464D01*
X62891120Y-78307720D01*
X63213297Y-78299703D01*
X63536314Y-78296646D01*
X63725678Y-78296761D01*
G37*
G36*
X30077000Y-116030895D02*
G01*
X30218369Y-116031048D01*
X30327420Y-116031770D01*
X30409734Y-116033475D01*
X30470891Y-116036574D01*
X30516471Y-116041481D01*
X30552055Y-116048608D01*
X30583223Y-116058369D01*
X30615555Y-116071175D01*
X30730390Y-116135327D01*
X30824584Y-116222839D01*
X30888916Y-116326480D01*
X30894219Y-116339349D01*
X30900412Y-116357287D01*
X30905762Y-116378516D01*
X30910332Y-116405404D01*
X30914186Y-116440315D01*
X30917388Y-116485616D01*
X30920002Y-116543672D01*
X30922092Y-116616850D01*
X30923722Y-116707515D01*
X30924955Y-116818033D01*
X30925856Y-116950769D01*
X30926489Y-117108091D01*
X30926918Y-117292363D01*
X30927206Y-117505952D01*
X30927417Y-117751223D01*
X30927524Y-117882478D01*
X30927704Y-118119721D01*
X30927684Y-118326410D01*
X30927277Y-118504872D01*
X30926295Y-118657434D01*
X30924550Y-118786422D01*
X30921855Y-118894163D01*
X30918022Y-118982985D01*
X30912864Y-119055214D01*
X30906193Y-119113176D01*
X30897821Y-119159199D01*
X30887562Y-119195610D01*
X30875227Y-119224735D01*
X30860629Y-119248901D01*
X30843581Y-119270435D01*
X30823895Y-119291664D01*
X30801383Y-119314915D01*
X30778556Y-119336524D01*
X30710743Y-119387846D01*
X30641085Y-119427557D01*
X30624173Y-119435112D01*
X30596214Y-119446276D01*
X30566815Y-119454709D01*
X30530737Y-119460792D01*
X30482741Y-119464905D01*
X30417590Y-119467430D01*
X30330044Y-119468746D01*
X30214865Y-119469235D01*
X30066815Y-119469277D01*
X29585049Y-119469117D01*
X29484739Y-119417721D01*
X29398279Y-119361826D01*
X29308547Y-119271049D01*
X29247808Y-119165914D01*
X29244514Y-119154557D01*
X29240461Y-119128954D01*
X29708905Y-119128954D01*
X30490150Y-119128954D01*
X30490150Y-118992761D01*
X30128110Y-118992761D01*
X30128110Y-118669303D01*
X30490150Y-118669303D01*
X30490150Y-118533109D01*
X29708905Y-118533109D01*
X29708905Y-118669303D01*
X29994726Y-118669303D01*
X29994726Y-118992761D01*
X29708905Y-118992761D01*
X29708905Y-119128954D01*
X29240461Y-119128954D01*
X29240210Y-119127369D01*
X29236478Y-119085839D01*
X29233285Y-119027994D01*
X29230597Y-118951865D01*
X29228378Y-118855481D01*
X29226594Y-118736873D01*
X29225212Y-118594068D01*
X29224196Y-118425098D01*
X29223514Y-118227992D01*
X29223129Y-118000778D01*
X29223020Y-117767024D01*
X29706817Y-117767024D01*
X29712625Y-117847404D01*
X29718432Y-117927784D01*
X29966144Y-118064461D01*
X30213856Y-118201139D01*
X29961381Y-118205889D01*
X29708905Y-118210639D01*
X29708905Y-118345844D01*
X30492341Y-118345844D01*
X30486482Y-118273764D01*
X30480623Y-118201685D01*
X30223384Y-118060518D01*
X30169465Y-118030639D01*
X30087978Y-117984267D01*
X30022077Y-117945228D01*
X29977451Y-117916928D01*
X29959793Y-117902772D01*
X29959695Y-117902393D01*
X29977066Y-117895636D01*
X30028860Y-117890536D01*
X30111596Y-117887315D01*
X30221796Y-117886193D01*
X30490150Y-117886193D01*
X30490150Y-117767024D01*
X29706817Y-117767024D01*
X29223020Y-117767024D01*
X29223008Y-117741487D01*
X29223008Y-117418029D01*
X29707761Y-117418029D01*
X30084664Y-117533100D01*
X30118690Y-117543470D01*
X30228926Y-117576803D01*
X30325304Y-117605552D01*
X30402280Y-117628089D01*
X30454313Y-117642785D01*
X30475859Y-117648013D01*
X30478857Y-117646492D01*
X30486916Y-117623317D01*
X30490150Y-117581126D01*
X30488816Y-117546137D01*
X30478612Y-117520972D01*
X30450356Y-117504018D01*
X30394876Y-117486126D01*
X30299603Y-117457853D01*
X30299603Y-117190940D01*
X30394876Y-117162667D01*
X30445006Y-117146831D01*
X30476196Y-117130297D01*
X30488189Y-117106609D01*
X30490150Y-117066519D01*
X30490101Y-117055244D01*
X30486987Y-117018356D01*
X30474707Y-117006063D01*
X30447277Y-117010552D01*
X30447265Y-117010556D01*
X30416171Y-117019747D01*
X30355560Y-117038122D01*
X30271912Y-117063701D01*
X30171705Y-117094501D01*
X30061418Y-117128541D01*
X29718432Y-117234621D01*
X29713097Y-117326325D01*
X29707761Y-117418029D01*
X29223008Y-117418029D01*
X29223008Y-116654892D01*
X29695517Y-116654892D01*
X29702193Y-116748596D01*
X29706817Y-116761181D01*
X29733608Y-116834097D01*
X29788798Y-116901859D01*
X29802180Y-116912746D01*
X29838455Y-116939258D01*
X29859250Y-116949866D01*
X29860524Y-116949671D01*
X29879386Y-116933788D01*
X29905005Y-116900221D01*
X29918555Y-116878945D01*
X29926659Y-116854321D01*
X29914303Y-116831356D01*
X29878155Y-116797264D01*
X29870504Y-116790355D01*
X29837092Y-116754143D01*
X29825163Y-116718874D01*
X29828132Y-116667464D01*
X29831308Y-116648749D01*
X29848436Y-116595131D01*
X29871643Y-116557548D01*
X29885097Y-116546214D01*
X29950292Y-116515423D01*
X30035347Y-116498092D01*
X30128199Y-116494908D01*
X30216786Y-116506561D01*
X30289046Y-116533737D01*
X30303166Y-116543161D01*
X30345591Y-116594050D01*
X30363970Y-116657484D01*
X30358668Y-116723472D01*
X30330051Y-116782021D01*
X30278482Y-116823139D01*
X30258418Y-116832435D01*
X30230476Y-116849404D01*
X30228011Y-116869438D01*
X30245497Y-116906504D01*
X30269043Y-116935815D01*
X30300091Y-116949866D01*
X30322161Y-116946081D01*
X30372597Y-116920731D01*
X30423202Y-116879083D01*
X30461949Y-116830039D01*
X30474707Y-116799945D01*
X30475457Y-116798176D01*
X30488587Y-116726825D01*
X30489179Y-116646514D01*
X30477575Y-116571051D01*
X30454119Y-116514240D01*
X30391003Y-116443504D01*
X30300634Y-116389107D01*
X30187981Y-116360878D01*
X30051007Y-116358029D01*
X30018507Y-116360733D01*
X29902683Y-116384371D01*
X29813725Y-116429353D01*
X29747949Y-116497375D01*
X29714541Y-116562521D01*
X29695517Y-116654892D01*
X29223008Y-116654892D01*
X29223008Y-116379557D01*
X29267545Y-116302949D01*
X29312204Y-116236530D01*
X29408940Y-116140043D01*
X29527885Y-116071204D01*
X29529595Y-116070482D01*
X29561211Y-116057832D01*
X29592004Y-116048209D01*
X29627537Y-116041198D01*
X29673370Y-116036388D01*
X29735066Y-116033366D01*
X29818186Y-116031718D01*
X29928292Y-116031032D01*
X30051007Y-116030914D01*
X30070945Y-116030895D01*
X30077000Y-116030895D01*
G37*
G36*
X30171139Y-117243081D02*
G01*
X30181431Y-117272408D01*
X30185274Y-117324396D01*
X30184342Y-117351838D01*
X30177154Y-117393835D01*
X30164414Y-117409517D01*
X30157860Y-117409141D01*
X30117527Y-117401785D01*
X30060607Y-117387460D01*
X29997767Y-117369361D01*
X29939673Y-117350686D01*
X29896995Y-117334632D01*
X29880398Y-117324396D01*
X29881653Y-117322432D01*
X29906195Y-117310344D01*
X29953994Y-117293285D01*
X30014383Y-117274452D01*
X30076694Y-117257041D01*
X30130260Y-117244250D01*
X30164414Y-117239276D01*
X30171139Y-117243081D01*
G37*
G36*
X55701903Y-92575981D02*
G01*
X55701903Y-91808618D01*
X55737556Y-91773406D01*
X55761122Y-91750929D01*
X55790619Y-91723988D01*
X55818827Y-91699227D01*
X55841835Y-91680387D01*
X55860843Y-91667794D01*
X55877104Y-91661790D01*
X55894743Y-91660260D01*
X55925040Y-91660260D01*
X55929813Y-91695084D01*
X55931276Y-91707784D01*
X55933650Y-91740144D01*
X55934587Y-91771877D01*
X55934677Y-91777615D01*
X55936965Y-91810202D01*
X55941956Y-91853758D01*
X55949146Y-91905313D01*
X55958030Y-91961896D01*
X55968101Y-92020534D01*
X55978855Y-92078258D01*
X55989787Y-92132096D01*
X56000390Y-92179077D01*
X56010160Y-92216230D01*
X56017258Y-92242142D01*
X56022610Y-92265294D01*
X56024657Y-92279259D01*
X56025956Y-92288750D01*
X56031165Y-92309808D01*
X56038998Y-92335021D01*
X56047336Y-92360005D01*
X56058867Y-92395567D01*
X56069610Y-92429615D01*
X56081578Y-92466972D01*
X56096568Y-92510361D01*
X56114154Y-92557727D01*
X56135538Y-92612300D01*
X56161926Y-92677310D01*
X56170860Y-92698330D01*
X56184422Y-92728984D01*
X56200277Y-92763979D01*
X56217027Y-92800303D01*
X56233270Y-92834951D01*
X56247607Y-92864911D01*
X56258637Y-92887175D01*
X56264961Y-92898735D01*
X56267169Y-92902230D01*
X56276569Y-92918890D01*
X56287567Y-92940017D01*
X56290358Y-92945500D01*
X56305439Y-92973442D01*
X56320863Y-93000065D01*
X56325728Y-93008132D01*
X56338230Y-93029472D01*
X56346896Y-93045100D01*
X56349045Y-93049137D01*
X56363646Y-93074015D01*
X56384908Y-93107600D01*
X56411058Y-93147077D01*
X56419315Y-93159371D01*
X56432564Y-93179361D01*
X56441082Y-93192560D01*
X56458489Y-93219595D01*
X56477313Y-93247135D01*
X56495039Y-93271658D01*
X56509343Y-93289950D01*
X56517901Y-93298798D01*
X56521881Y-93302191D01*
X56527553Y-93315060D01*
X56528020Y-93319188D01*
X56533625Y-93327823D01*
X56533907Y-93327965D01*
X56541694Y-93335641D01*
X56555333Y-93351909D01*
X56572056Y-93373484D01*
X56573605Y-93375539D01*
X56590190Y-93396326D01*
X56603587Y-93411051D01*
X56611020Y-93416643D01*
X56613976Y-93417813D01*
X56617624Y-93427637D01*
X56620681Y-93435903D01*
X56632636Y-93446666D01*
X56641808Y-93452975D01*
X56647648Y-93461379D01*
X56650177Y-93466535D01*
X56662158Y-93481904D01*
X56682840Y-93505494D01*
X56710951Y-93536033D01*
X56745219Y-93572251D01*
X56784371Y-93612876D01*
X56827137Y-93656637D01*
X56872244Y-93702264D01*
X56918420Y-93748484D01*
X56964393Y-93794027D01*
X57008892Y-93837621D01*
X57050644Y-93877997D01*
X57088378Y-93913881D01*
X57120821Y-93944004D01*
X57146702Y-93967094D01*
X57164749Y-93981881D01*
X57173690Y-93987092D01*
X57179262Y-93990247D01*
X57188074Y-94002104D01*
X57195157Y-94011156D01*
X57207102Y-94017115D01*
X57212018Y-94017777D01*
X57218097Y-94023349D01*
X57221560Y-94028516D01*
X57234424Y-94040317D01*
X57253528Y-94055027D01*
X57268467Y-94065980D01*
X57288340Y-94081255D01*
X57301099Y-94091953D01*
X57309538Y-94099411D01*
X57324590Y-94110939D01*
X57328870Y-94113775D01*
X57354780Y-94131139D01*
X57380830Y-94148867D01*
X57403863Y-94164783D01*
X57420726Y-94176709D01*
X57428263Y-94182471D01*
X57435175Y-94187604D01*
X57451489Y-94198453D01*
X57473298Y-94212358D01*
X57493544Y-94225378D01*
X57512640Y-94238388D01*
X57523324Y-94246589D01*
X57523434Y-94246694D01*
X57536432Y-94255388D01*
X57555224Y-94264546D01*
X57557043Y-94265319D01*
X57572172Y-94273679D01*
X57578381Y-94280733D01*
X57581190Y-94284563D01*
X57593393Y-94287328D01*
X57602104Y-94288410D01*
X57608404Y-94293116D01*
X57609032Y-94294322D01*
X57618727Y-94301927D01*
X57637708Y-94313660D01*
X57662822Y-94327529D01*
X57664387Y-94328352D01*
X57696680Y-94345378D01*
X57729381Y-94362676D01*
X57755639Y-94376622D01*
X57757288Y-94377495D01*
X57784633Y-94391117D01*
X57821916Y-94408630D01*
X57865460Y-94428405D01*
X57911591Y-94448815D01*
X57956631Y-94468231D01*
X57996905Y-94485026D01*
X58028735Y-94497571D01*
X58032064Y-94498845D01*
X58050753Y-94507036D01*
X58062137Y-94513709D01*
X58067167Y-94516718D01*
X58082577Y-94520011D01*
X58087402Y-94520541D01*
X58105731Y-94525529D01*
X58127988Y-94534070D01*
X58134633Y-94536826D01*
X58160833Y-94546376D01*
X58196290Y-94558091D01*
X58238386Y-94571224D01*
X58284504Y-94585027D01*
X58332026Y-94598753D01*
X58378335Y-94611654D01*
X58420813Y-94622982D01*
X58456842Y-94631989D01*
X58483805Y-94637929D01*
X58499083Y-94640054D01*
X58503440Y-94640360D01*
X58521873Y-94643077D01*
X58548923Y-94648005D01*
X58580420Y-94654406D01*
X58591744Y-94656779D01*
X58628481Y-94663871D01*
X58668762Y-94670658D01*
X58715438Y-94677570D01*
X58771359Y-94685037D01*
X58839374Y-94693489D01*
X58864814Y-94695878D01*
X58903913Y-94698270D01*
X58947726Y-94699965D01*
X58990698Y-94700701D01*
X58991866Y-94700707D01*
X59030111Y-94701383D01*
X59064543Y-94702883D01*
X59091431Y-94704989D01*
X59107039Y-94707484D01*
X59111254Y-94709657D01*
X59105916Y-94712024D01*
X59089635Y-94713615D01*
X59064769Y-94714436D01*
X59033679Y-94714491D01*
X58998722Y-94713782D01*
X58962257Y-94712315D01*
X58926645Y-94710093D01*
X58894242Y-94707121D01*
X58890469Y-94706701D01*
X58858153Y-94703359D01*
X58837006Y-94702192D01*
X58823621Y-94703492D01*
X58814592Y-94707551D01*
X58806515Y-94714664D01*
X58790928Y-94730251D01*
X55056566Y-94728338D01*
X54995960Y-94728306D01*
X54716212Y-94728161D01*
X54450997Y-94728019D01*
X54199920Y-94727880D01*
X53962585Y-94727740D01*
X53738596Y-94727599D01*
X53527558Y-94727455D01*
X53329076Y-94727306D01*
X53142754Y-94727151D01*
X52968196Y-94726988D01*
X52805007Y-94726816D01*
X52652790Y-94726632D01*
X52511152Y-94726435D01*
X52379695Y-94726224D01*
X52258025Y-94725997D01*
X52145746Y-94725751D01*
X52042463Y-94725487D01*
X51947779Y-94725201D01*
X51861299Y-94724892D01*
X51782628Y-94724559D01*
X51711371Y-94724200D01*
X51647130Y-94723813D01*
X51589512Y-94723397D01*
X51538120Y-94722950D01*
X51492560Y-94722470D01*
X51452434Y-94721956D01*
X51417348Y-94721406D01*
X51386907Y-94720819D01*
X51360714Y-94720192D01*
X51338374Y-94719525D01*
X51319492Y-94718815D01*
X51303671Y-94718061D01*
X51290517Y-94717261D01*
X51279634Y-94716413D01*
X51270626Y-94715517D01*
X51263098Y-94714570D01*
X51256654Y-94713570D01*
X51250899Y-94712516D01*
X51194845Y-94700571D01*
X51108236Y-94677998D01*
X51029062Y-94652238D01*
X50961099Y-94624439D01*
X50952115Y-94620352D01*
X50934578Y-94612996D01*
X50925387Y-94610082D01*
X50925290Y-94610077D01*
X50916216Y-94606013D01*
X50895342Y-94594780D01*
X50863680Y-94576947D01*
X50822242Y-94553086D01*
X50772041Y-94523764D01*
X50761772Y-94517055D01*
X50741839Y-94503078D01*
X50717428Y-94485438D01*
X50692600Y-94467105D01*
X50671414Y-94451052D01*
X50657932Y-94440250D01*
X50648543Y-94431941D01*
X50614715Y-94400121D01*
X50577181Y-94362567D01*
X50538909Y-94322440D01*
X50502868Y-94282899D01*
X50472025Y-94247105D01*
X50449351Y-94218218D01*
X50442945Y-94209297D01*
X50389931Y-94130789D01*
X50345429Y-94054768D01*
X50307886Y-93977736D01*
X50275746Y-93896198D01*
X50247455Y-93806658D01*
X50221460Y-93705620D01*
X50203824Y-93630561D01*
X50203824Y-92531388D01*
X50417743Y-92531388D01*
X50418010Y-92534143D01*
X50419628Y-92536800D01*
X50423736Y-92539026D01*
X50431472Y-92540858D01*
X50443976Y-92542335D01*
X50462384Y-92543496D01*
X50487837Y-92544378D01*
X50521471Y-92545019D01*
X50564425Y-92545459D01*
X50617838Y-92545734D01*
X50682847Y-92545883D01*
X50760592Y-92545945D01*
X50852210Y-92545957D01*
X50882034Y-92545955D01*
X50969507Y-92545916D01*
X51043466Y-92545799D01*
X51105055Y-92545570D01*
X51155419Y-92545195D01*
X51195704Y-92544639D01*
X51227052Y-92543869D01*
X51250611Y-92542849D01*
X51267524Y-92541547D01*
X51278937Y-92539927D01*
X51285993Y-92537956D01*
X51289838Y-92535599D01*
X51291618Y-92532822D01*
X51300110Y-92514685D01*
X51315324Y-92487392D01*
X51334644Y-92455886D01*
X51341759Y-92444163D01*
X51354885Y-92421324D01*
X51368969Y-92395839D01*
X51378885Y-92377665D01*
X51395076Y-92348472D01*
X51408643Y-92324533D01*
X51412375Y-92318013D01*
X51426152Y-92293156D01*
X51437308Y-92271991D01*
X51437985Y-92270656D01*
X51447207Y-92254477D01*
X51454003Y-92245721D01*
X51455070Y-92244725D01*
X51462338Y-92233617D01*
X51471445Y-92215697D01*
X51472400Y-92213643D01*
X51485403Y-92188110D01*
X51499606Y-92163156D01*
X51504435Y-92155160D01*
X51519563Y-92129317D01*
X51534402Y-92103108D01*
X51544827Y-92084395D01*
X51565211Y-92048214D01*
X51586835Y-92010217D01*
X51606859Y-91975387D01*
X51622441Y-91948704D01*
X51626265Y-91942192D01*
X51640722Y-91916982D01*
X51655091Y-91891271D01*
X51674128Y-91856775D01*
X51702320Y-91806366D01*
X51725898Y-91765110D01*
X51744261Y-91734034D01*
X51756808Y-91714170D01*
X51762938Y-91706546D01*
X51766078Y-91703030D01*
X51768806Y-91690101D01*
X51770013Y-91682126D01*
X51777078Y-91671045D01*
X51777649Y-91670656D01*
X51786578Y-91659904D01*
X51796359Y-91642455D01*
X51797909Y-91639210D01*
X51810128Y-91615617D01*
X51823740Y-91591536D01*
X51826486Y-91586897D01*
X51839471Y-91564533D01*
X51856014Y-91535621D01*
X51873216Y-91505218D01*
X51877414Y-91497751D01*
X51899359Y-91458760D01*
X51915547Y-91430102D01*
X51927339Y-91409401D01*
X51936096Y-91394281D01*
X51943179Y-91382367D01*
X51949951Y-91371282D01*
X51962300Y-91350061D01*
X51972856Y-91330000D01*
X51980634Y-91315415D01*
X51990603Y-91299976D01*
X51990926Y-91299549D01*
X51999052Y-91286850D01*
X52011432Y-91265518D01*
X52025523Y-91239929D01*
X52040304Y-91212691D01*
X52056400Y-91183568D01*
X52069111Y-91161117D01*
X52072865Y-91154575D01*
X52086667Y-91129729D01*
X52097828Y-91108575D01*
X52098505Y-91107240D01*
X52107728Y-91091060D01*
X52114523Y-91082305D01*
X52115590Y-91081309D01*
X52122858Y-91070201D01*
X52131965Y-91052281D01*
X52132931Y-91050205D01*
X52145944Y-91024680D01*
X52160170Y-90999740D01*
X52168394Y-90985947D01*
X52183528Y-90959528D01*
X52198653Y-90932186D01*
X52209157Y-90913096D01*
X52222855Y-90889022D01*
X52232993Y-90872139D01*
X52256409Y-90833009D01*
X52281544Y-90784861D01*
X52282319Y-90783258D01*
X52292281Y-90766141D01*
X52300960Y-90756271D01*
X52305413Y-90751212D01*
X52309232Y-90736590D01*
X52310236Y-90728298D01*
X52314861Y-90721958D01*
X52315329Y-90721829D01*
X52322080Y-90714077D01*
X52333163Y-90696712D01*
X52346431Y-90673059D01*
X52348423Y-90669356D01*
X52361764Y-90646879D01*
X52372989Y-90631623D01*
X52379844Y-90626715D01*
X52381499Y-90627482D01*
X52386920Y-90632517D01*
X52394607Y-90643355D01*
X52405715Y-90661879D01*
X52421397Y-90689975D01*
X52442808Y-90729527D01*
X52443739Y-90731257D01*
X52457802Y-90756699D01*
X52469985Y-90777596D01*
X52477743Y-90789574D01*
X52485362Y-90801084D01*
X52495374Y-90819598D01*
X52498389Y-90825815D01*
X52506980Y-90841871D01*
X52518710Y-90861177D01*
X52536286Y-90888277D01*
X52545495Y-90905545D01*
X52549421Y-90919584D01*
X52550044Y-90924810D01*
X52555546Y-90933437D01*
X52556491Y-90934151D01*
X52564112Y-90944345D01*
X52576675Y-90964129D01*
X52592473Y-90990598D01*
X52609799Y-91020843D01*
X52626946Y-91051960D01*
X52642208Y-91081039D01*
X52645394Y-91087064D01*
X52655524Y-91103331D01*
X52662850Y-91111077D01*
X52666420Y-91114600D01*
X52669516Y-91127523D01*
X52670722Y-91135498D01*
X52677787Y-91146578D01*
X52678374Y-91146978D01*
X52687341Y-91157735D01*
X52697203Y-91175168D01*
X52717494Y-91214607D01*
X52745755Y-91262446D01*
X52754266Y-91276534D01*
X52767764Y-91300027D01*
X52782337Y-91326247D01*
X52795031Y-91349416D01*
X52810965Y-91378042D01*
X52826244Y-91404707D01*
X52844732Y-91436222D01*
X52851158Y-91447174D01*
X52870586Y-91480753D01*
X52892917Y-91519816D01*
X52915058Y-91558942D01*
X52933921Y-91592706D01*
X52938947Y-91601722D01*
X52956148Y-91631948D01*
X52972662Y-91660260D01*
X52979274Y-91671746D01*
X52992077Y-91695867D01*
X53000736Y-91714677D01*
X53008136Y-91729110D01*
X53015016Y-91735319D01*
X53019532Y-91738078D01*
X53025958Y-91750051D01*
X53027186Y-91753143D01*
X53034955Y-91769023D01*
X53048181Y-91794088D01*
X53065393Y-91825586D01*
X53085119Y-91860763D01*
X53102933Y-91892173D01*
X53133982Y-91947112D01*
X53158601Y-91990994D01*
X53177514Y-92025123D01*
X53191446Y-92050801D01*
X53201122Y-92069332D01*
X53201831Y-92070722D01*
X53210949Y-92086867D01*
X53217447Y-92095602D01*
X53217765Y-92095870D01*
X53224581Y-92105399D01*
X53233697Y-92121873D01*
X53236348Y-92127051D01*
X53248787Y-92150214D01*
X53262415Y-92174414D01*
X53274054Y-92194950D01*
X53290028Y-92223812D01*
X53306003Y-92253227D01*
X53306931Y-92254952D01*
X53320987Y-92280396D01*
X53333166Y-92301295D01*
X53340923Y-92313274D01*
X53348542Y-92324784D01*
X53358554Y-92343297D01*
X53361569Y-92349515D01*
X53370160Y-92365570D01*
X53381890Y-92384877D01*
X53399465Y-92411977D01*
X53399509Y-92412044D01*
X53408757Y-92428611D01*
X53412601Y-92440473D01*
X53413389Y-92445053D01*
X53420602Y-92458079D01*
X53426157Y-92465751D01*
X53437514Y-92483805D01*
X53450777Y-92506551D01*
X53472952Y-92545957D01*
X53908143Y-92545957D01*
X53975616Y-92545889D01*
X54051011Y-92545644D01*
X54120624Y-92545235D01*
X54183136Y-92544682D01*
X54237230Y-92544000D01*
X54281585Y-92543206D01*
X54314885Y-92542318D01*
X54335810Y-92541353D01*
X54343041Y-92540328D01*
X54339702Y-92532500D01*
X54330282Y-92515484D01*
X54316959Y-92493416D01*
X54305009Y-92473498D01*
X54289758Y-92445992D01*
X54278906Y-92423986D01*
X54275966Y-92417634D01*
X54266853Y-92402068D01*
X54259954Y-92395839D01*
X54256144Y-92393230D01*
X54253263Y-92381270D01*
X54251953Y-92372618D01*
X54244991Y-92361589D01*
X54244448Y-92361220D01*
X54235590Y-92350478D01*
X54225961Y-92332999D01*
X54221729Y-92324315D01*
X54208881Y-92300479D01*
X54194346Y-92275744D01*
X54193988Y-92275164D01*
X54179554Y-92250938D01*
X54161891Y-92220189D01*
X54144739Y-92189426D01*
X54140081Y-92180918D01*
X54123068Y-92150041D01*
X54109042Y-92125101D01*
X54094633Y-92100172D01*
X54076476Y-92069332D01*
X54073007Y-92063424D01*
X54057866Y-92036965D01*
X54044670Y-92013037D01*
X54041889Y-92007879D01*
X54027728Y-91982278D01*
X54013183Y-91956743D01*
X54001473Y-91936161D01*
X53985427Y-91907319D01*
X53969364Y-91877931D01*
X53967675Y-91874820D01*
X53954324Y-91851101D01*
X53943564Y-91833414D01*
X53937589Y-91825390D01*
X53936519Y-91824395D01*
X53929240Y-91813287D01*
X53920127Y-91795366D01*
X53919150Y-91793264D01*
X53906123Y-91767749D01*
X53891870Y-91742825D01*
X53880469Y-91723578D01*
X53864957Y-91696334D01*
X53849158Y-91667766D01*
X53834139Y-91640686D01*
X53816484Y-91609870D01*
X53801778Y-91585201D01*
X53794967Y-91573888D01*
X53780684Y-91548588D01*
X53770162Y-91527946D01*
X53769467Y-91526455D01*
X53759737Y-91509270D01*
X53751133Y-91499356D01*
X53746844Y-91494671D01*
X53742861Y-91480300D01*
X53741817Y-91472441D01*
X53736195Y-91463855D01*
X53734392Y-91462632D01*
X53725820Y-91451623D01*
X53715554Y-91433687D01*
X53715306Y-91433199D01*
X53705922Y-91415524D01*
X53691125Y-91388562D01*
X53672899Y-91355894D01*
X53653225Y-91321099D01*
X53651497Y-91318063D01*
X53632393Y-91284486D01*
X53615295Y-91254394D01*
X53602011Y-91230974D01*
X53594351Y-91217411D01*
X53592576Y-91214262D01*
X53580802Y-91193750D01*
X53567645Y-91171236D01*
X53561010Y-91159926D01*
X53541705Y-91126555D01*
X53519479Y-91087678D01*
X53497374Y-91048631D01*
X53478433Y-91014751D01*
X53473015Y-91005064D01*
X53457426Y-90977899D01*
X53443636Y-90954704D01*
X53442389Y-90952650D01*
X53428022Y-90927117D01*
X53415476Y-90902163D01*
X53413385Y-90897723D01*
X53404409Y-90880870D01*
X53398034Y-90872139D01*
X53397691Y-90871873D01*
X53390555Y-90862345D01*
X53381264Y-90845868D01*
X53375285Y-90834289D01*
X53358056Y-90802275D01*
X53334146Y-90759189D01*
X53303216Y-90704427D01*
X53264927Y-90637382D01*
X53256248Y-90622161D01*
X53237978Y-90589506D01*
X53223286Y-90562396D01*
X53213498Y-90543306D01*
X53209941Y-90534712D01*
X53208503Y-90529750D01*
X53200099Y-90518021D01*
X53199686Y-90517587D01*
X53190952Y-90505495D01*
X53178090Y-90484657D01*
X53163728Y-90459314D01*
X53148724Y-90431978D01*
X53132517Y-90402910D01*
X53119761Y-90380502D01*
X53116431Y-90374735D01*
X53101438Y-90348213D01*
X53088273Y-90324208D01*
X53085417Y-90318920D01*
X53071173Y-90293369D01*
X53056468Y-90267913D01*
X53051812Y-90260035D01*
X53034809Y-90231068D01*
X53020784Y-90206659D01*
X53006372Y-90180884D01*
X52988205Y-90147819D01*
X52987714Y-90146924D01*
X52970490Y-90116063D01*
X52952871Y-90085419D01*
X52938598Y-90061501D01*
X52931788Y-90050188D01*
X52917504Y-90024888D01*
X52906983Y-90004246D01*
X52906288Y-90002755D01*
X52896557Y-89985570D01*
X52887953Y-89975656D01*
X52883664Y-89970971D01*
X52879681Y-89956601D01*
X52878638Y-89948741D01*
X52873015Y-89940155D01*
X52871277Y-89938997D01*
X52862690Y-89928118D01*
X52852374Y-89910311D01*
X52849467Y-89904703D01*
X52837384Y-89882038D01*
X52821553Y-89852915D01*
X52804622Y-89822222D01*
X52770845Y-89761475D01*
X52378476Y-89761370D01*
X51986106Y-89761264D01*
X51978928Y-89778153D01*
X51974245Y-89787845D01*
X51962801Y-89808846D01*
X51948862Y-89832571D01*
X51939491Y-89848509D01*
X51926415Y-89872673D01*
X51917962Y-89890741D01*
X51910626Y-89905178D01*
X51903913Y-89911383D01*
X51897390Y-89917306D01*
X51889861Y-89932024D01*
X51886369Y-89940118D01*
X51875175Y-89962440D01*
X51861691Y-89986442D01*
X51849073Y-90008170D01*
X51831906Y-90038711D01*
X51815350Y-90069007D01*
X51814423Y-90070729D01*
X51800370Y-90096174D01*
X51788193Y-90117075D01*
X51780437Y-90129054D01*
X51772777Y-90140587D01*
X51762691Y-90159078D01*
X51761404Y-90161697D01*
X51750509Y-90181987D01*
X51737579Y-90204113D01*
X51726222Y-90223365D01*
X51710746Y-90250606D01*
X51694962Y-90279172D01*
X51679937Y-90306246D01*
X51662253Y-90337065D01*
X51647506Y-90361737D01*
X51641059Y-90372485D01*
X51625954Y-90399836D01*
X51614310Y-90423661D01*
X51611369Y-90430014D01*
X51602255Y-90445579D01*
X51595355Y-90451808D01*
X51591546Y-90454417D01*
X51588665Y-90466377D01*
X51587355Y-90475029D01*
X51580393Y-90486058D01*
X51579850Y-90486427D01*
X51570992Y-90497169D01*
X51561363Y-90514648D01*
X51557131Y-90523332D01*
X51544282Y-90547168D01*
X51529748Y-90571903D01*
X51529390Y-90572483D01*
X51514956Y-90596709D01*
X51497293Y-90627458D01*
X51480141Y-90658221D01*
X51475482Y-90666729D01*
X51458470Y-90697606D01*
X51444443Y-90722546D01*
X51430035Y-90747475D01*
X51411878Y-90778315D01*
X51408409Y-90784223D01*
X51393268Y-90810682D01*
X51380072Y-90834610D01*
X51378280Y-90837944D01*
X51364156Y-90863603D01*
X51349743Y-90889027D01*
X51341438Y-90903392D01*
X51323366Y-90934733D01*
X51310711Y-90956890D01*
X51301915Y-90972635D01*
X51295419Y-90984743D01*
X51289666Y-90995987D01*
X51288989Y-90997322D01*
X51279767Y-91013501D01*
X51272971Y-91022257D01*
X51271905Y-91023253D01*
X51264637Y-91034361D01*
X51255529Y-91052281D01*
X51255159Y-91053083D01*
X51242639Y-91077935D01*
X51229478Y-91101069D01*
X51227939Y-91103553D01*
X51221304Y-91114404D01*
X51214112Y-91126524D01*
X51205008Y-91142279D01*
X51192633Y-91164035D01*
X51175632Y-91194155D01*
X51152648Y-91235005D01*
X51147644Y-91243885D01*
X51130305Y-91274377D01*
X51114459Y-91301876D01*
X51103015Y-91321323D01*
X51099489Y-91327228D01*
X51088287Y-91346656D01*
X51081152Y-91360023D01*
X51073511Y-91373540D01*
X51062029Y-91391206D01*
X51052296Y-91408597D01*
X51048239Y-91422480D01*
X51047616Y-91427706D01*
X51042114Y-91436333D01*
X51041169Y-91437047D01*
X51033548Y-91447241D01*
X51020985Y-91467025D01*
X51005187Y-91493494D01*
X50987861Y-91523739D01*
X50970714Y-91554856D01*
X50955452Y-91583935D01*
X50952266Y-91589960D01*
X50942136Y-91606227D01*
X50934810Y-91613973D01*
X50931240Y-91617496D01*
X50928144Y-91630419D01*
X50926938Y-91638394D01*
X50919873Y-91649474D01*
X50919330Y-91649843D01*
X50910471Y-91660585D01*
X50900843Y-91678064D01*
X50896611Y-91686748D01*
X50883762Y-91710585D01*
X50869228Y-91735319D01*
X50868870Y-91735899D01*
X50854436Y-91760125D01*
X50836773Y-91790874D01*
X50819621Y-91821637D01*
X50814962Y-91830145D01*
X50797950Y-91861022D01*
X50783923Y-91885962D01*
X50769515Y-91910891D01*
X50751358Y-91941731D01*
X50747889Y-91947639D01*
X50732748Y-91974098D01*
X50719552Y-91998026D01*
X50717760Y-92001360D01*
X50703636Y-92027019D01*
X50689223Y-92052443D01*
X50687487Y-92055444D01*
X50671842Y-92082495D01*
X50656664Y-92108738D01*
X50654622Y-92112282D01*
X50639833Y-92138501D01*
X50626335Y-92163156D01*
X50623479Y-92168443D01*
X50609234Y-92193994D01*
X50594529Y-92219450D01*
X50589874Y-92227328D01*
X50572870Y-92256295D01*
X50558846Y-92280704D01*
X50544434Y-92306479D01*
X50526266Y-92339545D01*
X50525776Y-92340440D01*
X50508552Y-92371300D01*
X50490933Y-92401944D01*
X50476659Y-92425862D01*
X50469849Y-92437175D01*
X50455565Y-92462475D01*
X50445044Y-92483117D01*
X50444349Y-92484608D01*
X50434619Y-92501793D01*
X50426014Y-92511707D01*
X50421562Y-92516765D01*
X50417743Y-92531388D01*
X50203824Y-92531388D01*
X50203824Y-89059462D01*
X50221460Y-88984403D01*
X50224308Y-88972481D01*
X50234597Y-88931758D01*
X50245962Y-88889583D01*
X50257473Y-88849162D01*
X50268198Y-88813701D01*
X50277207Y-88786406D01*
X50283568Y-88770484D01*
X50283584Y-88770453D01*
X50289361Y-88758069D01*
X50298888Y-88736514D01*
X50310110Y-88710437D01*
X50311258Y-88707761D01*
X50324326Y-88679524D01*
X50340461Y-88647518D01*
X50358050Y-88614619D01*
X50375477Y-88583698D01*
X50391128Y-88557630D01*
X50403388Y-88539288D01*
X50410643Y-88531546D01*
X50411998Y-88530936D01*
X50417743Y-88521843D01*
X50421421Y-88513058D01*
X50432647Y-88495224D01*
X50449152Y-88471899D01*
X50468623Y-88446222D01*
X50488749Y-88421334D01*
X50507217Y-88400372D01*
X50533385Y-88372794D01*
X50566110Y-88339094D01*
X50595060Y-88310158D01*
X50618630Y-88287552D01*
X50635219Y-88272840D01*
X50643222Y-88267588D01*
X50648985Y-88264440D01*
X50657932Y-88252576D01*
X50665015Y-88243524D01*
X50676961Y-88237565D01*
X50681883Y-88236844D01*
X50687955Y-88230800D01*
X50688808Y-88228383D01*
X50699109Y-88218386D01*
X50721587Y-88202612D01*
X50756872Y-88180604D01*
X50766170Y-88174583D01*
X50783604Y-88161839D01*
X50795697Y-88153062D01*
X50814708Y-88141158D01*
X50821141Y-88137537D01*
X50851055Y-88120728D01*
X50871393Y-88109380D01*
X50885123Y-88101847D01*
X50895216Y-88096480D01*
X50910241Y-88089197D01*
X50936805Y-88077154D01*
X50969224Y-88062990D01*
X51003204Y-88048610D01*
X51028048Y-88039101D01*
X51074156Y-88023868D01*
X51127084Y-88008493D01*
X51182056Y-87994337D01*
X51234296Y-87982760D01*
X51311517Y-87967352D01*
X54957227Y-87967895D01*
X55117934Y-87967920D01*
X55388810Y-87967964D01*
X55645279Y-87968010D01*
X55887727Y-87968060D01*
X56116540Y-87968116D01*
X56332102Y-87968179D01*
X56534801Y-87968250D01*
X56725021Y-87968332D01*
X56903148Y-87968424D01*
X57069567Y-87968530D01*
X57224665Y-87968649D01*
X57368827Y-87968785D01*
X57502439Y-87968938D01*
X57625885Y-87969109D01*
X57739553Y-87969301D01*
X57843827Y-87969515D01*
X57939093Y-87969751D01*
X58025737Y-87970013D01*
X58104145Y-87970300D01*
X58174701Y-87970615D01*
X58237792Y-87970960D01*
X58293803Y-87971334D01*
X58343121Y-87971741D01*
X58386130Y-87972182D01*
X58423216Y-87972657D01*
X58454765Y-87973169D01*
X58481162Y-87973718D01*
X58502794Y-87974307D01*
X58520045Y-87974937D01*
X58533302Y-87975610D01*
X58542950Y-87976326D01*
X58549374Y-87977087D01*
X58552961Y-87977896D01*
X58554095Y-87978752D01*
X58553164Y-87979659D01*
X58550551Y-87980616D01*
X58546643Y-87981626D01*
X58513796Y-87989190D01*
X58478114Y-87997183D01*
X58449066Y-88003468D01*
X58432233Y-88007137D01*
X58375787Y-88020945D01*
X58312828Y-88038167D01*
X58246884Y-88057696D01*
X58181485Y-88078426D01*
X58120160Y-88099251D01*
X58066438Y-88119065D01*
X58023848Y-88136760D01*
X58021965Y-88137605D01*
X58004263Y-88144617D01*
X57993101Y-88147494D01*
X57992956Y-88147496D01*
X57981498Y-88150650D01*
X57964212Y-88158004D01*
X57963536Y-88158328D01*
X57945176Y-88166815D01*
X57918799Y-88178635D01*
X57889876Y-88191337D01*
X57883001Y-88194348D01*
X57859492Y-88205008D01*
X57832754Y-88217737D01*
X57800782Y-88233535D01*
X57761574Y-88253400D01*
X57713128Y-88278334D01*
X57653440Y-88309334D01*
X57634243Y-88319743D01*
X57614474Y-88331466D01*
X57603414Y-88339321D01*
X57603307Y-88339424D01*
X57590309Y-88348201D01*
X57571514Y-88357394D01*
X57569695Y-88358168D01*
X57554566Y-88366527D01*
X57548357Y-88373582D01*
X57545830Y-88377304D01*
X57533971Y-88380177D01*
X57525670Y-88381156D01*
X57517083Y-88386113D01*
X57514505Y-88389307D01*
X57501952Y-88399637D01*
X57483236Y-88412894D01*
X57462884Y-88426077D01*
X57445427Y-88436187D01*
X57435392Y-88440224D01*
X57433963Y-88440349D01*
X57428263Y-88446348D01*
X57426889Y-88448948D01*
X57416150Y-88458063D01*
X57398239Y-88469346D01*
X57389328Y-88474672D01*
X57374198Y-88485688D01*
X57368215Y-88493246D01*
X57368060Y-88494702D01*
X57361053Y-88500271D01*
X57354154Y-88503239D01*
X57337999Y-88513421D01*
X57316635Y-88528358D01*
X57293576Y-88545434D01*
X57272336Y-88562035D01*
X57256430Y-88575547D01*
X57249372Y-88583355D01*
X57247563Y-88586088D01*
X57236501Y-88590342D01*
X57228594Y-88593412D01*
X57218097Y-88605354D01*
X57211014Y-88614406D01*
X57199068Y-88620366D01*
X57194154Y-88621024D01*
X57188074Y-88626561D01*
X57187176Y-88628445D01*
X57177769Y-88638590D01*
X57160298Y-88654439D01*
X57137479Y-88673473D01*
X57122344Y-88686396D01*
X57095054Y-88711282D01*
X57060349Y-88744055D01*
X57019890Y-88783052D01*
X56975336Y-88826614D01*
X56928348Y-88873081D01*
X56880586Y-88920793D01*
X56833710Y-88968088D01*
X56789381Y-89013308D01*
X56749258Y-89054791D01*
X56715002Y-89090878D01*
X56688273Y-89119908D01*
X56670732Y-89140221D01*
X56662991Y-89149703D01*
X56644914Y-89170733D01*
X56631018Y-89185342D01*
X56623820Y-89190815D01*
X56621050Y-89191982D01*
X56617624Y-89201810D01*
X56614568Y-89210076D01*
X56602613Y-89220839D01*
X56593544Y-89227812D01*
X56587601Y-89239242D01*
X56587041Y-89243497D01*
X56580614Y-89252113D01*
X56574695Y-89257159D01*
X56562011Y-89271742D01*
X56545770Y-89292287D01*
X56528586Y-89315279D01*
X56513076Y-89337203D01*
X56501852Y-89354547D01*
X56497530Y-89363794D01*
X56497377Y-89365279D01*
X56490504Y-89370957D01*
X56487656Y-89372315D01*
X56478082Y-89383050D01*
X56466604Y-89400981D01*
X56461288Y-89409941D01*
X56450613Y-89425037D01*
X56443606Y-89431004D01*
X56442378Y-89431149D01*
X56437483Y-89438134D01*
X56436351Y-89442086D01*
X56428817Y-89456503D01*
X56416752Y-89476014D01*
X56403156Y-89496091D01*
X56391029Y-89512204D01*
X56383371Y-89519824D01*
X56380116Y-89523568D01*
X56377435Y-89536713D01*
X56376277Y-89544832D01*
X56370840Y-89551099D01*
X56370292Y-89551170D01*
X56362940Y-89558517D01*
X56354653Y-89574256D01*
X56354540Y-89574526D01*
X56345266Y-89593301D01*
X56336407Y-89606156D01*
X56333683Y-89609191D01*
X56326969Y-89618757D01*
X56317752Y-89634673D01*
X56304691Y-89659328D01*
X56286442Y-89695110D01*
X56283376Y-89700955D01*
X56272858Y-89718216D01*
X56264902Y-89727454D01*
X56260814Y-89732308D01*
X56257341Y-89746696D01*
X56257334Y-89747294D01*
X56256768Y-89750435D01*
X56254427Y-89753067D01*
X56249110Y-89755233D01*
X56239611Y-89756980D01*
X56224729Y-89758353D01*
X56203259Y-89759396D01*
X56173997Y-89760155D01*
X56135742Y-89760675D01*
X56087288Y-89761000D01*
X56027432Y-89761177D01*
X55954972Y-89761250D01*
X55868703Y-89761264D01*
X55794908Y-89761306D01*
X55716957Y-89761489D01*
X55651971Y-89761842D01*
X55598820Y-89762395D01*
X55556376Y-89763176D01*
X55523511Y-89764215D01*
X55499095Y-89765539D01*
X55482001Y-89767177D01*
X55471099Y-89769159D01*
X55465261Y-89771512D01*
X55452610Y-89778823D01*
X55431691Y-89787559D01*
X55427847Y-89788869D01*
X55408978Y-89796366D01*
X55382501Y-89807756D01*
X55352878Y-89821139D01*
X55348796Y-89823024D01*
X55312752Y-89839485D01*
X55275341Y-89856304D01*
X55244043Y-89870116D01*
X55228883Y-89877053D01*
X55194931Y-89896238D01*
X55162785Y-89920870D01*
X55127487Y-89954542D01*
X55127064Y-89954973D01*
X55114344Y-89966611D01*
X55106540Y-89971430D01*
X55105606Y-89971522D01*
X55094365Y-89978985D01*
X55078967Y-89996161D01*
X55061966Y-90019866D01*
X55045920Y-90046918D01*
X55035623Y-90065763D01*
X55023583Y-90086536D01*
X55015471Y-90099030D01*
X55007860Y-90110541D01*
X54997854Y-90129054D01*
X54990449Y-90143856D01*
X54975863Y-90169109D01*
X54955366Y-90200360D01*
X54953319Y-90203489D01*
X54950116Y-90209507D01*
X54947456Y-90217194D01*
X54945279Y-90227884D01*
X54943523Y-90242910D01*
X54942128Y-90263608D01*
X54941031Y-90291311D01*
X54940174Y-90327354D01*
X54939493Y-90373071D01*
X54938927Y-90429796D01*
X54938417Y-90498865D01*
X54937900Y-90581611D01*
X54935747Y-90940344D01*
X54961136Y-90986930D01*
X54974713Y-91011630D01*
X54990951Y-91040738D01*
X55003922Y-91063540D01*
X55007672Y-91070068D01*
X55021525Y-91094921D01*
X55032780Y-91116081D01*
X55032820Y-91116158D01*
X55043787Y-91134934D01*
X55054072Y-91148517D01*
X55058997Y-91154889D01*
X55063901Y-91168786D01*
X55065035Y-91174093D01*
X55074424Y-91185138D01*
X55079803Y-91189068D01*
X55094965Y-91201551D01*
X55116249Y-91219779D01*
X55140717Y-91241176D01*
X55165434Y-91263167D01*
X55187462Y-91283179D01*
X55203866Y-91298636D01*
X55211034Y-91312774D01*
X55214019Y-91332865D01*
X55213772Y-91338493D01*
X55210485Y-91351141D01*
X55201734Y-91364873D01*
X55185460Y-91382485D01*
X55159601Y-91406775D01*
X55146782Y-91418391D01*
X55121172Y-91441222D01*
X55099192Y-91460354D01*
X55084542Y-91472544D01*
X55082546Y-91474146D01*
X55069314Y-91487167D01*
X55063901Y-91496960D01*
X55062147Y-91503615D01*
X55053722Y-91517056D01*
X55053392Y-91517449D01*
X55044571Y-91530399D01*
X55031667Y-91551966D01*
X55017350Y-91577695D01*
X55002573Y-91604936D01*
X54986496Y-91634056D01*
X54973812Y-91656507D01*
X54969720Y-91663623D01*
X54956586Y-91686841D01*
X54946429Y-91705295D01*
X54946315Y-91705513D01*
X54944107Y-91712596D01*
X54942232Y-91725159D01*
X54940666Y-91744260D01*
X54939386Y-91770960D01*
X54938366Y-91806316D01*
X54937584Y-91851389D01*
X54937015Y-91907236D01*
X54936635Y-91974918D01*
X54936420Y-92055493D01*
X54936347Y-92150020D01*
X54936304Y-92540328D01*
X54936300Y-92575981D01*
X55701903Y-92575981D01*
G37*
G36*
X62508972Y-92023683D02*
G01*
X62499547Y-92050031D01*
X62489998Y-92076838D01*
X62487958Y-92082515D01*
X62479423Y-92105157D01*
X62472557Y-92121873D01*
X62466564Y-92135741D01*
X62456888Y-92158790D01*
X62445781Y-92185673D01*
X62434958Y-92211742D01*
X62425739Y-92233346D01*
X62420157Y-92245721D01*
X62415765Y-92254464D01*
X62406893Y-92271991D01*
X62406364Y-92273041D01*
X62398964Y-92288349D01*
X62387781Y-92312074D01*
X62375019Y-92339545D01*
X62373386Y-92343023D01*
X62362306Y-92365169D01*
X62346581Y-92395147D01*
X62327513Y-92430616D01*
X62306406Y-92469235D01*
X62284562Y-92508664D01*
X62263286Y-92546562D01*
X62243882Y-92580588D01*
X62227651Y-92608402D01*
X62215898Y-92627662D01*
X62209926Y-92636028D01*
X62204526Y-92642910D01*
X62193469Y-92659230D01*
X62179504Y-92681063D01*
X62166627Y-92701337D01*
X62155452Y-92718217D01*
X62149625Y-92726099D01*
X62149561Y-92726160D01*
X62143372Y-92734140D01*
X62131420Y-92750940D01*
X62116231Y-92773011D01*
X62115590Y-92773953D01*
X62100231Y-92795257D01*
X62087708Y-92810404D01*
X62080679Y-92816170D01*
X62078983Y-92816469D01*
X62074421Y-92824131D01*
X62072081Y-92829033D01*
X62061772Y-92844182D01*
X62044879Y-92866927D01*
X62023194Y-92894989D01*
X61998511Y-92926090D01*
X61972620Y-92957950D01*
X61947316Y-92988292D01*
X61924390Y-93014837D01*
X61912998Y-93027309D01*
X61889674Y-93051833D01*
X61859736Y-93082585D01*
X61825084Y-93117680D01*
X61787620Y-93155232D01*
X61749242Y-93193356D01*
X61711852Y-93230167D01*
X61677350Y-93263779D01*
X61647635Y-93292307D01*
X61624609Y-93313867D01*
X61610172Y-93326572D01*
X61597255Y-93337086D01*
X61577941Y-93353262D01*
X61565136Y-93364563D01*
X61562795Y-93366706D01*
X61545872Y-93380809D01*
X61520179Y-93401031D01*
X61488535Y-93425267D01*
X61453757Y-93451412D01*
X61418663Y-93477361D01*
X61386072Y-93501009D01*
X61358800Y-93520252D01*
X61339665Y-93532984D01*
X61332808Y-93537512D01*
X61323830Y-93544632D01*
X61320468Y-93547695D01*
X61306528Y-93557929D01*
X61287163Y-93570744D01*
X61266811Y-93583351D01*
X61249908Y-93592961D01*
X61240889Y-93596784D01*
X61239445Y-93596921D01*
X61233759Y-93603380D01*
X61233688Y-93603927D01*
X61226341Y-93611280D01*
X61210602Y-93619567D01*
X61210439Y-93619635D01*
X61191480Y-93629078D01*
X61178277Y-93638327D01*
X61178255Y-93638349D01*
X61167241Y-93646444D01*
X61147256Y-93658819D01*
X61122612Y-93672805D01*
X61119298Y-93674608D01*
X61088206Y-93691546D01*
X61052037Y-93711264D01*
X61017954Y-93729858D01*
X61008385Y-93735062D01*
X60980078Y-93750250D01*
X60956169Y-93762794D01*
X60941029Y-93770390D01*
X60935762Y-93772861D01*
X60916026Y-93782147D01*
X60888845Y-93794956D01*
X60858464Y-93809287D01*
X60846562Y-93814880D01*
X60814255Y-93829855D01*
X60785238Y-93843036D01*
X60764640Y-93852086D01*
X60755359Y-93856043D01*
X60726892Y-93868418D01*
X60698762Y-93880898D01*
X60685530Y-93886477D01*
X60663877Y-93894051D01*
X60649599Y-93897021D01*
X60642368Y-93897826D01*
X60629158Y-93903602D01*
X60628017Y-93904443D01*
X60615479Y-93910620D01*
X60593670Y-93919713D01*
X60566624Y-93930192D01*
X60538378Y-93940528D01*
X60512967Y-93949192D01*
X60494427Y-93954655D01*
X60483211Y-93957675D01*
X60460799Y-93964155D01*
X60434380Y-93972094D01*
X60337158Y-94000052D01*
X60211914Y-94031434D01*
X60084651Y-94058614D01*
X59959177Y-94080861D01*
X59839298Y-94097443D01*
X59728824Y-94107629D01*
X59719822Y-94108137D01*
X59684794Y-94109416D01*
X59638452Y-94110398D01*
X59583539Y-94111056D01*
X59522799Y-94111365D01*
X59458975Y-94111298D01*
X59394811Y-94110828D01*
X59296223Y-94109004D01*
X59191074Y-94104819D01*
X59094836Y-94098097D01*
X59004275Y-94088484D01*
X58916155Y-94075629D01*
X58827239Y-94059177D01*
X58734291Y-94038776D01*
X58718401Y-94035078D01*
X58686849Y-94027805D01*
X58655479Y-94020640D01*
X58648007Y-94018909D01*
X58601318Y-94007067D01*
X58546124Y-93991758D01*
X58487046Y-93974370D01*
X58428705Y-93956293D01*
X58375724Y-93938916D01*
X58332725Y-93923629D01*
X58331427Y-93923139D01*
X58302706Y-93912447D01*
X58277259Y-93903228D01*
X58260457Y-93897432D01*
X58259868Y-93897241D01*
X58238654Y-93889526D01*
X58215422Y-93880003D01*
X58197580Y-93872272D01*
X58170315Y-93860585D01*
X58141324Y-93848251D01*
X58122777Y-93840042D01*
X58089917Y-93824739D01*
X58049749Y-93805495D01*
X58005256Y-93783787D01*
X57959421Y-93761095D01*
X57915227Y-93738899D01*
X57875657Y-93718677D01*
X57843695Y-93701908D01*
X57822323Y-93690073D01*
X57816583Y-93686696D01*
X57790049Y-93671112D01*
X57766029Y-93657033D01*
X57751014Y-93648196D01*
X57736054Y-93639178D01*
X57719355Y-93628796D01*
X57697292Y-93614792D01*
X57666239Y-93594908D01*
X57665669Y-93594543D01*
X57642843Y-93580534D01*
X57624792Y-93570560D01*
X57615380Y-93566761D01*
X57614082Y-93566654D01*
X57608404Y-93560637D01*
X57607031Y-93558037D01*
X57596291Y-93548922D01*
X57578381Y-93537639D01*
X57569470Y-93532313D01*
X57554340Y-93521297D01*
X57548357Y-93513739D01*
X57548207Y-93512305D01*
X57541230Y-93506714D01*
X57533299Y-93503157D01*
X57515182Y-93491410D01*
X57489283Y-93472953D01*
X57457591Y-93449333D01*
X57422097Y-93422096D01*
X57384788Y-93392790D01*
X57347655Y-93362961D01*
X57312687Y-93334158D01*
X57281873Y-93307927D01*
X57257202Y-93285816D01*
X57247182Y-93276388D01*
X57223204Y-93253445D01*
X57195048Y-93226147D01*
X57164583Y-93196344D01*
X57133678Y-93165887D01*
X57104201Y-93136629D01*
X57078022Y-93110420D01*
X57057008Y-93089112D01*
X57043030Y-93074557D01*
X57037955Y-93068605D01*
X57035687Y-93064910D01*
X57025419Y-93052919D01*
X57009674Y-93036312D01*
X56996736Y-93022467D01*
X56971411Y-92993346D01*
X56940681Y-92956386D01*
X56906581Y-92914173D01*
X56871147Y-92869294D01*
X56836413Y-92824335D01*
X56804414Y-92781882D01*
X56777184Y-92744523D01*
X56756760Y-92714843D01*
X56755963Y-92713625D01*
X56743670Y-92694847D01*
X56734242Y-92680460D01*
X56732802Y-92678257D01*
X56722610Y-92662518D01*
X56710017Y-92642930D01*
X56706916Y-92638116D01*
X56695262Y-92620470D01*
X56687499Y-92609375D01*
X56677991Y-92595210D01*
X56663588Y-92570556D01*
X56648546Y-92542204D01*
X56648194Y-92541509D01*
X56638472Y-92523792D01*
X56630807Y-92512180D01*
X56629591Y-92510593D01*
X56620976Y-92496538D01*
X56607625Y-92472359D01*
X56590707Y-92440399D01*
X56571394Y-92402999D01*
X56550858Y-92362501D01*
X56530268Y-92321248D01*
X56510796Y-92281579D01*
X56493613Y-92245838D01*
X56479890Y-92216367D01*
X56470797Y-92195506D01*
X56467506Y-92185597D01*
X56464384Y-92173885D01*
X56456349Y-92156808D01*
X56454625Y-92153677D01*
X56449648Y-92143855D01*
X56444227Y-92131549D01*
X56437637Y-92114801D01*
X56429153Y-92091654D01*
X56418053Y-92060151D01*
X56403611Y-92018335D01*
X56385104Y-91964249D01*
X56376018Y-91937531D01*
X56358031Y-91883680D01*
X56343831Y-91839355D01*
X56332445Y-91801359D01*
X56322899Y-91766495D01*
X56314218Y-91731566D01*
X56309054Y-91710701D01*
X56302822Y-91687550D01*
X56298383Y-91673395D01*
X56298184Y-91672822D01*
X56298197Y-91670443D01*
X56300435Y-91668385D01*
X56305882Y-91666625D01*
X56315521Y-91665141D01*
X56330337Y-91663910D01*
X56351312Y-91662911D01*
X56379430Y-91662119D01*
X56415675Y-91661512D01*
X56461030Y-91661068D01*
X56516480Y-91660765D01*
X56583006Y-91660578D01*
X56661594Y-91660487D01*
X56753226Y-91660468D01*
X56858887Y-91660498D01*
X56948022Y-91660564D01*
X57045712Y-91660725D01*
X57130035Y-91660991D01*
X57201902Y-91661376D01*
X57262222Y-91661898D01*
X57311907Y-91662571D01*
X57351866Y-91663413D01*
X57383010Y-91664440D01*
X57406250Y-91665666D01*
X57422495Y-91667109D01*
X57432657Y-91668784D01*
X57437645Y-91670708D01*
X57438884Y-91671773D01*
X57441444Y-91675339D01*
X57443610Y-91681373D01*
X57445414Y-91691015D01*
X57446890Y-91705406D01*
X57448069Y-91725686D01*
X57448985Y-91752996D01*
X57449670Y-91788475D01*
X57450157Y-91833265D01*
X57450479Y-91888505D01*
X57450668Y-91955335D01*
X57450758Y-92034897D01*
X57450780Y-92128330D01*
X57450780Y-92575981D01*
X58216383Y-92575981D01*
X58216383Y-92157849D01*
X58921939Y-92157849D01*
X58947108Y-92196155D01*
X58951071Y-92202186D01*
X58968877Y-92229272D01*
X58990079Y-92261516D01*
X59010909Y-92293184D01*
X59020191Y-92307429D01*
X59035335Y-92331348D01*
X59045843Y-92348881D01*
X59049859Y-92356984D01*
X59050197Y-92357895D01*
X59058592Y-92366756D01*
X59076572Y-92382047D01*
X59101903Y-92401996D01*
X59132351Y-92424832D01*
X59165682Y-92448785D01*
X59182545Y-92459759D01*
X59211735Y-92476003D01*
X59237296Y-92487339D01*
X59251473Y-92492470D01*
X59282223Y-92504073D01*
X59312246Y-92515868D01*
X59329034Y-92522552D01*
X59358947Y-92534146D01*
X59383552Y-92543326D01*
X59387533Y-92544778D01*
X59413964Y-92555086D01*
X59437228Y-92565057D01*
X59442621Y-92566973D01*
X59452759Y-92569047D01*
X59467723Y-92570789D01*
X59488644Y-92572226D01*
X59516654Y-92573383D01*
X59552885Y-92574289D01*
X59598469Y-92574970D01*
X59654537Y-92575452D01*
X59722221Y-92575764D01*
X59802653Y-92575931D01*
X59896965Y-92575981D01*
X60333050Y-92575981D01*
X60873475Y-92575981D01*
X61333212Y-92575317D01*
X61374783Y-92575254D01*
X61463916Y-92575073D01*
X61539691Y-92574827D01*
X61603274Y-92574482D01*
X61655830Y-92574004D01*
X61698526Y-92573359D01*
X61732526Y-92572515D01*
X61758998Y-92571439D01*
X61779106Y-92570095D01*
X61794017Y-92568452D01*
X61804895Y-92566476D01*
X61812908Y-92564134D01*
X61819220Y-92561391D01*
X61820638Y-92560680D01*
X61845824Y-92549119D01*
X61869885Y-92539537D01*
X61871407Y-92539000D01*
X61906734Y-92526455D01*
X61932481Y-92517018D01*
X61953111Y-92509011D01*
X61973091Y-92500758D01*
X61978783Y-92498411D01*
X62003092Y-92489364D01*
X62022925Y-92483302D01*
X62024407Y-92482887D01*
X62041079Y-92475012D01*
X62064210Y-92460734D01*
X62089269Y-92442816D01*
X62093198Y-92439806D01*
X62116722Y-92421991D01*
X62136125Y-92407629D01*
X62147534Y-92399592D01*
X62154668Y-92394334D01*
X62173362Y-92377346D01*
X62192827Y-92356774D01*
X62207513Y-92338291D01*
X62215377Y-92326563D01*
X62234370Y-92297848D01*
X62246410Y-92278783D01*
X62252730Y-92267358D01*
X62254563Y-92261562D01*
X62258406Y-92254080D01*
X62269575Y-92241968D01*
X62270506Y-92241108D01*
X62274542Y-92236531D01*
X62277723Y-92230172D01*
X62280152Y-92220378D01*
X62281929Y-92205495D01*
X62283156Y-92183869D01*
X62283934Y-92153847D01*
X62284364Y-92113774D01*
X62284548Y-92061997D01*
X62284587Y-91996862D01*
X62284587Y-91765342D01*
X61533996Y-91765342D01*
X61533758Y-91804748D01*
X61532758Y-91825239D01*
X61527302Y-91846968D01*
X61515354Y-91864796D01*
X61512857Y-91867555D01*
X61499151Y-91880269D01*
X61489584Y-91885437D01*
X61483279Y-91888565D01*
X61473948Y-91900449D01*
X61466975Y-91909518D01*
X61455545Y-91915461D01*
X61451316Y-91915906D01*
X61442674Y-91921090D01*
X61437436Y-91926785D01*
X61423091Y-91939192D01*
X61403287Y-91954867D01*
X61366402Y-91983014D01*
X60873475Y-91983014D01*
X60873475Y-92575981D01*
X60333050Y-92575981D01*
X60333050Y-91983628D01*
X60100892Y-91981445D01*
X60056552Y-91981002D01*
X59999726Y-91980292D01*
X59955213Y-91979453D01*
X59921375Y-91978383D01*
X59896578Y-91976978D01*
X59879185Y-91975136D01*
X59867560Y-91972753D01*
X59860068Y-91969726D01*
X59855073Y-91965953D01*
X59852267Y-91963297D01*
X59831621Y-91945759D01*
X59802077Y-91922771D01*
X59766651Y-91896696D01*
X59755548Y-91888706D01*
X59741191Y-91877434D01*
X59731000Y-91866249D01*
X59724261Y-91852633D01*
X59720262Y-91834071D01*
X59718288Y-91808047D01*
X59717627Y-91772044D01*
X59717565Y-91723546D01*
X59717565Y-91594510D01*
X59760324Y-91561708D01*
X59782341Y-91544833D01*
X59815271Y-91519627D01*
X59844765Y-91497085D01*
X59886448Y-91465264D01*
X60333050Y-91465106D01*
X60873475Y-91465106D01*
X61333212Y-91464255D01*
X61792949Y-91463405D01*
X61837985Y-91444990D01*
X61859698Y-91436005D01*
X61886781Y-91424537D01*
X61906672Y-91415817D01*
X61908629Y-91414937D01*
X61926148Y-91407932D01*
X61936979Y-91405059D01*
X61939392Y-91404587D01*
X61953515Y-91399863D01*
X61976406Y-91391146D01*
X62004480Y-91379780D01*
X62009307Y-91377735D01*
X62041731Y-91362248D01*
X62073638Y-91344445D01*
X62101723Y-91326422D01*
X62122684Y-91310275D01*
X62133217Y-91298099D01*
X62135010Y-91295911D01*
X62146089Y-91292470D01*
X62153995Y-91289401D01*
X62164492Y-91277458D01*
X62171575Y-91268406D01*
X62183521Y-91262446D01*
X62188449Y-91261685D01*
X62194516Y-91255317D01*
X62195647Y-91251365D01*
X62203181Y-91236948D01*
X62215247Y-91217436D01*
X62228842Y-91197360D01*
X62240969Y-91181247D01*
X62248627Y-91173626D01*
X62250333Y-91172543D01*
X62254730Y-91162368D01*
X62254730Y-91162348D01*
X62259170Y-91150651D01*
X62269575Y-91134846D01*
X62271602Y-91132083D01*
X62274223Y-91127366D01*
X62276456Y-91120866D01*
X62278332Y-91111483D01*
X62279883Y-91098113D01*
X62281140Y-91079655D01*
X62282136Y-91055004D01*
X62282901Y-91023060D01*
X62283467Y-90982719D01*
X62283866Y-90932879D01*
X62284129Y-90872437D01*
X62284288Y-90800292D01*
X62284374Y-90715339D01*
X62284420Y-90616477D01*
X62284428Y-90587127D01*
X62284429Y-90492116D01*
X62284363Y-90410721D01*
X62284200Y-90341851D01*
X62283914Y-90284418D01*
X62283474Y-90237330D01*
X62282854Y-90199499D01*
X62282025Y-90169834D01*
X62280958Y-90147246D01*
X62279625Y-90130646D01*
X62277999Y-90118943D01*
X62276050Y-90111048D01*
X62273751Y-90105871D01*
X62271072Y-90102322D01*
X62261376Y-90090657D01*
X62252186Y-90076513D01*
X62248684Y-90070088D01*
X62238096Y-90052704D01*
X62224366Y-90031477D01*
X62215970Y-90018422D01*
X62203989Y-89998133D01*
X62197341Y-89984565D01*
X62193772Y-89977530D01*
X62185628Y-89971430D01*
X62185186Y-89971381D01*
X62175238Y-89966139D01*
X62157620Y-89953938D01*
X62135839Y-89937189D01*
X62134832Y-89936382D01*
X62112184Y-89918220D01*
X62093203Y-89903031D01*
X62081908Y-89894030D01*
X62076839Y-89890542D01*
X62059126Y-89880414D01*
X62036872Y-89869241D01*
X62029488Y-89865807D01*
X62013123Y-89858549D01*
X61994353Y-89850834D01*
X61970245Y-89841515D01*
X61937865Y-89829445D01*
X61894279Y-89813477D01*
X61891012Y-89812257D01*
X61872287Y-89804211D01*
X61860878Y-89797591D01*
X61855506Y-89794463D01*
X61839938Y-89791288D01*
X61835973Y-89790885D01*
X61818101Y-89785643D01*
X61796702Y-89776276D01*
X61790792Y-89773441D01*
X61783590Y-89770734D01*
X61774568Y-89768460D01*
X61762525Y-89766583D01*
X61746263Y-89765064D01*
X61724583Y-89763864D01*
X61696285Y-89762948D01*
X61660171Y-89762276D01*
X61615041Y-89761811D01*
X61559695Y-89761515D01*
X61492935Y-89761351D01*
X61413562Y-89761280D01*
X61320376Y-89761264D01*
X60873475Y-89761264D01*
X60873475Y-90361737D01*
X61369878Y-90361737D01*
X61412531Y-90395978D01*
X61413131Y-90396459D01*
X61436208Y-90415011D01*
X61456045Y-90431000D01*
X61468405Y-90441013D01*
X61477361Y-90447601D01*
X61485870Y-90451808D01*
X61487443Y-90452401D01*
X61497439Y-90460065D01*
X61512055Y-90473748D01*
X61533996Y-90495689D01*
X61533996Y-90741730D01*
X61512944Y-90761899D01*
X61509208Y-90765360D01*
X61493956Y-90777261D01*
X61483545Y-90782068D01*
X61481289Y-90782309D01*
X61472697Y-90789055D01*
X61471560Y-90790760D01*
X61461229Y-90800644D01*
X61442772Y-90815929D01*
X61419187Y-90834091D01*
X61368179Y-90872139D01*
X60873475Y-90872139D01*
X60873475Y-91465106D01*
X60333050Y-91465106D01*
X60333050Y-90872139D01*
X59905414Y-90872139D01*
X59879500Y-90872140D01*
X59792065Y-90872178D01*
X59718074Y-90872297D01*
X59656291Y-90872535D01*
X59605481Y-90872930D01*
X59564406Y-90873520D01*
X59531832Y-90874344D01*
X59506522Y-90875440D01*
X59487240Y-90876845D01*
X59472751Y-90878598D01*
X59461818Y-90880738D01*
X59453205Y-90883301D01*
X59445677Y-90886327D01*
X59429236Y-90893305D01*
X59398932Y-90905426D01*
X59368540Y-90916915D01*
X59361136Y-90919620D01*
X59297456Y-90943865D01*
X59245185Y-90965950D01*
X59201476Y-90987250D01*
X59163481Y-91009143D01*
X59128351Y-91033005D01*
X59107807Y-91048244D01*
X59086717Y-91065111D01*
X59068856Y-91081807D01*
X59051988Y-91100912D01*
X59033878Y-91125008D01*
X59012290Y-91156675D01*
X58984987Y-91198495D01*
X58921939Y-91295921D01*
X58921939Y-92157849D01*
X58216383Y-92157849D01*
X58216383Y-90998902D01*
X57220647Y-91004276D01*
X56224912Y-91009651D01*
X56230064Y-90848947D01*
X56231039Y-90822346D01*
X56234401Y-90756630D01*
X56238896Y-90693308D01*
X56244199Y-90636585D01*
X56249985Y-90590667D01*
X56250222Y-90589101D01*
X56251666Y-90579409D01*
X58921939Y-90579409D01*
X59717565Y-90579409D01*
X59717565Y-90532402D01*
X59717965Y-90510100D01*
X59720421Y-90491996D01*
X59726486Y-90480366D01*
X59737700Y-90470478D01*
X59751240Y-90460147D01*
X59773430Y-90442728D01*
X59797241Y-90423661D01*
X59817647Y-90407613D01*
X59833352Y-90396138D01*
X59840907Y-90391761D01*
X59847911Y-90387671D01*
X59860178Y-90376749D01*
X59860759Y-90376174D01*
X59865709Y-90372045D01*
X59872274Y-90368787D01*
X59882129Y-90366298D01*
X59896948Y-90364475D01*
X59918406Y-90363215D01*
X59948178Y-90362414D01*
X59987938Y-90361969D01*
X60039360Y-90361778D01*
X60104120Y-90361737D01*
X60333050Y-90361737D01*
X60333050Y-89761264D01*
X59905414Y-89761264D01*
X59879500Y-89761266D01*
X59792065Y-89761304D01*
X59718074Y-89761422D01*
X59656291Y-89761660D01*
X59605481Y-89762055D01*
X59564406Y-89762646D01*
X59531832Y-89763469D01*
X59506522Y-89764565D01*
X59487240Y-89765970D01*
X59472751Y-89767724D01*
X59461818Y-89769863D01*
X59453205Y-89772426D01*
X59445677Y-89775452D01*
X59429236Y-89782430D01*
X59398932Y-89794551D01*
X59368540Y-89806040D01*
X59331083Y-89819916D01*
X59269228Y-89844268D01*
X59220165Y-89865859D01*
X59182712Y-89885226D01*
X59155692Y-89902906D01*
X59140926Y-89914125D01*
X59115019Y-89933574D01*
X59088945Y-89952943D01*
X59069747Y-89967827D01*
X59055131Y-89980643D01*
X59049539Y-89987651D01*
X59048674Y-89990465D01*
X59041883Y-90003427D01*
X59030683Y-90022022D01*
X59017903Y-90041659D01*
X59006368Y-90057748D01*
X59000529Y-90066194D01*
X58988926Y-90083988D01*
X58974609Y-90106536D01*
X58961593Y-90126806D01*
X58950132Y-90143689D01*
X58943950Y-90151572D01*
X58938571Y-90156918D01*
X58933190Y-90166434D01*
X58929079Y-90180742D01*
X58926078Y-90201545D01*
X58924025Y-90230545D01*
X58922758Y-90269447D01*
X58922117Y-90319951D01*
X58921939Y-90383761D01*
X58921939Y-90579409D01*
X56251666Y-90579409D01*
X56256229Y-90548790D01*
X56261767Y-90510578D01*
X56266231Y-90478712D01*
X56269013Y-90457438D01*
X56273272Y-90421784D01*
X58216383Y-90421784D01*
X58216383Y-89761078D01*
X57349450Y-89763048D01*
X57294073Y-89763170D01*
X57183306Y-89763392D01*
X57077266Y-89763574D01*
X56976886Y-89763717D01*
X56883104Y-89763821D01*
X56796852Y-89763885D01*
X56719067Y-89763909D01*
X56650684Y-89763893D01*
X56592638Y-89763837D01*
X56545862Y-89763741D01*
X56511294Y-89763603D01*
X56489867Y-89763426D01*
X56482517Y-89763207D01*
X56484864Y-89755968D01*
X56492531Y-89737931D01*
X56503997Y-89712733D01*
X56517677Y-89683727D01*
X56531987Y-89654267D01*
X56545342Y-89627705D01*
X56556158Y-89607393D01*
X56569178Y-89583781D01*
X56582777Y-89558265D01*
X56592077Y-89539840D01*
X56594800Y-89534285D01*
X56607118Y-89511258D01*
X56621045Y-89487299D01*
X56625936Y-89479211D01*
X56638460Y-89457882D01*
X56647132Y-89442263D01*
X56648860Y-89439020D01*
X56659182Y-89420995D01*
X56671912Y-89400014D01*
X56675578Y-89394114D01*
X56691623Y-89367853D01*
X56707201Y-89341843D01*
X56713447Y-89331829D01*
X56724517Y-89316818D01*
X56731595Y-89310910D01*
X56732823Y-89310765D01*
X56737719Y-89303780D01*
X56739880Y-89297770D01*
X56748741Y-89282095D01*
X56762113Y-89261837D01*
X56772062Y-89247480D01*
X56785599Y-89227423D01*
X56794013Y-89214273D01*
X56798668Y-89206972D01*
X56810991Y-89190540D01*
X56821751Y-89177365D01*
X56839150Y-89155014D01*
X56858619Y-89129295D01*
X56876578Y-89104884D01*
X56877020Y-89104273D01*
X56889793Y-89087361D01*
X56899726Y-89075425D01*
X56899802Y-89075343D01*
X56907751Y-89066217D01*
X56923053Y-89048161D01*
X56943534Y-89023752D01*
X56967023Y-88995568D01*
X56980787Y-88979296D01*
X57025941Y-88928706D01*
X57078726Y-88872777D01*
X57136152Y-88814507D01*
X57195227Y-88756891D01*
X57252960Y-88702926D01*
X57306359Y-88655611D01*
X57310818Y-88651807D01*
X57348759Y-88620225D01*
X57391498Y-88585768D01*
X57436319Y-88550525D01*
X57480509Y-88516585D01*
X57521352Y-88486036D01*
X57556132Y-88460968D01*
X57582134Y-88443468D01*
X57584481Y-88441981D01*
X57600029Y-88431485D01*
X57608404Y-88424726D01*
X57612080Y-88421613D01*
X57627461Y-88411164D01*
X57652288Y-88395479D01*
X57684261Y-88375921D01*
X57721081Y-88353853D01*
X57760447Y-88330637D01*
X57800060Y-88307635D01*
X57837620Y-88286210D01*
X57870828Y-88267724D01*
X57897382Y-88253540D01*
X57920429Y-88241568D01*
X57944664Y-88228789D01*
X57961182Y-88219861D01*
X57969715Y-88215318D01*
X57995176Y-88202692D01*
X58028808Y-88186742D01*
X58066870Y-88169201D01*
X58105622Y-88151804D01*
X58141324Y-88136288D01*
X58167485Y-88125129D01*
X58195187Y-88113235D01*
X58215422Y-88104465D01*
X58216172Y-88104137D01*
X58239527Y-88094604D01*
X58260457Y-88087036D01*
X58260958Y-88086874D01*
X58278269Y-88080879D01*
X58303983Y-88071551D01*
X58332725Y-88060838D01*
X58361852Y-88050228D01*
X58400288Y-88037019D01*
X58434055Y-88026176D01*
X58438331Y-88024876D01*
X58471311Y-88014754D01*
X58509910Y-88002792D01*
X58546643Y-87991309D01*
X58610444Y-87971250D01*
X60115378Y-87971177D01*
X60132778Y-87971177D01*
X60308640Y-87971174D01*
X60470187Y-87971187D01*
X60618057Y-87971221D01*
X60752886Y-87971280D01*
X60875312Y-87971371D01*
X60985971Y-87971500D01*
X61085500Y-87971670D01*
X61174536Y-87971889D01*
X61253717Y-87972160D01*
X61323679Y-87972491D01*
X61385060Y-87972886D01*
X61438496Y-87973351D01*
X61484624Y-87973891D01*
X61524081Y-87974512D01*
X61557504Y-87975219D01*
X61585531Y-87976018D01*
X61608798Y-87976913D01*
X61627942Y-87977912D01*
X61643600Y-87979018D01*
X61656409Y-87980238D01*
X61667007Y-87981576D01*
X61676029Y-87983040D01*
X61684114Y-87984633D01*
X61703324Y-87988797D01*
X61769673Y-88004997D01*
X61831674Y-88023570D01*
X61895033Y-88046356D01*
X61965458Y-88075190D01*
X61984832Y-88084035D01*
X62014095Y-88098599D01*
X62045890Y-88115366D01*
X62077022Y-88132562D01*
X62104293Y-88148413D01*
X62124508Y-88161144D01*
X62134468Y-88168983D01*
X62138271Y-88172614D01*
X62150485Y-88181270D01*
X62175746Y-88197444D01*
X62203104Y-88216356D01*
X62227046Y-88234218D01*
X62244478Y-88248711D01*
X62252305Y-88257518D01*
X62254537Y-88261658D01*
X62263406Y-88267588D01*
X62264711Y-88268013D01*
X62275008Y-88275767D01*
X62292176Y-88291303D01*
X62313673Y-88312043D01*
X62336958Y-88335404D01*
X62359492Y-88358806D01*
X62378733Y-88379669D01*
X62392141Y-88395413D01*
X62397175Y-88403456D01*
X62397290Y-88404683D01*
X62404079Y-88410201D01*
X62410919Y-88415578D01*
X62423716Y-88430147D01*
X62439851Y-88450516D01*
X62456797Y-88473288D01*
X62472029Y-88495065D01*
X62483021Y-88512451D01*
X62487246Y-88522049D01*
X62487378Y-88523434D01*
X62494346Y-88531546D01*
X62494834Y-88531781D01*
X62502700Y-88540793D01*
X62515400Y-88560098D01*
X62531318Y-88586822D01*
X62548840Y-88618091D01*
X62566350Y-88651032D01*
X62582235Y-88682772D01*
X62594878Y-88710437D01*
X62594939Y-88710580D01*
X62606137Y-88736642D01*
X62615599Y-88758159D01*
X62621281Y-88770484D01*
X62622984Y-88774310D01*
X62629873Y-88793334D01*
X62639147Y-88822007D01*
X62649737Y-88856764D01*
X62660574Y-88894040D01*
X62670587Y-88930269D01*
X62678707Y-88961885D01*
X62680519Y-88969787D01*
X62687243Y-89005349D01*
X62693413Y-89046459D01*
X62697886Y-89085732D01*
X62698344Y-89092345D01*
X62699321Y-89117621D01*
X62700210Y-89156223D01*
X62701013Y-89206983D01*
X62701730Y-89268732D01*
X62702361Y-89340300D01*
X62702907Y-89420519D01*
X62703367Y-89508220D01*
X62703742Y-89602233D01*
X62704032Y-89701390D01*
X62704238Y-89804522D01*
X62704360Y-89910459D01*
X62704397Y-90018033D01*
X62704352Y-90126074D01*
X62704223Y-90233414D01*
X62704011Y-90338883D01*
X62703716Y-90441313D01*
X62703521Y-90492116D01*
X62703339Y-90539534D01*
X62702880Y-90632378D01*
X62702340Y-90718675D01*
X62701717Y-90797257D01*
X62701014Y-90866954D01*
X62700230Y-90926597D01*
X62699365Y-90975018D01*
X62698419Y-91011048D01*
X62697394Y-91033516D01*
X62697391Y-91033554D01*
X62693952Y-91080125D01*
X62689995Y-91129250D01*
X62686010Y-91175084D01*
X62682486Y-91211782D01*
X62681572Y-91220612D01*
X62676995Y-91265466D01*
X62672189Y-91313319D01*
X62668055Y-91355207D01*
X62667401Y-91361754D01*
X62657002Y-91443051D01*
X62641652Y-91533881D01*
X62622021Y-91630236D01*
X62620299Y-91638124D01*
X62613219Y-91672013D01*
X62607187Y-91703010D01*
X62603356Y-91725244D01*
X62602348Y-91731125D01*
X62596089Y-91754050D01*
X62588272Y-91770280D01*
X62581964Y-91782325D01*
X62577632Y-91802872D01*
X62574750Y-91821268D01*
X62566346Y-91852974D01*
X62552629Y-91897206D01*
X62533811Y-91953288D01*
X62518448Y-91996862D01*
X62510099Y-92020543D01*
X62508972Y-92023683D01*
G37*
G36*
X55998736Y-90453685D02*
G01*
X55998082Y-90457890D01*
X55993583Y-90483063D01*
X55987180Y-90515541D01*
X55980033Y-90549385D01*
X55973118Y-90583261D01*
X55961825Y-90647723D01*
X55951190Y-90718765D01*
X55941917Y-90791155D01*
X55934712Y-90859660D01*
X55930276Y-90919051D01*
X55925600Y-91007245D01*
X55896418Y-91007245D01*
X55894953Y-91007237D01*
X55878619Y-91005397D01*
X55862545Y-90998984D01*
X55843054Y-90986036D01*
X55816470Y-90964593D01*
X55811522Y-90960416D01*
X55782946Y-90935648D01*
X55755249Y-90910745D01*
X55733803Y-90890522D01*
X55701903Y-90859102D01*
X55701903Y-90574081D01*
X55734803Y-90541092D01*
X55754593Y-90521500D01*
X55783998Y-90493410D01*
X55808417Y-90471365D01*
X55826053Y-90456964D01*
X55835108Y-90451808D01*
X55840801Y-90448494D01*
X55850280Y-90436796D01*
X55854081Y-90431743D01*
X55862004Y-90426510D01*
X55875451Y-90423496D01*
X55897582Y-90422115D01*
X55931557Y-90421784D01*
X56003459Y-90421784D01*
X55998736Y-90453685D01*
G37*
%TD*%
M02*
