%TF.GenerationSoftware,KiCad,Pcbnew,6.0.10-86aedd382b~118~ubuntu22.04.1*%
%TF.CreationDate,2023-04-05T16:54:16+05:30*%
%TF.ProjectId,Quadruped,51756164-7275-4706-9564-2e6b69636164,rev?*%
%TF.SameCoordinates,Original*%
%TF.FileFunction,Legend,Top*%
%TF.FilePolarity,Positive*%
%FSLAX46Y46*%
G04 Gerber Fmt 4.6, Leading zero omitted, Abs format (unit mm)*
G04 Created by KiCad (PCBNEW 6.0.10-86aedd382b~118~ubuntu22.04.1) date 2023-04-05 16:54:16*
%MOMM*%
%LPD*%
G01*
G04 APERTURE LIST*
%ADD10C,0.250000*%
%ADD11C,0.075000*%
%ADD12C,0.070000*%
%ADD13C,0.125000*%
%ADD14C,0.254000*%
%ADD15C,0.050000*%
%ADD16C,0.150000*%
%ADD17C,0.127000*%
%ADD18C,0.200000*%
%ADD19C,0.100000*%
%ADD20C,0.120000*%
G04 APERTURE END LIST*
D10*
X37917619Y-90645238D02*
X36917619Y-90978571D01*
X37917619Y-91311904D01*
X36917619Y-91645238D02*
X37917619Y-91645238D01*
X37203333Y-91978571D01*
X37917619Y-92311904D01*
X36917619Y-92311904D01*
X37870000Y-85788095D02*
X37917619Y-85692857D01*
X37917619Y-85550000D01*
X37870000Y-85407142D01*
X37774761Y-85311904D01*
X37679523Y-85264285D01*
X37489047Y-85216666D01*
X37346190Y-85216666D01*
X37155714Y-85264285D01*
X37060476Y-85311904D01*
X36965238Y-85407142D01*
X36917619Y-85550000D01*
X36917619Y-85645238D01*
X36965238Y-85788095D01*
X37012857Y-85835714D01*
X37346190Y-85835714D01*
X37346190Y-85645238D01*
X36917619Y-86264285D02*
X37917619Y-86264285D01*
X36917619Y-86835714D01*
X37917619Y-86835714D01*
X36917619Y-87311904D02*
X37917619Y-87311904D01*
X37917619Y-87550000D01*
X37870000Y-87692857D01*
X37774761Y-87788095D01*
X37679523Y-87835714D01*
X37489047Y-87883333D01*
X37346190Y-87883333D01*
X37155714Y-87835714D01*
X37060476Y-87788095D01*
X36965238Y-87692857D01*
X36917619Y-87550000D01*
X36917619Y-87311904D01*
D11*
%TO.C,IC2*%
X67831904Y-98816190D02*
X67831904Y-98316190D01*
X68355714Y-98768571D02*
X68331904Y-98792380D01*
X68260476Y-98816190D01*
X68212857Y-98816190D01*
X68141428Y-98792380D01*
X68093809Y-98744761D01*
X68070000Y-98697142D01*
X68046190Y-98601904D01*
X68046190Y-98530476D01*
X68070000Y-98435238D01*
X68093809Y-98387619D01*
X68141428Y-98340000D01*
X68212857Y-98316190D01*
X68260476Y-98316190D01*
X68331904Y-98340000D01*
X68355714Y-98363809D01*
X68546190Y-98363809D02*
X68570000Y-98340000D01*
X68617619Y-98316190D01*
X68736666Y-98316190D01*
X68784285Y-98340000D01*
X68808095Y-98363809D01*
X68831904Y-98411428D01*
X68831904Y-98459047D01*
X68808095Y-98530476D01*
X68522380Y-98816190D01*
X68831904Y-98816190D01*
%TO.C,D3*%
X82150952Y-94376190D02*
X82150952Y-93876190D01*
X82270000Y-93876190D01*
X82341428Y-93900000D01*
X82389047Y-93947619D01*
X82412857Y-93995238D01*
X82436666Y-94090476D01*
X82436666Y-94161904D01*
X82412857Y-94257142D01*
X82389047Y-94304761D01*
X82341428Y-94352380D01*
X82270000Y-94376190D01*
X82150952Y-94376190D01*
X82603333Y-93876190D02*
X82912857Y-93876190D01*
X82746190Y-94066666D01*
X82817619Y-94066666D01*
X82865238Y-94090476D01*
X82889047Y-94114285D01*
X82912857Y-94161904D01*
X82912857Y-94280952D01*
X82889047Y-94328571D01*
X82865238Y-94352380D01*
X82817619Y-94376190D01*
X82674761Y-94376190D01*
X82627142Y-94352380D01*
X82603333Y-94328571D01*
%TO.C,C1*%
X53908571Y-79223333D02*
X53932380Y-79247142D01*
X53956190Y-79318571D01*
X53956190Y-79366190D01*
X53932380Y-79437619D01*
X53884761Y-79485238D01*
X53837142Y-79509047D01*
X53741904Y-79532857D01*
X53670476Y-79532857D01*
X53575238Y-79509047D01*
X53527619Y-79485238D01*
X53480000Y-79437619D01*
X53456190Y-79366190D01*
X53456190Y-79318571D01*
X53480000Y-79247142D01*
X53503809Y-79223333D01*
X53956190Y-78747142D02*
X53956190Y-79032857D01*
X53956190Y-78890000D02*
X53456190Y-78890000D01*
X53527619Y-78937619D01*
X53575238Y-78985238D01*
X53599047Y-79032857D01*
%TO.C,D2*%
X76520952Y-94416190D02*
X76520952Y-93916190D01*
X76640000Y-93916190D01*
X76711428Y-93940000D01*
X76759047Y-93987619D01*
X76782857Y-94035238D01*
X76806666Y-94130476D01*
X76806666Y-94201904D01*
X76782857Y-94297142D01*
X76759047Y-94344761D01*
X76711428Y-94392380D01*
X76640000Y-94416190D01*
X76520952Y-94416190D01*
X76997142Y-93963809D02*
X77020952Y-93940000D01*
X77068571Y-93916190D01*
X77187619Y-93916190D01*
X77235238Y-93940000D01*
X77259047Y-93963809D01*
X77282857Y-94011428D01*
X77282857Y-94059047D01*
X77259047Y-94130476D01*
X76973333Y-94416190D01*
X77282857Y-94416190D01*
%TO.C,R1*%
X72920000Y-127095714D02*
X72820000Y-126952857D01*
X72748571Y-127095714D02*
X72748571Y-126795714D01*
X72862857Y-126795714D01*
X72891428Y-126810000D01*
X72905714Y-126824285D01*
X72920000Y-126852857D01*
X72920000Y-126895714D01*
X72905714Y-126924285D01*
X72891428Y-126938571D01*
X72862857Y-126952857D01*
X72748571Y-126952857D01*
X73205714Y-127095714D02*
X73034285Y-127095714D01*
X73120000Y-127095714D02*
X73120000Y-126795714D01*
X73091428Y-126838571D01*
X73062857Y-126867142D01*
X73034285Y-126881428D01*
%TO.C,R25*%
X71877142Y-129185714D02*
X71777142Y-129042857D01*
X71705714Y-129185714D02*
X71705714Y-128885714D01*
X71820000Y-128885714D01*
X71848571Y-128900000D01*
X71862857Y-128914285D01*
X71877142Y-128942857D01*
X71877142Y-128985714D01*
X71862857Y-129014285D01*
X71848571Y-129028571D01*
X71820000Y-129042857D01*
X71705714Y-129042857D01*
X71991428Y-128914285D02*
X72005714Y-128900000D01*
X72034285Y-128885714D01*
X72105714Y-128885714D01*
X72134285Y-128900000D01*
X72148571Y-128914285D01*
X72162857Y-128942857D01*
X72162857Y-128971428D01*
X72148571Y-129014285D01*
X71977142Y-129185714D01*
X72162857Y-129185714D01*
X72434285Y-128885714D02*
X72291428Y-128885714D01*
X72277142Y-129028571D01*
X72291428Y-129014285D01*
X72320000Y-129000000D01*
X72391428Y-129000000D01*
X72420000Y-129014285D01*
X72434285Y-129028571D01*
X72448571Y-129057142D01*
X72448571Y-129128571D01*
X72434285Y-129157142D01*
X72420000Y-129171428D01*
X72391428Y-129185714D01*
X72320000Y-129185714D01*
X72291428Y-129171428D01*
X72277142Y-129157142D01*
%TO.C,IC3*%
X57891904Y-107996190D02*
X57891904Y-107496190D01*
X58415714Y-107948571D02*
X58391904Y-107972380D01*
X58320476Y-107996190D01*
X58272857Y-107996190D01*
X58201428Y-107972380D01*
X58153809Y-107924761D01*
X58130000Y-107877142D01*
X58106190Y-107781904D01*
X58106190Y-107710476D01*
X58130000Y-107615238D01*
X58153809Y-107567619D01*
X58201428Y-107520000D01*
X58272857Y-107496190D01*
X58320476Y-107496190D01*
X58391904Y-107520000D01*
X58415714Y-107543809D01*
X58582380Y-107496190D02*
X58891904Y-107496190D01*
X58725238Y-107686666D01*
X58796666Y-107686666D01*
X58844285Y-107710476D01*
X58868095Y-107734285D01*
X58891904Y-107781904D01*
X58891904Y-107900952D01*
X58868095Y-107948571D01*
X58844285Y-107972380D01*
X58796666Y-107996190D01*
X58653809Y-107996190D01*
X58606190Y-107972380D01*
X58582380Y-107948571D01*
%TO.C,D5*%
X66200952Y-109956190D02*
X66200952Y-109456190D01*
X66320000Y-109456190D01*
X66391428Y-109480000D01*
X66439047Y-109527619D01*
X66462857Y-109575238D01*
X66486666Y-109670476D01*
X66486666Y-109741904D01*
X66462857Y-109837142D01*
X66439047Y-109884761D01*
X66391428Y-109932380D01*
X66320000Y-109956190D01*
X66200952Y-109956190D01*
X66939047Y-109456190D02*
X66700952Y-109456190D01*
X66677142Y-109694285D01*
X66700952Y-109670476D01*
X66748571Y-109646666D01*
X66867619Y-109646666D01*
X66915238Y-109670476D01*
X66939047Y-109694285D01*
X66962857Y-109741904D01*
X66962857Y-109860952D01*
X66939047Y-109908571D01*
X66915238Y-109932380D01*
X66867619Y-109956190D01*
X66748571Y-109956190D01*
X66700952Y-109932380D01*
X66677142Y-109908571D01*
D12*
%TO.C,SW2*%
X79843333Y-86732380D02*
X79914761Y-86756190D01*
X80033809Y-86756190D01*
X80081428Y-86732380D01*
X80105238Y-86708571D01*
X80129047Y-86660952D01*
X80129047Y-86613333D01*
X80105238Y-86565714D01*
X80081428Y-86541904D01*
X80033809Y-86518095D01*
X79938571Y-86494285D01*
X79890952Y-86470476D01*
X79867142Y-86446666D01*
X79843333Y-86399047D01*
X79843333Y-86351428D01*
X79867142Y-86303809D01*
X79890952Y-86280000D01*
X79938571Y-86256190D01*
X80057619Y-86256190D01*
X80129047Y-86280000D01*
X80295714Y-86256190D02*
X80414761Y-86756190D01*
X80510000Y-86399047D01*
X80605238Y-86756190D01*
X80724285Y-86256190D01*
X80890952Y-86303809D02*
X80914761Y-86280000D01*
X80962380Y-86256190D01*
X81081428Y-86256190D01*
X81129047Y-86280000D01*
X81152857Y-86303809D01*
X81176666Y-86351428D01*
X81176666Y-86399047D01*
X81152857Y-86470476D01*
X80867142Y-86756190D01*
X81176666Y-86756190D01*
D13*
%TO.C,R12*%
X75036190Y-97521428D02*
X74798095Y-97688095D01*
X75036190Y-97807142D02*
X74536190Y-97807142D01*
X74536190Y-97616666D01*
X74560000Y-97569047D01*
X74583809Y-97545238D01*
X74631428Y-97521428D01*
X74702857Y-97521428D01*
X74750476Y-97545238D01*
X74774285Y-97569047D01*
X74798095Y-97616666D01*
X74798095Y-97807142D01*
X75036190Y-97045238D02*
X75036190Y-97330952D01*
X75036190Y-97188095D02*
X74536190Y-97188095D01*
X74607619Y-97235714D01*
X74655238Y-97283333D01*
X74679047Y-97330952D01*
X74583809Y-96854761D02*
X74560000Y-96830952D01*
X74536190Y-96783333D01*
X74536190Y-96664285D01*
X74560000Y-96616666D01*
X74583809Y-96592857D01*
X74631428Y-96569047D01*
X74679047Y-96569047D01*
X74750476Y-96592857D01*
X75036190Y-96878571D01*
X75036190Y-96569047D01*
D14*
%TO.C,Q4*%
X40830967Y-100702416D02*
X40710015Y-100641940D01*
X40589062Y-100520987D01*
X40407634Y-100339559D01*
X40286681Y-100279082D01*
X40165729Y-100279082D01*
X40226205Y-100581463D02*
X40105253Y-100520987D01*
X39984300Y-100400035D01*
X39923824Y-100158130D01*
X39923824Y-99734797D01*
X39984300Y-99492892D01*
X40105253Y-99371940D01*
X40226205Y-99311463D01*
X40468110Y-99311463D01*
X40589062Y-99371940D01*
X40710015Y-99492892D01*
X40770491Y-99734797D01*
X40770491Y-100158130D01*
X40710015Y-100400035D01*
X40589062Y-100520987D01*
X40468110Y-100581463D01*
X40226205Y-100581463D01*
X41859062Y-99734797D02*
X41859062Y-100581463D01*
X41556681Y-99250987D02*
X41254300Y-100158130D01*
X42040491Y-100158130D01*
D11*
%TO.C,R17*%
X63566190Y-106841428D02*
X63328095Y-107008095D01*
X63566190Y-107127142D02*
X63066190Y-107127142D01*
X63066190Y-106936666D01*
X63090000Y-106889047D01*
X63113809Y-106865238D01*
X63161428Y-106841428D01*
X63232857Y-106841428D01*
X63280476Y-106865238D01*
X63304285Y-106889047D01*
X63328095Y-106936666D01*
X63328095Y-107127142D01*
X63566190Y-106365238D02*
X63566190Y-106650952D01*
X63566190Y-106508095D02*
X63066190Y-106508095D01*
X63137619Y-106555714D01*
X63185238Y-106603333D01*
X63209047Y-106650952D01*
X63066190Y-106198571D02*
X63066190Y-105865238D01*
X63566190Y-106079523D01*
%TO.C,R4*%
X84066190Y-92503333D02*
X83828095Y-92670000D01*
X84066190Y-92789047D02*
X83566190Y-92789047D01*
X83566190Y-92598571D01*
X83590000Y-92550952D01*
X83613809Y-92527142D01*
X83661428Y-92503333D01*
X83732857Y-92503333D01*
X83780476Y-92527142D01*
X83804285Y-92550952D01*
X83828095Y-92598571D01*
X83828095Y-92789047D01*
X83732857Y-92074761D02*
X84066190Y-92074761D01*
X83542380Y-92193809D02*
X83899523Y-92312857D01*
X83899523Y-92003333D01*
%TO.C,C30*%
X75637142Y-124932857D02*
X75651428Y-124947142D01*
X75665714Y-124990000D01*
X75665714Y-125018571D01*
X75651428Y-125061428D01*
X75622857Y-125090000D01*
X75594285Y-125104285D01*
X75537142Y-125118571D01*
X75494285Y-125118571D01*
X75437142Y-125104285D01*
X75408571Y-125090000D01*
X75380000Y-125061428D01*
X75365714Y-125018571D01*
X75365714Y-124990000D01*
X75380000Y-124947142D01*
X75394285Y-124932857D01*
X75365714Y-124832857D02*
X75365714Y-124647142D01*
X75480000Y-124747142D01*
X75480000Y-124704285D01*
X75494285Y-124675714D01*
X75508571Y-124661428D01*
X75537142Y-124647142D01*
X75608571Y-124647142D01*
X75637142Y-124661428D01*
X75651428Y-124675714D01*
X75665714Y-124704285D01*
X75665714Y-124790000D01*
X75651428Y-124818571D01*
X75637142Y-124832857D01*
X75365714Y-124461428D02*
X75365714Y-124432857D01*
X75380000Y-124404285D01*
X75394285Y-124390000D01*
X75422857Y-124375714D01*
X75480000Y-124361428D01*
X75551428Y-124361428D01*
X75608571Y-124375714D01*
X75637142Y-124390000D01*
X75651428Y-124404285D01*
X75665714Y-124432857D01*
X75665714Y-124461428D01*
X75651428Y-124490000D01*
X75637142Y-124504285D01*
X75608571Y-124518571D01*
X75551428Y-124532857D01*
X75480000Y-124532857D01*
X75422857Y-124518571D01*
X75394285Y-124504285D01*
X75380000Y-124490000D01*
X75365714Y-124461428D01*
D15*
%TO.C,D_Zener1*%
X58395714Y-125454285D02*
X58095714Y-125454285D01*
X58095714Y-125382857D01*
X58110000Y-125340000D01*
X58138571Y-125311428D01*
X58167142Y-125297142D01*
X58224285Y-125282857D01*
X58267142Y-125282857D01*
X58324285Y-125297142D01*
X58352857Y-125311428D01*
X58381428Y-125340000D01*
X58395714Y-125382857D01*
X58395714Y-125454285D01*
X58424285Y-125225714D02*
X58424285Y-124997142D01*
X58095714Y-124954285D02*
X58095714Y-124754285D01*
X58395714Y-124954285D01*
X58395714Y-124754285D01*
X58381428Y-124525714D02*
X58395714Y-124554285D01*
X58395714Y-124611428D01*
X58381428Y-124640000D01*
X58352857Y-124654285D01*
X58238571Y-124654285D01*
X58210000Y-124640000D01*
X58195714Y-124611428D01*
X58195714Y-124554285D01*
X58210000Y-124525714D01*
X58238571Y-124511428D01*
X58267142Y-124511428D01*
X58295714Y-124654285D01*
X58195714Y-124382857D02*
X58395714Y-124382857D01*
X58224285Y-124382857D02*
X58210000Y-124368571D01*
X58195714Y-124340000D01*
X58195714Y-124297142D01*
X58210000Y-124268571D01*
X58238571Y-124254285D01*
X58395714Y-124254285D01*
X58381428Y-123997142D02*
X58395714Y-124025714D01*
X58395714Y-124082857D01*
X58381428Y-124111428D01*
X58352857Y-124125714D01*
X58238571Y-124125714D01*
X58210000Y-124111428D01*
X58195714Y-124082857D01*
X58195714Y-124025714D01*
X58210000Y-123997142D01*
X58238571Y-123982857D01*
X58267142Y-123982857D01*
X58295714Y-124125714D01*
X58395714Y-123854285D02*
X58195714Y-123854285D01*
X58252857Y-123854285D02*
X58224285Y-123840000D01*
X58210000Y-123825714D01*
X58195714Y-123797142D01*
X58195714Y-123768571D01*
X58395714Y-123511428D02*
X58395714Y-123682857D01*
X58395714Y-123597142D02*
X58095714Y-123597142D01*
X58138571Y-123625714D01*
X58167142Y-123654285D01*
X58181428Y-123682857D01*
D16*
%TO.C,R14*%
X47795714Y-87371904D02*
X47529047Y-86990952D01*
X47338571Y-87371904D02*
X47338571Y-86571904D01*
X47643333Y-86571904D01*
X47719523Y-86610000D01*
X47757619Y-86648095D01*
X47795714Y-86724285D01*
X47795714Y-86838571D01*
X47757619Y-86914761D01*
X47719523Y-86952857D01*
X47643333Y-86990952D01*
X47338571Y-86990952D01*
X48557619Y-87371904D02*
X48100476Y-87371904D01*
X48329047Y-87371904D02*
X48329047Y-86571904D01*
X48252857Y-86686190D01*
X48176666Y-86762380D01*
X48100476Y-86800476D01*
X49243333Y-86838571D02*
X49243333Y-87371904D01*
X49052857Y-86533809D02*
X48862380Y-87105238D01*
X49357619Y-87105238D01*
D11*
%TO.C,R24*%
X75715714Y-123382857D02*
X75572857Y-123482857D01*
X75715714Y-123554285D02*
X75415714Y-123554285D01*
X75415714Y-123440000D01*
X75430000Y-123411428D01*
X75444285Y-123397142D01*
X75472857Y-123382857D01*
X75515714Y-123382857D01*
X75544285Y-123397142D01*
X75558571Y-123411428D01*
X75572857Y-123440000D01*
X75572857Y-123554285D01*
X75444285Y-123268571D02*
X75430000Y-123254285D01*
X75415714Y-123225714D01*
X75415714Y-123154285D01*
X75430000Y-123125714D01*
X75444285Y-123111428D01*
X75472857Y-123097142D01*
X75501428Y-123097142D01*
X75544285Y-123111428D01*
X75715714Y-123282857D01*
X75715714Y-123097142D01*
X75515714Y-122840000D02*
X75715714Y-122840000D01*
X75401428Y-122911428D02*
X75615714Y-122982857D01*
X75615714Y-122797142D01*
%TO.C,C10*%
X47418571Y-95461428D02*
X47442380Y-95485238D01*
X47466190Y-95556666D01*
X47466190Y-95604285D01*
X47442380Y-95675714D01*
X47394761Y-95723333D01*
X47347142Y-95747142D01*
X47251904Y-95770952D01*
X47180476Y-95770952D01*
X47085238Y-95747142D01*
X47037619Y-95723333D01*
X46990000Y-95675714D01*
X46966190Y-95604285D01*
X46966190Y-95556666D01*
X46990000Y-95485238D01*
X47013809Y-95461428D01*
X47466190Y-94985238D02*
X47466190Y-95270952D01*
X47466190Y-95128095D02*
X46966190Y-95128095D01*
X47037619Y-95175714D01*
X47085238Y-95223333D01*
X47109047Y-95270952D01*
X46966190Y-94675714D02*
X46966190Y-94628095D01*
X46990000Y-94580476D01*
X47013809Y-94556666D01*
X47061428Y-94532857D01*
X47156666Y-94509047D01*
X47275714Y-94509047D01*
X47370952Y-94532857D01*
X47418571Y-94556666D01*
X47442380Y-94580476D01*
X47466190Y-94628095D01*
X47466190Y-94675714D01*
X47442380Y-94723333D01*
X47418571Y-94747142D01*
X47370952Y-94770952D01*
X47275714Y-94794761D01*
X47156666Y-94794761D01*
X47061428Y-94770952D01*
X47013809Y-94747142D01*
X46990000Y-94723333D01*
X46966190Y-94675714D01*
D16*
%TO.C,C33*%
X48177142Y-129397142D02*
X48129523Y-129444761D01*
X47986666Y-129492380D01*
X47891428Y-129492380D01*
X47748571Y-129444761D01*
X47653333Y-129349523D01*
X47605714Y-129254285D01*
X47558095Y-129063809D01*
X47558095Y-128920952D01*
X47605714Y-128730476D01*
X47653333Y-128635238D01*
X47748571Y-128540000D01*
X47891428Y-128492380D01*
X47986666Y-128492380D01*
X48129523Y-128540000D01*
X48177142Y-128587619D01*
X48510476Y-128492380D02*
X49129523Y-128492380D01*
X48796190Y-128873333D01*
X48939047Y-128873333D01*
X49034285Y-128920952D01*
X49081904Y-128968571D01*
X49129523Y-129063809D01*
X49129523Y-129301904D01*
X49081904Y-129397142D01*
X49034285Y-129444761D01*
X48939047Y-129492380D01*
X48653333Y-129492380D01*
X48558095Y-129444761D01*
X48510476Y-129397142D01*
X49462857Y-128492380D02*
X50081904Y-128492380D01*
X49748571Y-128873333D01*
X49891428Y-128873333D01*
X49986666Y-128920952D01*
X50034285Y-128968571D01*
X50081904Y-129063809D01*
X50081904Y-129301904D01*
X50034285Y-129397142D01*
X49986666Y-129444761D01*
X49891428Y-129492380D01*
X49605714Y-129492380D01*
X49510476Y-129444761D01*
X49462857Y-129397142D01*
D11*
%TO.C,R9*%
X74216666Y-108206190D02*
X74050000Y-107968095D01*
X73930952Y-108206190D02*
X73930952Y-107706190D01*
X74121428Y-107706190D01*
X74169047Y-107730000D01*
X74192857Y-107753809D01*
X74216666Y-107801428D01*
X74216666Y-107872857D01*
X74192857Y-107920476D01*
X74169047Y-107944285D01*
X74121428Y-107968095D01*
X73930952Y-107968095D01*
X74454761Y-108206190D02*
X74550000Y-108206190D01*
X74597619Y-108182380D01*
X74621428Y-108158571D01*
X74669047Y-108087142D01*
X74692857Y-107991904D01*
X74692857Y-107801428D01*
X74669047Y-107753809D01*
X74645238Y-107730000D01*
X74597619Y-107706190D01*
X74502380Y-107706190D01*
X74454761Y-107730000D01*
X74430952Y-107753809D01*
X74407142Y-107801428D01*
X74407142Y-107920476D01*
X74430952Y-107968095D01*
X74454761Y-107991904D01*
X74502380Y-108015714D01*
X74597619Y-108015714D01*
X74645238Y-107991904D01*
X74669047Y-107968095D01*
X74692857Y-107920476D01*
%TO.C,C31*%
X68877142Y-124292857D02*
X68891428Y-124307142D01*
X68905714Y-124350000D01*
X68905714Y-124378571D01*
X68891428Y-124421428D01*
X68862857Y-124450000D01*
X68834285Y-124464285D01*
X68777142Y-124478571D01*
X68734285Y-124478571D01*
X68677142Y-124464285D01*
X68648571Y-124450000D01*
X68620000Y-124421428D01*
X68605714Y-124378571D01*
X68605714Y-124350000D01*
X68620000Y-124307142D01*
X68634285Y-124292857D01*
X68605714Y-124192857D02*
X68605714Y-124007142D01*
X68720000Y-124107142D01*
X68720000Y-124064285D01*
X68734285Y-124035714D01*
X68748571Y-124021428D01*
X68777142Y-124007142D01*
X68848571Y-124007142D01*
X68877142Y-124021428D01*
X68891428Y-124035714D01*
X68905714Y-124064285D01*
X68905714Y-124150000D01*
X68891428Y-124178571D01*
X68877142Y-124192857D01*
X68905714Y-123721428D02*
X68905714Y-123892857D01*
X68905714Y-123807142D02*
X68605714Y-123807142D01*
X68648571Y-123835714D01*
X68677142Y-123864285D01*
X68691428Y-123892857D01*
%TO.C,R21*%
X70298571Y-107396190D02*
X70131904Y-107158095D01*
X70012857Y-107396190D02*
X70012857Y-106896190D01*
X70203333Y-106896190D01*
X70250952Y-106920000D01*
X70274761Y-106943809D01*
X70298571Y-106991428D01*
X70298571Y-107062857D01*
X70274761Y-107110476D01*
X70250952Y-107134285D01*
X70203333Y-107158095D01*
X70012857Y-107158095D01*
X70489047Y-106943809D02*
X70512857Y-106920000D01*
X70560476Y-106896190D01*
X70679523Y-106896190D01*
X70727142Y-106920000D01*
X70750952Y-106943809D01*
X70774761Y-106991428D01*
X70774761Y-107039047D01*
X70750952Y-107110476D01*
X70465238Y-107396190D01*
X70774761Y-107396190D01*
X71250952Y-107396190D02*
X70965238Y-107396190D01*
X71108095Y-107396190D02*
X71108095Y-106896190D01*
X71060476Y-106967619D01*
X71012857Y-107015238D01*
X70965238Y-107039047D01*
%TO.C,R8*%
X72016666Y-107386190D02*
X71850000Y-107148095D01*
X71730952Y-107386190D02*
X71730952Y-106886190D01*
X71921428Y-106886190D01*
X71969047Y-106910000D01*
X71992857Y-106933809D01*
X72016666Y-106981428D01*
X72016666Y-107052857D01*
X71992857Y-107100476D01*
X71969047Y-107124285D01*
X71921428Y-107148095D01*
X71730952Y-107148095D01*
X72302380Y-107100476D02*
X72254761Y-107076666D01*
X72230952Y-107052857D01*
X72207142Y-107005238D01*
X72207142Y-106981428D01*
X72230952Y-106933809D01*
X72254761Y-106910000D01*
X72302380Y-106886190D01*
X72397619Y-106886190D01*
X72445238Y-106910000D01*
X72469047Y-106933809D01*
X72492857Y-106981428D01*
X72492857Y-107005238D01*
X72469047Y-107052857D01*
X72445238Y-107076666D01*
X72397619Y-107100476D01*
X72302380Y-107100476D01*
X72254761Y-107124285D01*
X72230952Y-107148095D01*
X72207142Y-107195714D01*
X72207142Y-107290952D01*
X72230952Y-107338571D01*
X72254761Y-107362380D01*
X72302380Y-107386190D01*
X72397619Y-107386190D01*
X72445238Y-107362380D01*
X72469047Y-107338571D01*
X72492857Y-107290952D01*
X72492857Y-107195714D01*
X72469047Y-107148095D01*
X72445238Y-107124285D01*
X72397619Y-107100476D01*
%TO.C,R3*%
X52616190Y-84593333D02*
X52378095Y-84760000D01*
X52616190Y-84879047D02*
X52116190Y-84879047D01*
X52116190Y-84688571D01*
X52140000Y-84640952D01*
X52163809Y-84617142D01*
X52211428Y-84593333D01*
X52282857Y-84593333D01*
X52330476Y-84617142D01*
X52354285Y-84640952D01*
X52378095Y-84688571D01*
X52378095Y-84879047D01*
X52116190Y-84426666D02*
X52116190Y-84117142D01*
X52306666Y-84283809D01*
X52306666Y-84212380D01*
X52330476Y-84164761D01*
X52354285Y-84140952D01*
X52401904Y-84117142D01*
X52520952Y-84117142D01*
X52568571Y-84140952D01*
X52592380Y-84164761D01*
X52616190Y-84212380D01*
X52616190Y-84355238D01*
X52592380Y-84402857D01*
X52568571Y-84426666D01*
%TO.C,T2*%
X77246190Y-93340952D02*
X77246190Y-93055238D01*
X77746190Y-93198095D02*
X77246190Y-93198095D01*
X77293809Y-92912380D02*
X77270000Y-92888571D01*
X77246190Y-92840952D01*
X77246190Y-92721904D01*
X77270000Y-92674285D01*
X77293809Y-92650476D01*
X77341428Y-92626666D01*
X77389047Y-92626666D01*
X77460476Y-92650476D01*
X77746190Y-92936190D01*
X77746190Y-92626666D01*
D13*
%TO.C,R7*%
X74506190Y-103543333D02*
X74268095Y-103710000D01*
X74506190Y-103829047D02*
X74006190Y-103829047D01*
X74006190Y-103638571D01*
X74030000Y-103590952D01*
X74053809Y-103567142D01*
X74101428Y-103543333D01*
X74172857Y-103543333D01*
X74220476Y-103567142D01*
X74244285Y-103590952D01*
X74268095Y-103638571D01*
X74268095Y-103829047D01*
X74006190Y-103376666D02*
X74006190Y-103043333D01*
X74506190Y-103257619D01*
D16*
%TO.C,C32*%
X47917142Y-77347142D02*
X47869523Y-77394761D01*
X47726666Y-77442380D01*
X47631428Y-77442380D01*
X47488571Y-77394761D01*
X47393333Y-77299523D01*
X47345714Y-77204285D01*
X47298095Y-77013809D01*
X47298095Y-76870952D01*
X47345714Y-76680476D01*
X47393333Y-76585238D01*
X47488571Y-76490000D01*
X47631428Y-76442380D01*
X47726666Y-76442380D01*
X47869523Y-76490000D01*
X47917142Y-76537619D01*
X48250476Y-76442380D02*
X48869523Y-76442380D01*
X48536190Y-76823333D01*
X48679047Y-76823333D01*
X48774285Y-76870952D01*
X48821904Y-76918571D01*
X48869523Y-77013809D01*
X48869523Y-77251904D01*
X48821904Y-77347142D01*
X48774285Y-77394761D01*
X48679047Y-77442380D01*
X48393333Y-77442380D01*
X48298095Y-77394761D01*
X48250476Y-77347142D01*
X49250476Y-76537619D02*
X49298095Y-76490000D01*
X49393333Y-76442380D01*
X49631428Y-76442380D01*
X49726666Y-76490000D01*
X49774285Y-76537619D01*
X49821904Y-76632857D01*
X49821904Y-76728095D01*
X49774285Y-76870952D01*
X49202857Y-77442380D01*
X49821904Y-77442380D01*
D11*
%TO.C,C5*%
X76428571Y-87503333D02*
X76452380Y-87527142D01*
X76476190Y-87598571D01*
X76476190Y-87646190D01*
X76452380Y-87717619D01*
X76404761Y-87765238D01*
X76357142Y-87789047D01*
X76261904Y-87812857D01*
X76190476Y-87812857D01*
X76095238Y-87789047D01*
X76047619Y-87765238D01*
X76000000Y-87717619D01*
X75976190Y-87646190D01*
X75976190Y-87598571D01*
X76000000Y-87527142D01*
X76023809Y-87503333D01*
X75976190Y-87050952D02*
X75976190Y-87289047D01*
X76214285Y-87312857D01*
X76190476Y-87289047D01*
X76166666Y-87241428D01*
X76166666Y-87122380D01*
X76190476Y-87074761D01*
X76214285Y-87050952D01*
X76261904Y-87027142D01*
X76380952Y-87027142D01*
X76428571Y-87050952D01*
X76452380Y-87074761D01*
X76476190Y-87122380D01*
X76476190Y-87241428D01*
X76452380Y-87289047D01*
X76428571Y-87312857D01*
D16*
%TO.C,C4*%
X82803333Y-122107142D02*
X82755714Y-122154761D01*
X82612857Y-122202380D01*
X82517619Y-122202380D01*
X82374761Y-122154761D01*
X82279523Y-122059523D01*
X82231904Y-121964285D01*
X82184285Y-121773809D01*
X82184285Y-121630952D01*
X82231904Y-121440476D01*
X82279523Y-121345238D01*
X82374761Y-121250000D01*
X82517619Y-121202380D01*
X82612857Y-121202380D01*
X82755714Y-121250000D01*
X82803333Y-121297619D01*
X83660476Y-121535714D02*
X83660476Y-122202380D01*
X83422380Y-121154761D02*
X83184285Y-121869047D01*
X83803333Y-121869047D01*
D11*
%TO.C,C18*%
X74077142Y-116557142D02*
X74062857Y-116571428D01*
X74020000Y-116585714D01*
X73991428Y-116585714D01*
X73948571Y-116571428D01*
X73920000Y-116542857D01*
X73905714Y-116514285D01*
X73891428Y-116457142D01*
X73891428Y-116414285D01*
X73905714Y-116357142D01*
X73920000Y-116328571D01*
X73948571Y-116300000D01*
X73991428Y-116285714D01*
X74020000Y-116285714D01*
X74062857Y-116300000D01*
X74077142Y-116314285D01*
X74362857Y-116585714D02*
X74191428Y-116585714D01*
X74277142Y-116585714D02*
X74277142Y-116285714D01*
X74248571Y-116328571D01*
X74220000Y-116357142D01*
X74191428Y-116371428D01*
X74534285Y-116414285D02*
X74505714Y-116400000D01*
X74491428Y-116385714D01*
X74477142Y-116357142D01*
X74477142Y-116342857D01*
X74491428Y-116314285D01*
X74505714Y-116300000D01*
X74534285Y-116285714D01*
X74591428Y-116285714D01*
X74620000Y-116300000D01*
X74634285Y-116314285D01*
X74648571Y-116342857D01*
X74648571Y-116357142D01*
X74634285Y-116385714D01*
X74620000Y-116400000D01*
X74591428Y-116414285D01*
X74534285Y-116414285D01*
X74505714Y-116428571D01*
X74491428Y-116442857D01*
X74477142Y-116471428D01*
X74477142Y-116528571D01*
X74491428Y-116557142D01*
X74505714Y-116571428D01*
X74534285Y-116585714D01*
X74591428Y-116585714D01*
X74620000Y-116571428D01*
X74634285Y-116557142D01*
X74648571Y-116528571D01*
X74648571Y-116471428D01*
X74634285Y-116442857D01*
X74620000Y-116428571D01*
X74591428Y-116414285D01*
D13*
%TO.C,IC1*%
X68381904Y-129476190D02*
X68381904Y-128976190D01*
X68905714Y-129428571D02*
X68881904Y-129452380D01*
X68810476Y-129476190D01*
X68762857Y-129476190D01*
X68691428Y-129452380D01*
X68643809Y-129404761D01*
X68620000Y-129357142D01*
X68596190Y-129261904D01*
X68596190Y-129190476D01*
X68620000Y-129095238D01*
X68643809Y-129047619D01*
X68691428Y-129000000D01*
X68762857Y-128976190D01*
X68810476Y-128976190D01*
X68881904Y-129000000D01*
X68905714Y-129023809D01*
X69381904Y-129476190D02*
X69096190Y-129476190D01*
X69239047Y-129476190D02*
X69239047Y-128976190D01*
X69191428Y-129047619D01*
X69143809Y-129095238D01*
X69096190Y-129119047D01*
D11*
%TO.C,C13*%
X51158571Y-109461428D02*
X51182380Y-109485238D01*
X51206190Y-109556666D01*
X51206190Y-109604285D01*
X51182380Y-109675714D01*
X51134761Y-109723333D01*
X51087142Y-109747142D01*
X50991904Y-109770952D01*
X50920476Y-109770952D01*
X50825238Y-109747142D01*
X50777619Y-109723333D01*
X50730000Y-109675714D01*
X50706190Y-109604285D01*
X50706190Y-109556666D01*
X50730000Y-109485238D01*
X50753809Y-109461428D01*
X51206190Y-108985238D02*
X51206190Y-109270952D01*
X51206190Y-109128095D02*
X50706190Y-109128095D01*
X50777619Y-109175714D01*
X50825238Y-109223333D01*
X50849047Y-109270952D01*
X50706190Y-108818571D02*
X50706190Y-108509047D01*
X50896666Y-108675714D01*
X50896666Y-108604285D01*
X50920476Y-108556666D01*
X50944285Y-108532857D01*
X50991904Y-108509047D01*
X51110952Y-108509047D01*
X51158571Y-108532857D01*
X51182380Y-108556666D01*
X51206190Y-108604285D01*
X51206190Y-108747142D01*
X51182380Y-108794761D01*
X51158571Y-108818571D01*
%TO.C,C17*%
X55228571Y-96958571D02*
X55204761Y-96982380D01*
X55133333Y-97006190D01*
X55085714Y-97006190D01*
X55014285Y-96982380D01*
X54966666Y-96934761D01*
X54942857Y-96887142D01*
X54919047Y-96791904D01*
X54919047Y-96720476D01*
X54942857Y-96625238D01*
X54966666Y-96577619D01*
X55014285Y-96530000D01*
X55085714Y-96506190D01*
X55133333Y-96506190D01*
X55204761Y-96530000D01*
X55228571Y-96553809D01*
X55704761Y-97006190D02*
X55419047Y-97006190D01*
X55561904Y-97006190D02*
X55561904Y-96506190D01*
X55514285Y-96577619D01*
X55466666Y-96625238D01*
X55419047Y-96649047D01*
X55871428Y-96506190D02*
X56204761Y-96506190D01*
X55990476Y-97006190D01*
%TO.C,C12*%
X47427142Y-107872857D02*
X47441428Y-107887142D01*
X47455714Y-107930000D01*
X47455714Y-107958571D01*
X47441428Y-108001428D01*
X47412857Y-108030000D01*
X47384285Y-108044285D01*
X47327142Y-108058571D01*
X47284285Y-108058571D01*
X47227142Y-108044285D01*
X47198571Y-108030000D01*
X47170000Y-108001428D01*
X47155714Y-107958571D01*
X47155714Y-107930000D01*
X47170000Y-107887142D01*
X47184285Y-107872857D01*
X47455714Y-107587142D02*
X47455714Y-107758571D01*
X47455714Y-107672857D02*
X47155714Y-107672857D01*
X47198571Y-107701428D01*
X47227142Y-107730000D01*
X47241428Y-107758571D01*
X47184285Y-107472857D02*
X47170000Y-107458571D01*
X47155714Y-107430000D01*
X47155714Y-107358571D01*
X47170000Y-107330000D01*
X47184285Y-107315714D01*
X47212857Y-107301428D01*
X47241428Y-107301428D01*
X47284285Y-107315714D01*
X47455714Y-107487142D01*
X47455714Y-107301428D01*
%TO.C,C23*%
X63398571Y-98218571D02*
X63374761Y-98242380D01*
X63303333Y-98266190D01*
X63255714Y-98266190D01*
X63184285Y-98242380D01*
X63136666Y-98194761D01*
X63112857Y-98147142D01*
X63089047Y-98051904D01*
X63089047Y-97980476D01*
X63112857Y-97885238D01*
X63136666Y-97837619D01*
X63184285Y-97790000D01*
X63255714Y-97766190D01*
X63303333Y-97766190D01*
X63374761Y-97790000D01*
X63398571Y-97813809D01*
X63589047Y-97813809D02*
X63612857Y-97790000D01*
X63660476Y-97766190D01*
X63779523Y-97766190D01*
X63827142Y-97790000D01*
X63850952Y-97813809D01*
X63874761Y-97861428D01*
X63874761Y-97909047D01*
X63850952Y-97980476D01*
X63565238Y-98266190D01*
X63874761Y-98266190D01*
X64041428Y-97766190D02*
X64350952Y-97766190D01*
X64184285Y-97956666D01*
X64255714Y-97956666D01*
X64303333Y-97980476D01*
X64327142Y-98004285D01*
X64350952Y-98051904D01*
X64350952Y-98170952D01*
X64327142Y-98218571D01*
X64303333Y-98242380D01*
X64255714Y-98266190D01*
X64112857Y-98266190D01*
X64065238Y-98242380D01*
X64041428Y-98218571D01*
%TO.C,C21*%
X52868571Y-97421428D02*
X52892380Y-97445238D01*
X52916190Y-97516666D01*
X52916190Y-97564285D01*
X52892380Y-97635714D01*
X52844761Y-97683333D01*
X52797142Y-97707142D01*
X52701904Y-97730952D01*
X52630476Y-97730952D01*
X52535238Y-97707142D01*
X52487619Y-97683333D01*
X52440000Y-97635714D01*
X52416190Y-97564285D01*
X52416190Y-97516666D01*
X52440000Y-97445238D01*
X52463809Y-97421428D01*
X52463809Y-97230952D02*
X52440000Y-97207142D01*
X52416190Y-97159523D01*
X52416190Y-97040476D01*
X52440000Y-96992857D01*
X52463809Y-96969047D01*
X52511428Y-96945238D01*
X52559047Y-96945238D01*
X52630476Y-96969047D01*
X52916190Y-97254761D01*
X52916190Y-96945238D01*
X52916190Y-96469047D02*
X52916190Y-96754761D01*
X52916190Y-96611904D02*
X52416190Y-96611904D01*
X52487619Y-96659523D01*
X52535238Y-96707142D01*
X52559047Y-96754761D01*
%TO.C,U1*%
X55325714Y-86568571D02*
X55568571Y-86568571D01*
X55597142Y-86554285D01*
X55611428Y-86540000D01*
X55625714Y-86511428D01*
X55625714Y-86454285D01*
X55611428Y-86425714D01*
X55597142Y-86411428D01*
X55568571Y-86397142D01*
X55325714Y-86397142D01*
X55625714Y-86097142D02*
X55625714Y-86268571D01*
X55625714Y-86182857D02*
X55325714Y-86182857D01*
X55368571Y-86211428D01*
X55397142Y-86240000D01*
X55411428Y-86268571D01*
%TO.C,C19*%
X64938571Y-107938571D02*
X64914761Y-107962380D01*
X64843333Y-107986190D01*
X64795714Y-107986190D01*
X64724285Y-107962380D01*
X64676666Y-107914761D01*
X64652857Y-107867142D01*
X64629047Y-107771904D01*
X64629047Y-107700476D01*
X64652857Y-107605238D01*
X64676666Y-107557619D01*
X64724285Y-107510000D01*
X64795714Y-107486190D01*
X64843333Y-107486190D01*
X64914761Y-107510000D01*
X64938571Y-107533809D01*
X65414761Y-107986190D02*
X65129047Y-107986190D01*
X65271904Y-107986190D02*
X65271904Y-107486190D01*
X65224285Y-107557619D01*
X65176666Y-107605238D01*
X65129047Y-107629047D01*
X65652857Y-107986190D02*
X65748095Y-107986190D01*
X65795714Y-107962380D01*
X65819523Y-107938571D01*
X65867142Y-107867142D01*
X65890952Y-107771904D01*
X65890952Y-107581428D01*
X65867142Y-107533809D01*
X65843333Y-107510000D01*
X65795714Y-107486190D01*
X65700476Y-107486190D01*
X65652857Y-107510000D01*
X65629047Y-107533809D01*
X65605238Y-107581428D01*
X65605238Y-107700476D01*
X65629047Y-107748095D01*
X65652857Y-107771904D01*
X65700476Y-107795714D01*
X65795714Y-107795714D01*
X65843333Y-107771904D01*
X65867142Y-107748095D01*
X65890952Y-107700476D01*
D14*
%TO.C,Q3*%
X42886182Y-106838536D02*
X42765230Y-106778060D01*
X42644277Y-106657107D01*
X42462849Y-106475679D01*
X42341896Y-106415202D01*
X42220944Y-106415202D01*
X42281420Y-106717583D02*
X42160468Y-106657107D01*
X42039515Y-106536155D01*
X41979039Y-106294250D01*
X41979039Y-105870917D01*
X42039515Y-105629012D01*
X42160468Y-105508060D01*
X42281420Y-105447583D01*
X42523325Y-105447583D01*
X42644277Y-105508060D01*
X42765230Y-105629012D01*
X42825706Y-105870917D01*
X42825706Y-106294250D01*
X42765230Y-106536155D01*
X42644277Y-106657107D01*
X42523325Y-106717583D01*
X42281420Y-106717583D01*
X43249039Y-105447583D02*
X44035230Y-105447583D01*
X43611896Y-105931393D01*
X43793325Y-105931393D01*
X43914277Y-105991869D01*
X43974754Y-106052345D01*
X44035230Y-106173298D01*
X44035230Y-106475679D01*
X43974754Y-106596631D01*
X43914277Y-106657107D01*
X43793325Y-106717583D01*
X43430468Y-106717583D01*
X43309515Y-106657107D01*
X43249039Y-106596631D01*
D11*
%TO.C,C14*%
X47378571Y-120121428D02*
X47402380Y-120145238D01*
X47426190Y-120216666D01*
X47426190Y-120264285D01*
X47402380Y-120335714D01*
X47354761Y-120383333D01*
X47307142Y-120407142D01*
X47211904Y-120430952D01*
X47140476Y-120430952D01*
X47045238Y-120407142D01*
X46997619Y-120383333D01*
X46950000Y-120335714D01*
X46926190Y-120264285D01*
X46926190Y-120216666D01*
X46950000Y-120145238D01*
X46973809Y-120121428D01*
X47426190Y-119645238D02*
X47426190Y-119930952D01*
X47426190Y-119788095D02*
X46926190Y-119788095D01*
X46997619Y-119835714D01*
X47045238Y-119883333D01*
X47069047Y-119930952D01*
X47092857Y-119216666D02*
X47426190Y-119216666D01*
X46902380Y-119335714D02*
X47259523Y-119454761D01*
X47259523Y-119145238D01*
%TO.C,T1*%
X50536190Y-82920952D02*
X50536190Y-82635238D01*
X51036190Y-82778095D02*
X50536190Y-82778095D01*
X51036190Y-82206666D02*
X51036190Y-82492380D01*
X51036190Y-82349523D02*
X50536190Y-82349523D01*
X50607619Y-82397142D01*
X50655238Y-82444761D01*
X50679047Y-82492380D01*
D14*
%TO.C,Q2*%
X40886912Y-88502416D02*
X40765960Y-88441940D01*
X40645007Y-88320987D01*
X40463579Y-88139559D01*
X40342626Y-88079082D01*
X40221674Y-88079082D01*
X40282150Y-88381463D02*
X40161198Y-88320987D01*
X40040245Y-88200035D01*
X39979769Y-87958130D01*
X39979769Y-87534797D01*
X40040245Y-87292892D01*
X40161198Y-87171940D01*
X40282150Y-87111463D01*
X40524055Y-87111463D01*
X40645007Y-87171940D01*
X40765960Y-87292892D01*
X40826436Y-87534797D01*
X40826436Y-87958130D01*
X40765960Y-88200035D01*
X40645007Y-88320987D01*
X40524055Y-88381463D01*
X40282150Y-88381463D01*
X41310245Y-87232416D02*
X41370722Y-87171940D01*
X41491674Y-87111463D01*
X41794055Y-87111463D01*
X41915007Y-87171940D01*
X41975484Y-87232416D01*
X42035960Y-87353368D01*
X42035960Y-87474320D01*
X41975484Y-87655749D01*
X41249769Y-88381463D01*
X42035960Y-88381463D01*
D11*
%TO.C,R10*%
X54306190Y-119851428D02*
X54068095Y-120018095D01*
X54306190Y-120137142D02*
X53806190Y-120137142D01*
X53806190Y-119946666D01*
X53830000Y-119899047D01*
X53853809Y-119875238D01*
X53901428Y-119851428D01*
X53972857Y-119851428D01*
X54020476Y-119875238D01*
X54044285Y-119899047D01*
X54068095Y-119946666D01*
X54068095Y-120137142D01*
X54306190Y-119375238D02*
X54306190Y-119660952D01*
X54306190Y-119518095D02*
X53806190Y-119518095D01*
X53877619Y-119565714D01*
X53925238Y-119613333D01*
X53949047Y-119660952D01*
X53806190Y-119065714D02*
X53806190Y-119018095D01*
X53830000Y-118970476D01*
X53853809Y-118946666D01*
X53901428Y-118922857D01*
X53996666Y-118899047D01*
X54115714Y-118899047D01*
X54210952Y-118922857D01*
X54258571Y-118946666D01*
X54282380Y-118970476D01*
X54306190Y-119018095D01*
X54306190Y-119065714D01*
X54282380Y-119113333D01*
X54258571Y-119137142D01*
X54210952Y-119160952D01*
X54115714Y-119184761D01*
X53996666Y-119184761D01*
X53901428Y-119160952D01*
X53853809Y-119137142D01*
X53830000Y-119113333D01*
X53806190Y-119065714D01*
%TO.C,R20*%
X66277142Y-129185714D02*
X66177142Y-129042857D01*
X66105714Y-129185714D02*
X66105714Y-128885714D01*
X66220000Y-128885714D01*
X66248571Y-128900000D01*
X66262857Y-128914285D01*
X66277142Y-128942857D01*
X66277142Y-128985714D01*
X66262857Y-129014285D01*
X66248571Y-129028571D01*
X66220000Y-129042857D01*
X66105714Y-129042857D01*
X66391428Y-128914285D02*
X66405714Y-128900000D01*
X66434285Y-128885714D01*
X66505714Y-128885714D01*
X66534285Y-128900000D01*
X66548571Y-128914285D01*
X66562857Y-128942857D01*
X66562857Y-128971428D01*
X66548571Y-129014285D01*
X66377142Y-129185714D01*
X66562857Y-129185714D01*
X66748571Y-128885714D02*
X66777142Y-128885714D01*
X66805714Y-128900000D01*
X66820000Y-128914285D01*
X66834285Y-128942857D01*
X66848571Y-129000000D01*
X66848571Y-129071428D01*
X66834285Y-129128571D01*
X66820000Y-129157142D01*
X66805714Y-129171428D01*
X66777142Y-129185714D01*
X66748571Y-129185714D01*
X66720000Y-129171428D01*
X66705714Y-129157142D01*
X66691428Y-129128571D01*
X66677142Y-129071428D01*
X66677142Y-129000000D01*
X66691428Y-128942857D01*
X66705714Y-128914285D01*
X66720000Y-128900000D01*
X66748571Y-128885714D01*
%TO.C,C2*%
X55768571Y-79263333D02*
X55792380Y-79287142D01*
X55816190Y-79358571D01*
X55816190Y-79406190D01*
X55792380Y-79477619D01*
X55744761Y-79525238D01*
X55697142Y-79549047D01*
X55601904Y-79572857D01*
X55530476Y-79572857D01*
X55435238Y-79549047D01*
X55387619Y-79525238D01*
X55340000Y-79477619D01*
X55316190Y-79406190D01*
X55316190Y-79358571D01*
X55340000Y-79287142D01*
X55363809Y-79263333D01*
X55363809Y-79072857D02*
X55340000Y-79049047D01*
X55316190Y-79001428D01*
X55316190Y-78882380D01*
X55340000Y-78834761D01*
X55363809Y-78810952D01*
X55411428Y-78787142D01*
X55459047Y-78787142D01*
X55530476Y-78810952D01*
X55816190Y-79096666D01*
X55816190Y-78787142D01*
%TO.C,C16*%
X64877142Y-123857142D02*
X64862857Y-123871428D01*
X64820000Y-123885714D01*
X64791428Y-123885714D01*
X64748571Y-123871428D01*
X64720000Y-123842857D01*
X64705714Y-123814285D01*
X64691428Y-123757142D01*
X64691428Y-123714285D01*
X64705714Y-123657142D01*
X64720000Y-123628571D01*
X64748571Y-123600000D01*
X64791428Y-123585714D01*
X64820000Y-123585714D01*
X64862857Y-123600000D01*
X64877142Y-123614285D01*
X65162857Y-123885714D02*
X64991428Y-123885714D01*
X65077142Y-123885714D02*
X65077142Y-123585714D01*
X65048571Y-123628571D01*
X65020000Y-123657142D01*
X64991428Y-123671428D01*
X65420000Y-123585714D02*
X65362857Y-123585714D01*
X65334285Y-123600000D01*
X65320000Y-123614285D01*
X65291428Y-123657142D01*
X65277142Y-123714285D01*
X65277142Y-123828571D01*
X65291428Y-123857142D01*
X65305714Y-123871428D01*
X65334285Y-123885714D01*
X65391428Y-123885714D01*
X65420000Y-123871428D01*
X65434285Y-123857142D01*
X65448571Y-123828571D01*
X65448571Y-123757142D01*
X65434285Y-123728571D01*
X65420000Y-123714285D01*
X65391428Y-123700000D01*
X65334285Y-123700000D01*
X65305714Y-123714285D01*
X65291428Y-123728571D01*
X65277142Y-123757142D01*
%TO.C,R13*%
X57136190Y-128371428D02*
X56898095Y-128538095D01*
X57136190Y-128657142D02*
X56636190Y-128657142D01*
X56636190Y-128466666D01*
X56660000Y-128419047D01*
X56683809Y-128395238D01*
X56731428Y-128371428D01*
X56802857Y-128371428D01*
X56850476Y-128395238D01*
X56874285Y-128419047D01*
X56898095Y-128466666D01*
X56898095Y-128657142D01*
X57136190Y-127895238D02*
X57136190Y-128180952D01*
X57136190Y-128038095D02*
X56636190Y-128038095D01*
X56707619Y-128085714D01*
X56755238Y-128133333D01*
X56779047Y-128180952D01*
X56636190Y-127728571D02*
X56636190Y-127419047D01*
X56826666Y-127585714D01*
X56826666Y-127514285D01*
X56850476Y-127466666D01*
X56874285Y-127442857D01*
X56921904Y-127419047D01*
X57040952Y-127419047D01*
X57088571Y-127442857D01*
X57112380Y-127466666D01*
X57136190Y-127514285D01*
X57136190Y-127657142D01*
X57112380Y-127704761D01*
X57088571Y-127728571D01*
%TO.C,C15*%
X48218571Y-123351428D02*
X48242380Y-123375238D01*
X48266190Y-123446666D01*
X48266190Y-123494285D01*
X48242380Y-123565714D01*
X48194761Y-123613333D01*
X48147142Y-123637142D01*
X48051904Y-123660952D01*
X47980476Y-123660952D01*
X47885238Y-123637142D01*
X47837619Y-123613333D01*
X47790000Y-123565714D01*
X47766190Y-123494285D01*
X47766190Y-123446666D01*
X47790000Y-123375238D01*
X47813809Y-123351428D01*
X48266190Y-122875238D02*
X48266190Y-123160952D01*
X48266190Y-123018095D02*
X47766190Y-123018095D01*
X47837619Y-123065714D01*
X47885238Y-123113333D01*
X47909047Y-123160952D01*
X47766190Y-122422857D02*
X47766190Y-122660952D01*
X48004285Y-122684761D01*
X47980476Y-122660952D01*
X47956666Y-122613333D01*
X47956666Y-122494285D01*
X47980476Y-122446666D01*
X48004285Y-122422857D01*
X48051904Y-122399047D01*
X48170952Y-122399047D01*
X48218571Y-122422857D01*
X48242380Y-122446666D01*
X48266190Y-122494285D01*
X48266190Y-122613333D01*
X48242380Y-122660952D01*
X48218571Y-122684761D01*
D12*
%TO.C,SW1*%
X79833333Y-90242380D02*
X79904761Y-90266190D01*
X80023809Y-90266190D01*
X80071428Y-90242380D01*
X80095238Y-90218571D01*
X80119047Y-90170952D01*
X80119047Y-90123333D01*
X80095238Y-90075714D01*
X80071428Y-90051904D01*
X80023809Y-90028095D01*
X79928571Y-90004285D01*
X79880952Y-89980476D01*
X79857142Y-89956666D01*
X79833333Y-89909047D01*
X79833333Y-89861428D01*
X79857142Y-89813809D01*
X79880952Y-89790000D01*
X79928571Y-89766190D01*
X80047619Y-89766190D01*
X80119047Y-89790000D01*
X80285714Y-89766190D02*
X80404761Y-90266190D01*
X80500000Y-89909047D01*
X80595238Y-90266190D01*
X80714285Y-89766190D01*
X81166666Y-90266190D02*
X80880952Y-90266190D01*
X81023809Y-90266190D02*
X81023809Y-89766190D01*
X80976190Y-89837619D01*
X80928571Y-89885238D01*
X80880952Y-89909047D01*
D11*
%TO.C,C22*%
X52898571Y-104981428D02*
X52922380Y-105005238D01*
X52946190Y-105076666D01*
X52946190Y-105124285D01*
X52922380Y-105195714D01*
X52874761Y-105243333D01*
X52827142Y-105267142D01*
X52731904Y-105290952D01*
X52660476Y-105290952D01*
X52565238Y-105267142D01*
X52517619Y-105243333D01*
X52470000Y-105195714D01*
X52446190Y-105124285D01*
X52446190Y-105076666D01*
X52470000Y-105005238D01*
X52493809Y-104981428D01*
X52493809Y-104790952D02*
X52470000Y-104767142D01*
X52446190Y-104719523D01*
X52446190Y-104600476D01*
X52470000Y-104552857D01*
X52493809Y-104529047D01*
X52541428Y-104505238D01*
X52589047Y-104505238D01*
X52660476Y-104529047D01*
X52946190Y-104814761D01*
X52946190Y-104505238D01*
X52493809Y-104314761D02*
X52470000Y-104290952D01*
X52446190Y-104243333D01*
X52446190Y-104124285D01*
X52470000Y-104076666D01*
X52493809Y-104052857D01*
X52541428Y-104029047D01*
X52589047Y-104029047D01*
X52660476Y-104052857D01*
X52946190Y-104338571D01*
X52946190Y-104029047D01*
D14*
%TO.C,Q5*%
X42867127Y-119138536D02*
X42746175Y-119078060D01*
X42625222Y-118957107D01*
X42443794Y-118775679D01*
X42322841Y-118715202D01*
X42201889Y-118715202D01*
X42262365Y-119017583D02*
X42141413Y-118957107D01*
X42020460Y-118836155D01*
X41959984Y-118594250D01*
X41959984Y-118170917D01*
X42020460Y-117929012D01*
X42141413Y-117808060D01*
X42262365Y-117747583D01*
X42504270Y-117747583D01*
X42625222Y-117808060D01*
X42746175Y-117929012D01*
X42806651Y-118170917D01*
X42806651Y-118594250D01*
X42746175Y-118836155D01*
X42625222Y-118957107D01*
X42504270Y-119017583D01*
X42262365Y-119017583D01*
X43955699Y-117747583D02*
X43350937Y-117747583D01*
X43290460Y-118352345D01*
X43350937Y-118291869D01*
X43471889Y-118231393D01*
X43774270Y-118231393D01*
X43895222Y-118291869D01*
X43955699Y-118352345D01*
X44016175Y-118473298D01*
X44016175Y-118775679D01*
X43955699Y-118896631D01*
X43895222Y-118957107D01*
X43774270Y-119017583D01*
X43471889Y-119017583D01*
X43350937Y-118957107D01*
X43290460Y-118896631D01*
D11*
%TO.C,C7*%
X69036666Y-106748571D02*
X69012857Y-106772380D01*
X68941428Y-106796190D01*
X68893809Y-106796190D01*
X68822380Y-106772380D01*
X68774761Y-106724761D01*
X68750952Y-106677142D01*
X68727142Y-106581904D01*
X68727142Y-106510476D01*
X68750952Y-106415238D01*
X68774761Y-106367619D01*
X68822380Y-106320000D01*
X68893809Y-106296190D01*
X68941428Y-106296190D01*
X69012857Y-106320000D01*
X69036666Y-106343809D01*
X69203333Y-106296190D02*
X69536666Y-106296190D01*
X69322380Y-106796190D01*
D14*
%TO.C,Q1*%
X42863072Y-94588536D02*
X42742120Y-94528060D01*
X42621167Y-94407107D01*
X42439739Y-94225679D01*
X42318786Y-94165202D01*
X42197834Y-94165202D01*
X42258310Y-94467583D02*
X42137358Y-94407107D01*
X42016405Y-94286155D01*
X41955929Y-94044250D01*
X41955929Y-93620917D01*
X42016405Y-93379012D01*
X42137358Y-93258060D01*
X42258310Y-93197583D01*
X42500215Y-93197583D01*
X42621167Y-93258060D01*
X42742120Y-93379012D01*
X42802596Y-93620917D01*
X42802596Y-94044250D01*
X42742120Y-94286155D01*
X42621167Y-94407107D01*
X42500215Y-94467583D01*
X42258310Y-94467583D01*
X44012120Y-94467583D02*
X43286405Y-94467583D01*
X43649263Y-94467583D02*
X43649263Y-93197583D01*
X43528310Y-93379012D01*
X43407358Y-93499964D01*
X43286405Y-93560440D01*
D11*
%TO.C,D6*%
X49510952Y-85426190D02*
X49510952Y-84926190D01*
X49630000Y-84926190D01*
X49701428Y-84950000D01*
X49749047Y-84997619D01*
X49772857Y-85045238D01*
X49796666Y-85140476D01*
X49796666Y-85211904D01*
X49772857Y-85307142D01*
X49749047Y-85354761D01*
X49701428Y-85402380D01*
X49630000Y-85426190D01*
X49510952Y-85426190D01*
X50225238Y-84926190D02*
X50130000Y-84926190D01*
X50082380Y-84950000D01*
X50058571Y-84973809D01*
X50010952Y-85045238D01*
X49987142Y-85140476D01*
X49987142Y-85330952D01*
X50010952Y-85378571D01*
X50034761Y-85402380D01*
X50082380Y-85426190D01*
X50177619Y-85426190D01*
X50225238Y-85402380D01*
X50249047Y-85378571D01*
X50272857Y-85330952D01*
X50272857Y-85211904D01*
X50249047Y-85164285D01*
X50225238Y-85140476D01*
X50177619Y-85116666D01*
X50082380Y-85116666D01*
X50034761Y-85140476D01*
X50010952Y-85164285D01*
X49987142Y-85211904D01*
%TO.C,C9*%
X52278571Y-121483333D02*
X52302380Y-121507142D01*
X52326190Y-121578571D01*
X52326190Y-121626190D01*
X52302380Y-121697619D01*
X52254761Y-121745238D01*
X52207142Y-121769047D01*
X52111904Y-121792857D01*
X52040476Y-121792857D01*
X51945238Y-121769047D01*
X51897619Y-121745238D01*
X51850000Y-121697619D01*
X51826190Y-121626190D01*
X51826190Y-121578571D01*
X51850000Y-121507142D01*
X51873809Y-121483333D01*
X52326190Y-121245238D02*
X52326190Y-121150000D01*
X52302380Y-121102380D01*
X52278571Y-121078571D01*
X52207142Y-121030952D01*
X52111904Y-121007142D01*
X51921428Y-121007142D01*
X51873809Y-121030952D01*
X51850000Y-121054761D01*
X51826190Y-121102380D01*
X51826190Y-121197619D01*
X51850000Y-121245238D01*
X51873809Y-121269047D01*
X51921428Y-121292857D01*
X52040476Y-121292857D01*
X52088095Y-121269047D01*
X52111904Y-121245238D01*
X52135714Y-121197619D01*
X52135714Y-121102380D01*
X52111904Y-121054761D01*
X52088095Y-121030952D01*
X52040476Y-121007142D01*
%TO.C,C29*%
X65077142Y-125127857D02*
X65091428Y-125142142D01*
X65105714Y-125185000D01*
X65105714Y-125213571D01*
X65091428Y-125256428D01*
X65062857Y-125285000D01*
X65034285Y-125299285D01*
X64977142Y-125313571D01*
X64934285Y-125313571D01*
X64877142Y-125299285D01*
X64848571Y-125285000D01*
X64820000Y-125256428D01*
X64805714Y-125213571D01*
X64805714Y-125185000D01*
X64820000Y-125142142D01*
X64834285Y-125127857D01*
X64834285Y-125013571D02*
X64820000Y-124999285D01*
X64805714Y-124970714D01*
X64805714Y-124899285D01*
X64820000Y-124870714D01*
X64834285Y-124856428D01*
X64862857Y-124842142D01*
X64891428Y-124842142D01*
X64934285Y-124856428D01*
X65105714Y-125027857D01*
X65105714Y-124842142D01*
X65105714Y-124699285D02*
X65105714Y-124642142D01*
X65091428Y-124613571D01*
X65077142Y-124599285D01*
X65034285Y-124570714D01*
X64977142Y-124556428D01*
X64862857Y-124556428D01*
X64834285Y-124570714D01*
X64820000Y-124585000D01*
X64805714Y-124613571D01*
X64805714Y-124670714D01*
X64820000Y-124699285D01*
X64834285Y-124713571D01*
X64862857Y-124727857D01*
X64934285Y-124727857D01*
X64962857Y-124713571D01*
X64977142Y-124699285D01*
X64991428Y-124670714D01*
X64991428Y-124613571D01*
X64977142Y-124585000D01*
X64962857Y-124570714D01*
X64934285Y-124556428D01*
%TO.C,R2*%
X74470000Y-127095714D02*
X74370000Y-126952857D01*
X74298571Y-127095714D02*
X74298571Y-126795714D01*
X74412857Y-126795714D01*
X74441428Y-126810000D01*
X74455714Y-126824285D01*
X74470000Y-126852857D01*
X74470000Y-126895714D01*
X74455714Y-126924285D01*
X74441428Y-126938571D01*
X74412857Y-126952857D01*
X74298571Y-126952857D01*
X74584285Y-126824285D02*
X74598571Y-126810000D01*
X74627142Y-126795714D01*
X74698571Y-126795714D01*
X74727142Y-126810000D01*
X74741428Y-126824285D01*
X74755714Y-126852857D01*
X74755714Y-126881428D01*
X74741428Y-126924285D01*
X74570000Y-127095714D01*
X74755714Y-127095714D01*
%TO.C,C3*%
X75637142Y-121840000D02*
X75651428Y-121854285D01*
X75665714Y-121897142D01*
X75665714Y-121925714D01*
X75651428Y-121968571D01*
X75622857Y-121997142D01*
X75594285Y-122011428D01*
X75537142Y-122025714D01*
X75494285Y-122025714D01*
X75437142Y-122011428D01*
X75408571Y-121997142D01*
X75380000Y-121968571D01*
X75365714Y-121925714D01*
X75365714Y-121897142D01*
X75380000Y-121854285D01*
X75394285Y-121840000D01*
X75365714Y-121740000D02*
X75365714Y-121554285D01*
X75480000Y-121654285D01*
X75480000Y-121611428D01*
X75494285Y-121582857D01*
X75508571Y-121568571D01*
X75537142Y-121554285D01*
X75608571Y-121554285D01*
X75637142Y-121568571D01*
X75651428Y-121582857D01*
X75665714Y-121611428D01*
X75665714Y-121697142D01*
X75651428Y-121725714D01*
X75637142Y-121740000D01*
%TO.C,C4*%
X72548571Y-111833333D02*
X72572380Y-111857142D01*
X72596190Y-111928571D01*
X72596190Y-111976190D01*
X72572380Y-112047619D01*
X72524761Y-112095238D01*
X72477142Y-112119047D01*
X72381904Y-112142857D01*
X72310476Y-112142857D01*
X72215238Y-112119047D01*
X72167619Y-112095238D01*
X72120000Y-112047619D01*
X72096190Y-111976190D01*
X72096190Y-111928571D01*
X72120000Y-111857142D01*
X72143809Y-111833333D01*
X72262857Y-111404761D02*
X72596190Y-111404761D01*
X72072380Y-111523809D02*
X72429523Y-111642857D01*
X72429523Y-111333333D01*
D16*
%TO.C,R16*%
X48085714Y-111941904D02*
X47819047Y-111560952D01*
X47628571Y-111941904D02*
X47628571Y-111141904D01*
X47933333Y-111141904D01*
X48009523Y-111180000D01*
X48047619Y-111218095D01*
X48085714Y-111294285D01*
X48085714Y-111408571D01*
X48047619Y-111484761D01*
X48009523Y-111522857D01*
X47933333Y-111560952D01*
X47628571Y-111560952D01*
X48847619Y-111941904D02*
X48390476Y-111941904D01*
X48619047Y-111941904D02*
X48619047Y-111141904D01*
X48542857Y-111256190D01*
X48466666Y-111332380D01*
X48390476Y-111370476D01*
X49533333Y-111141904D02*
X49380952Y-111141904D01*
X49304761Y-111180000D01*
X49266666Y-111218095D01*
X49190476Y-111332380D01*
X49152380Y-111484761D01*
X49152380Y-111789523D01*
X49190476Y-111865714D01*
X49228571Y-111903809D01*
X49304761Y-111941904D01*
X49457142Y-111941904D01*
X49533333Y-111903809D01*
X49571428Y-111865714D01*
X49609523Y-111789523D01*
X49609523Y-111599047D01*
X49571428Y-111522857D01*
X49533333Y-111484761D01*
X49457142Y-111446666D01*
X49304761Y-111446666D01*
X49228571Y-111484761D01*
X49190476Y-111522857D01*
X49152380Y-111599047D01*
D11*
%TO.C,C20*%
X72177142Y-116557142D02*
X72162857Y-116571428D01*
X72120000Y-116585714D01*
X72091428Y-116585714D01*
X72048571Y-116571428D01*
X72020000Y-116542857D01*
X72005714Y-116514285D01*
X71991428Y-116457142D01*
X71991428Y-116414285D01*
X72005714Y-116357142D01*
X72020000Y-116328571D01*
X72048571Y-116300000D01*
X72091428Y-116285714D01*
X72120000Y-116285714D01*
X72162857Y-116300000D01*
X72177142Y-116314285D01*
X72291428Y-116314285D02*
X72305714Y-116300000D01*
X72334285Y-116285714D01*
X72405714Y-116285714D01*
X72434285Y-116300000D01*
X72448571Y-116314285D01*
X72462857Y-116342857D01*
X72462857Y-116371428D01*
X72448571Y-116414285D01*
X72277142Y-116585714D01*
X72462857Y-116585714D01*
X72648571Y-116285714D02*
X72677142Y-116285714D01*
X72705714Y-116300000D01*
X72720000Y-116314285D01*
X72734285Y-116342857D01*
X72748571Y-116400000D01*
X72748571Y-116471428D01*
X72734285Y-116528571D01*
X72720000Y-116557142D01*
X72705714Y-116571428D01*
X72677142Y-116585714D01*
X72648571Y-116585714D01*
X72620000Y-116571428D01*
X72605714Y-116557142D01*
X72591428Y-116528571D01*
X72577142Y-116471428D01*
X72577142Y-116400000D01*
X72591428Y-116342857D01*
X72605714Y-116314285D01*
X72620000Y-116300000D01*
X72648571Y-116285714D01*
%TO.C,D4*%
X78990952Y-94396190D02*
X78990952Y-93896190D01*
X79110000Y-93896190D01*
X79181428Y-93920000D01*
X79229047Y-93967619D01*
X79252857Y-94015238D01*
X79276666Y-94110476D01*
X79276666Y-94181904D01*
X79252857Y-94277142D01*
X79229047Y-94324761D01*
X79181428Y-94372380D01*
X79110000Y-94396190D01*
X78990952Y-94396190D01*
X79705238Y-94062857D02*
X79705238Y-94396190D01*
X79586190Y-93872380D02*
X79467142Y-94229523D01*
X79776666Y-94229523D01*
%TO.C,R19*%
X50686190Y-78961428D02*
X50448095Y-79128095D01*
X50686190Y-79247142D02*
X50186190Y-79247142D01*
X50186190Y-79056666D01*
X50210000Y-79009047D01*
X50233809Y-78985238D01*
X50281428Y-78961428D01*
X50352857Y-78961428D01*
X50400476Y-78985238D01*
X50424285Y-79009047D01*
X50448095Y-79056666D01*
X50448095Y-79247142D01*
X50686190Y-78485238D02*
X50686190Y-78770952D01*
X50686190Y-78628095D02*
X50186190Y-78628095D01*
X50257619Y-78675714D01*
X50305238Y-78723333D01*
X50329047Y-78770952D01*
X50686190Y-78247142D02*
X50686190Y-78151904D01*
X50662380Y-78104285D01*
X50638571Y-78080476D01*
X50567142Y-78032857D01*
X50471904Y-78009047D01*
X50281428Y-78009047D01*
X50233809Y-78032857D01*
X50210000Y-78056666D01*
X50186190Y-78104285D01*
X50186190Y-78199523D01*
X50210000Y-78247142D01*
X50233809Y-78270952D01*
X50281428Y-78294761D01*
X50400476Y-78294761D01*
X50448095Y-78270952D01*
X50471904Y-78247142D01*
X50495714Y-78199523D01*
X50495714Y-78104285D01*
X50471904Y-78056666D01*
X50448095Y-78032857D01*
X50400476Y-78009047D01*
%TO.C,R18*%
X60768571Y-109836190D02*
X60601904Y-109598095D01*
X60482857Y-109836190D02*
X60482857Y-109336190D01*
X60673333Y-109336190D01*
X60720952Y-109360000D01*
X60744761Y-109383809D01*
X60768571Y-109431428D01*
X60768571Y-109502857D01*
X60744761Y-109550476D01*
X60720952Y-109574285D01*
X60673333Y-109598095D01*
X60482857Y-109598095D01*
X61244761Y-109836190D02*
X60959047Y-109836190D01*
X61101904Y-109836190D02*
X61101904Y-109336190D01*
X61054285Y-109407619D01*
X61006666Y-109455238D01*
X60959047Y-109479047D01*
X61530476Y-109550476D02*
X61482857Y-109526666D01*
X61459047Y-109502857D01*
X61435238Y-109455238D01*
X61435238Y-109431428D01*
X61459047Y-109383809D01*
X61482857Y-109360000D01*
X61530476Y-109336190D01*
X61625714Y-109336190D01*
X61673333Y-109360000D01*
X61697142Y-109383809D01*
X61720952Y-109431428D01*
X61720952Y-109455238D01*
X61697142Y-109502857D01*
X61673333Y-109526666D01*
X61625714Y-109550476D01*
X61530476Y-109550476D01*
X61482857Y-109574285D01*
X61459047Y-109598095D01*
X61435238Y-109645714D01*
X61435238Y-109740952D01*
X61459047Y-109788571D01*
X61482857Y-109812380D01*
X61530476Y-109836190D01*
X61625714Y-109836190D01*
X61673333Y-109812380D01*
X61697142Y-109788571D01*
X61720952Y-109740952D01*
X61720952Y-109645714D01*
X61697142Y-109598095D01*
X61673333Y-109574285D01*
X61625714Y-109550476D01*
%TO.C,R23*%
X64977142Y-130565714D02*
X64877142Y-130422857D01*
X64805714Y-130565714D02*
X64805714Y-130265714D01*
X64920000Y-130265714D01*
X64948571Y-130280000D01*
X64962857Y-130294285D01*
X64977142Y-130322857D01*
X64977142Y-130365714D01*
X64962857Y-130394285D01*
X64948571Y-130408571D01*
X64920000Y-130422857D01*
X64805714Y-130422857D01*
X65091428Y-130294285D02*
X65105714Y-130280000D01*
X65134285Y-130265714D01*
X65205714Y-130265714D01*
X65234285Y-130280000D01*
X65248571Y-130294285D01*
X65262857Y-130322857D01*
X65262857Y-130351428D01*
X65248571Y-130394285D01*
X65077142Y-130565714D01*
X65262857Y-130565714D01*
X65362857Y-130265714D02*
X65548571Y-130265714D01*
X65448571Y-130380000D01*
X65491428Y-130380000D01*
X65520000Y-130394285D01*
X65534285Y-130408571D01*
X65548571Y-130437142D01*
X65548571Y-130508571D01*
X65534285Y-130537142D01*
X65520000Y-130551428D01*
X65491428Y-130565714D01*
X65405714Y-130565714D01*
X65377142Y-130551428D01*
X65362857Y-130537142D01*
%TO.C,C11*%
X47408571Y-97421428D02*
X47432380Y-97445238D01*
X47456190Y-97516666D01*
X47456190Y-97564285D01*
X47432380Y-97635714D01*
X47384761Y-97683333D01*
X47337142Y-97707142D01*
X47241904Y-97730952D01*
X47170476Y-97730952D01*
X47075238Y-97707142D01*
X47027619Y-97683333D01*
X46980000Y-97635714D01*
X46956190Y-97564285D01*
X46956190Y-97516666D01*
X46980000Y-97445238D01*
X47003809Y-97421428D01*
X47456190Y-96945238D02*
X47456190Y-97230952D01*
X47456190Y-97088095D02*
X46956190Y-97088095D01*
X47027619Y-97135714D01*
X47075238Y-97183333D01*
X47099047Y-97230952D01*
X47456190Y-96469047D02*
X47456190Y-96754761D01*
X47456190Y-96611904D02*
X46956190Y-96611904D01*
X47027619Y-96659523D01*
X47075238Y-96707142D01*
X47099047Y-96754761D01*
%TO.C,C6*%
X65576666Y-98228571D02*
X65552857Y-98252380D01*
X65481428Y-98276190D01*
X65433809Y-98276190D01*
X65362380Y-98252380D01*
X65314761Y-98204761D01*
X65290952Y-98157142D01*
X65267142Y-98061904D01*
X65267142Y-97990476D01*
X65290952Y-97895238D01*
X65314761Y-97847619D01*
X65362380Y-97800000D01*
X65433809Y-97776190D01*
X65481428Y-97776190D01*
X65552857Y-97800000D01*
X65576666Y-97823809D01*
X66005238Y-97776190D02*
X65910000Y-97776190D01*
X65862380Y-97800000D01*
X65838571Y-97823809D01*
X65790952Y-97895238D01*
X65767142Y-97990476D01*
X65767142Y-98180952D01*
X65790952Y-98228571D01*
X65814761Y-98252380D01*
X65862380Y-98276190D01*
X65957619Y-98276190D01*
X66005238Y-98252380D01*
X66029047Y-98228571D01*
X66052857Y-98180952D01*
X66052857Y-98061904D01*
X66029047Y-98014285D01*
X66005238Y-97990476D01*
X65957619Y-97966666D01*
X65862380Y-97966666D01*
X65814761Y-97990476D01*
X65790952Y-98014285D01*
X65767142Y-98061904D01*
D13*
%TO.C,U3*%
X50426190Y-126220952D02*
X50830952Y-126220952D01*
X50878571Y-126197142D01*
X50902380Y-126173333D01*
X50926190Y-126125714D01*
X50926190Y-126030476D01*
X50902380Y-125982857D01*
X50878571Y-125959047D01*
X50830952Y-125935238D01*
X50426190Y-125935238D01*
X50426190Y-125744761D02*
X50426190Y-125435238D01*
X50616666Y-125601904D01*
X50616666Y-125530476D01*
X50640476Y-125482857D01*
X50664285Y-125459047D01*
X50711904Y-125435238D01*
X50830952Y-125435238D01*
X50878571Y-125459047D01*
X50902380Y-125482857D01*
X50926190Y-125530476D01*
X50926190Y-125673333D01*
X50902380Y-125720952D01*
X50878571Y-125744761D01*
D11*
%TO.C,R5*%
X76686190Y-90443333D02*
X76448095Y-90610000D01*
X76686190Y-90729047D02*
X76186190Y-90729047D01*
X76186190Y-90538571D01*
X76210000Y-90490952D01*
X76233809Y-90467142D01*
X76281428Y-90443333D01*
X76352857Y-90443333D01*
X76400476Y-90467142D01*
X76424285Y-90490952D01*
X76448095Y-90538571D01*
X76448095Y-90729047D01*
X76186190Y-89990952D02*
X76186190Y-90229047D01*
X76424285Y-90252857D01*
X76400476Y-90229047D01*
X76376666Y-90181428D01*
X76376666Y-90062380D01*
X76400476Y-90014761D01*
X76424285Y-89990952D01*
X76471904Y-89967142D01*
X76590952Y-89967142D01*
X76638571Y-89990952D01*
X76662380Y-90014761D01*
X76686190Y-90062380D01*
X76686190Y-90181428D01*
X76662380Y-90229047D01*
X76638571Y-90252857D01*
D16*
%TO.C,R15*%
X48047142Y-99492380D02*
X47713809Y-99016190D01*
X47475714Y-99492380D02*
X47475714Y-98492380D01*
X47856666Y-98492380D01*
X47951904Y-98540000D01*
X47999523Y-98587619D01*
X48047142Y-98682857D01*
X48047142Y-98825714D01*
X47999523Y-98920952D01*
X47951904Y-98968571D01*
X47856666Y-99016190D01*
X47475714Y-99016190D01*
X48999523Y-99492380D02*
X48428095Y-99492380D01*
X48713809Y-99492380D02*
X48713809Y-98492380D01*
X48618571Y-98635238D01*
X48523333Y-98730476D01*
X48428095Y-98778095D01*
X49904285Y-98492380D02*
X49428095Y-98492380D01*
X49380476Y-98968571D01*
X49428095Y-98920952D01*
X49523333Y-98873333D01*
X49761428Y-98873333D01*
X49856666Y-98920952D01*
X49904285Y-98968571D01*
X49951904Y-99063809D01*
X49951904Y-99301904D01*
X49904285Y-99397142D01*
X49856666Y-99444761D01*
X49761428Y-99492380D01*
X49523333Y-99492380D01*
X49428095Y-99444761D01*
X49380476Y-99397142D01*
D11*
%TO.C,R22*%
X67488571Y-107196190D02*
X67321904Y-106958095D01*
X67202857Y-107196190D02*
X67202857Y-106696190D01*
X67393333Y-106696190D01*
X67440952Y-106720000D01*
X67464761Y-106743809D01*
X67488571Y-106791428D01*
X67488571Y-106862857D01*
X67464761Y-106910476D01*
X67440952Y-106934285D01*
X67393333Y-106958095D01*
X67202857Y-106958095D01*
X67679047Y-106743809D02*
X67702857Y-106720000D01*
X67750476Y-106696190D01*
X67869523Y-106696190D01*
X67917142Y-106720000D01*
X67940952Y-106743809D01*
X67964761Y-106791428D01*
X67964761Y-106839047D01*
X67940952Y-106910476D01*
X67655238Y-107196190D01*
X67964761Y-107196190D01*
X68155238Y-106743809D02*
X68179047Y-106720000D01*
X68226666Y-106696190D01*
X68345714Y-106696190D01*
X68393333Y-106720000D01*
X68417142Y-106743809D01*
X68440952Y-106791428D01*
X68440952Y-106839047D01*
X68417142Y-106910476D01*
X68131428Y-107196190D01*
X68440952Y-107196190D01*
D14*
%TO.C,Q6*%
X40855967Y-113152416D02*
X40735015Y-113091940D01*
X40614062Y-112970987D01*
X40432634Y-112789559D01*
X40311681Y-112729082D01*
X40190729Y-112729082D01*
X40251205Y-113031463D02*
X40130253Y-112970987D01*
X40009300Y-112850035D01*
X39948824Y-112608130D01*
X39948824Y-112184797D01*
X40009300Y-111942892D01*
X40130253Y-111821940D01*
X40251205Y-111761463D01*
X40493110Y-111761463D01*
X40614062Y-111821940D01*
X40735015Y-111942892D01*
X40795491Y-112184797D01*
X40795491Y-112608130D01*
X40735015Y-112850035D01*
X40614062Y-112970987D01*
X40493110Y-113031463D01*
X40251205Y-113031463D01*
X41884062Y-111761463D02*
X41642158Y-111761463D01*
X41521205Y-111821940D01*
X41460729Y-111882416D01*
X41339777Y-112063844D01*
X41279300Y-112305749D01*
X41279300Y-112789559D01*
X41339777Y-112910511D01*
X41400253Y-112970987D01*
X41521205Y-113031463D01*
X41763110Y-113031463D01*
X41884062Y-112970987D01*
X41944539Y-112910511D01*
X42005015Y-112789559D01*
X42005015Y-112487178D01*
X41944539Y-112366225D01*
X41884062Y-112305749D01*
X41763110Y-112245273D01*
X41521205Y-112245273D01*
X41400253Y-112305749D01*
X41339777Y-112366225D01*
X41279300Y-112487178D01*
D11*
%TO.C,R6*%
X76756190Y-84943333D02*
X76518095Y-85110000D01*
X76756190Y-85229047D02*
X76256190Y-85229047D01*
X76256190Y-85038571D01*
X76280000Y-84990952D01*
X76303809Y-84967142D01*
X76351428Y-84943333D01*
X76422857Y-84943333D01*
X76470476Y-84967142D01*
X76494285Y-84990952D01*
X76518095Y-85038571D01*
X76518095Y-85229047D01*
X76256190Y-84514761D02*
X76256190Y-84610000D01*
X76280000Y-84657619D01*
X76303809Y-84681428D01*
X76375238Y-84729047D01*
X76470476Y-84752857D01*
X76660952Y-84752857D01*
X76708571Y-84729047D01*
X76732380Y-84705238D01*
X76756190Y-84657619D01*
X76756190Y-84562380D01*
X76732380Y-84514761D01*
X76708571Y-84490952D01*
X76660952Y-84467142D01*
X76541904Y-84467142D01*
X76494285Y-84490952D01*
X76470476Y-84514761D01*
X76446666Y-84562380D01*
X76446666Y-84657619D01*
X76470476Y-84705238D01*
X76494285Y-84729047D01*
X76541904Y-84752857D01*
D17*
%TO.C,IC2*%
X68190000Y-105270000D02*
X68740000Y-105270000D01*
X68190000Y-100270000D02*
X68740000Y-100270000D01*
X68190000Y-105270000D02*
X68190000Y-104720000D01*
X73190000Y-105270000D02*
X72640000Y-105270000D01*
X73190000Y-100270000D02*
X72640000Y-100270000D01*
X73190000Y-100270000D02*
X73190000Y-100820000D01*
X73190000Y-105270000D02*
X73190000Y-104720000D01*
X68190000Y-100270000D02*
X68190000Y-100820000D01*
D18*
X67250000Y-101270000D02*
G75*
G03*
X67250000Y-101270000I-100000J0D01*
G01*
D19*
%TO.C,D3*%
X81900000Y-95350000D02*
X81900000Y-96550000D01*
X81600000Y-94850000D02*
X81600000Y-94850000D01*
X81100000Y-95350000D02*
X81100000Y-96550000D01*
X81500000Y-94850000D02*
X81500000Y-94850000D01*
X81600000Y-94850000D02*
G75*
G03*
X81500000Y-94850000I-50000J0D01*
G01*
X81500000Y-94850000D02*
G75*
G03*
X81600000Y-94850000I50000J0D01*
G01*
D20*
%TO.C,C1*%
X52990000Y-77290580D02*
X52990000Y-77009420D01*
X54010000Y-77290580D02*
X54010000Y-77009420D01*
D19*
%TO.C,D2*%
X78100000Y-95350000D02*
X78100000Y-96550000D01*
X77300000Y-95350000D02*
X77300000Y-96550000D01*
X77700000Y-94850000D02*
X77700000Y-94850000D01*
X77800000Y-94850000D02*
X77800000Y-94850000D01*
X77800000Y-94850000D02*
G75*
G03*
X77700000Y-94850000I-50000J0D01*
G01*
X77700000Y-94850000D02*
G75*
G03*
X77800000Y-94850000I50000J0D01*
G01*
D20*
%TO.C,R1*%
X72897500Y-128472742D02*
X72897500Y-128947258D01*
X73942500Y-128472742D02*
X73942500Y-128947258D01*
%TO.C,R25*%
X70832742Y-129427500D02*
X71307258Y-129427500D01*
X70832742Y-130472500D02*
X71307258Y-130472500D01*
D10*
%TO.C,IC3*%
X54585000Y-99580000D02*
G75*
G03*
X54585000Y-99580000I-125000J0D01*
G01*
D19*
%TO.C,D5*%
X66210000Y-109220000D02*
G75*
G03*
X66210000Y-109220000I-50000J0D01*
G01*
D17*
%TO.C,SW2*%
X79050000Y-84050000D02*
X82950000Y-84050000D01*
X82950000Y-86513500D02*
X82950000Y-86950000D01*
X82950000Y-84050000D02*
X82950000Y-84486500D01*
X79050000Y-84486500D02*
X79050000Y-84050000D01*
X79050000Y-86950000D02*
X79050000Y-86513500D01*
X82950000Y-86950000D02*
X79050000Y-86950000D01*
D18*
X84350000Y-85500000D02*
G75*
G03*
X84350000Y-85500000I-100000J0D01*
G01*
D20*
%TO.C,R12*%
X74420000Y-99083641D02*
X74420000Y-98776359D01*
X75180000Y-99083641D02*
X75180000Y-98776359D01*
%TO.C,P1*%
X35340000Y-83880000D02*
X35340000Y-94040000D01*
X28990000Y-94040000D02*
X36610000Y-94040000D01*
X28990000Y-83880000D02*
X28990000Y-94040000D01*
X36610000Y-94040000D02*
X36610000Y-83880000D01*
X36610000Y-83880000D02*
X28990000Y-83880000D01*
D14*
%TO.C,Q4*%
X38990000Y-97400000D02*
X44890000Y-97400000D01*
X44890000Y-102550000D02*
X38990000Y-102550000D01*
X45786110Y-101847000D02*
G75*
G03*
X45786110Y-101847000I-37110J0D01*
G01*
D20*
%TO.C,R17*%
X63720000Y-105973641D02*
X63720000Y-105666359D01*
X64480000Y-105973641D02*
X64480000Y-105666359D01*
%TO.C,R4*%
X82570000Y-92703641D02*
X82570000Y-92396359D01*
X83330000Y-92703641D02*
X83330000Y-92396359D01*
%TO.C,C30*%
X73870580Y-124950000D02*
X73589420Y-124950000D01*
X73870580Y-123930000D02*
X73589420Y-123930000D01*
%TO.C,D_Zener1*%
X62960000Y-123340000D02*
X62960000Y-129040000D01*
X62960000Y-123340000D02*
X58660000Y-123340000D01*
X58660000Y-123340000D02*
X58660000Y-129040000D01*
%TO.C,J2*%
X36610000Y-109820000D02*
X28990000Y-109820000D01*
X35340000Y-109820000D02*
X35340000Y-94580000D01*
X36610000Y-109820000D02*
X36610000Y-94580000D01*
X36610000Y-94580000D02*
X28990000Y-94580000D01*
X28990000Y-109820000D02*
X28990000Y-94580000D01*
%TO.C,R14*%
X47600000Y-87600000D02*
X47600000Y-94000000D01*
X49350000Y-87600000D02*
X47600000Y-87600000D01*
X51050000Y-94000000D02*
X51050000Y-87600000D01*
X51050000Y-87600000D02*
X49350000Y-87600000D01*
X47600000Y-94000000D02*
X51050000Y-94000000D01*
%TO.C,R24*%
X73492742Y-122417500D02*
X73967258Y-122417500D01*
X73492742Y-123462500D02*
X73967258Y-123462500D01*
%TO.C,C10*%
X48959420Y-95910000D02*
X49240580Y-95910000D01*
X48959420Y-94890000D02*
X49240580Y-94890000D01*
%TO.C,C33*%
X38582500Y-129395563D02*
X39646937Y-130460000D01*
X38582500Y-123004437D02*
X39646937Y-121940000D01*
X47102500Y-121940000D02*
X47102500Y-124690000D01*
X38582500Y-123004437D02*
X38582500Y-124690000D01*
X37842500Y-123190000D02*
X37842500Y-124190000D01*
X37342500Y-123690000D02*
X38342500Y-123690000D01*
X47102500Y-130460000D02*
X47102500Y-127710000D01*
X38582500Y-129395563D02*
X38582500Y-127710000D01*
X39646937Y-121940000D02*
X47102500Y-121940000D01*
X39646937Y-130460000D02*
X47102500Y-130460000D01*
%TO.C,R9*%
X73700000Y-108286359D02*
X73700000Y-108593641D01*
X72940000Y-108286359D02*
X72940000Y-108593641D01*
%TO.C,C31*%
X70329420Y-124960000D02*
X70610580Y-124960000D01*
X70329420Y-123940000D02*
X70610580Y-123940000D01*
%TO.C,R21*%
X70250000Y-108603641D02*
X70250000Y-108296359D01*
X71010000Y-108603641D02*
X71010000Y-108296359D01*
D18*
%TO.C,L2*%
X58700000Y-122800000D02*
X70700000Y-122800000D01*
X70700000Y-110800000D02*
X58700000Y-110800000D01*
D20*
%TO.C,R8*%
X72330000Y-108296359D02*
X72330000Y-108603641D01*
X71570000Y-108296359D02*
X71570000Y-108603641D01*
%TO.C,R3*%
X53780000Y-84703641D02*
X53780000Y-84396359D01*
X53020000Y-84703641D02*
X53020000Y-84396359D01*
%TO.C,R7*%
X74770000Y-105093641D02*
X74770000Y-104786359D01*
X74010000Y-105093641D02*
X74010000Y-104786359D01*
%TO.C,C32*%
X38440000Y-83395563D02*
X38440000Y-81710000D01*
X38440000Y-77004437D02*
X38440000Y-78690000D01*
X37700000Y-77190000D02*
X37700000Y-78190000D01*
X38440000Y-83395563D02*
X39504437Y-84460000D01*
X46960000Y-75940000D02*
X46960000Y-78690000D01*
X39504437Y-84460000D02*
X46960000Y-84460000D01*
X39504437Y-75940000D02*
X46960000Y-75940000D01*
X46960000Y-84460000D02*
X46960000Y-81710000D01*
X37200000Y-77690000D02*
X38200000Y-77690000D01*
X38440000Y-77004437D02*
X39504437Y-75940000D01*
%TO.C,C5*%
X77860000Y-87690580D02*
X77860000Y-87409420D01*
X76840000Y-87690580D02*
X76840000Y-87409420D01*
%TO.C,C4*%
X82280000Y-110950000D02*
X82280000Y-111950000D01*
X76574437Y-112190000D02*
X78260000Y-112190000D01*
X82780000Y-111450000D02*
X81780000Y-111450000D01*
X75510000Y-120710000D02*
X78260000Y-120710000D01*
X84030000Y-120710000D02*
X81280000Y-120710000D01*
X75510000Y-113254437D02*
X75510000Y-120710000D01*
X82965563Y-112190000D02*
X84030000Y-113254437D01*
X76574437Y-112190000D02*
X75510000Y-113254437D01*
X82965563Y-112190000D02*
X81280000Y-112190000D01*
X84030000Y-113254437D02*
X84030000Y-120710000D01*
%TO.C,C18*%
X74680000Y-118109420D02*
X74680000Y-118390580D01*
X73660000Y-118109420D02*
X73660000Y-118390580D01*
D17*
%TO.C,IC1*%
X67250000Y-128650000D02*
X70250000Y-128650000D01*
X70250000Y-125650000D02*
X67250000Y-125650000D01*
D18*
X65350000Y-126150000D02*
G75*
G03*
X65350000Y-126150000I-100000J0D01*
G01*
D20*
%TO.C,C13*%
X48959420Y-109710000D02*
X49240580Y-109710000D01*
X48959420Y-108690000D02*
X49240580Y-108690000D01*
%TO.C,C17*%
X55810580Y-98340000D02*
X55529420Y-98340000D01*
X55810580Y-97320000D02*
X55529420Y-97320000D01*
%TO.C,C12*%
X48959420Y-108210000D02*
X49240580Y-108210000D01*
X48959420Y-107190000D02*
X49240580Y-107190000D01*
%TO.C,C23*%
X63390000Y-99709420D02*
X63390000Y-99990580D01*
X64410000Y-99709420D02*
X64410000Y-99990580D01*
%TO.C,C21*%
X52790000Y-99259420D02*
X52790000Y-99540580D01*
X51770000Y-99259420D02*
X51770000Y-99540580D01*
%TO.C,U1*%
X56690000Y-93440000D02*
X56690000Y-94440000D01*
X75090000Y-94440000D02*
X75090000Y-93440000D01*
X75090000Y-94440000D02*
X73590000Y-94440000D01*
X56690000Y-75390000D02*
X56290000Y-75390000D01*
X75090000Y-68590000D02*
X75090000Y-74790000D01*
X56690000Y-68590000D02*
X75090000Y-68590000D01*
X56690000Y-94440000D02*
X58190000Y-94440000D01*
X56690000Y-75390000D02*
X56690000Y-68590000D01*
%TO.C,C19*%
X65960000Y-105980580D02*
X65960000Y-105699420D01*
X64940000Y-105980580D02*
X64940000Y-105699420D01*
D14*
%TO.C,Q3*%
X39069055Y-103600000D02*
X44969055Y-103600000D01*
X44969055Y-108750000D02*
X39069055Y-108750000D01*
X38247165Y-104303000D02*
G75*
G03*
X38247165Y-104303000I-37110J0D01*
G01*
D20*
%TO.C,P2*%
X36610000Y-120380000D02*
X36610000Y-110220000D01*
X28990000Y-110220000D02*
X28990000Y-120380000D01*
X28990000Y-120380000D02*
X36610000Y-120380000D01*
X35340000Y-110220000D02*
X35340000Y-120380000D01*
X36610000Y-110220000D02*
X28990000Y-110220000D01*
D17*
%TO.C,J1*%
X78715000Y-107570000D02*
X80155000Y-107570000D01*
X78715000Y-98630000D02*
X80155000Y-98630000D01*
X84125000Y-98630000D02*
X84125000Y-107570000D01*
X82895000Y-98630000D02*
X84125000Y-98630000D01*
X84125000Y-107570000D02*
X82895000Y-107570000D01*
D18*
X75225000Y-106500000D02*
G75*
G03*
X75225000Y-106500000I-100000J0D01*
G01*
D20*
%TO.C,C14*%
X48959420Y-119490000D02*
X49240580Y-119490000D01*
X48959420Y-120510000D02*
X49240580Y-120510000D01*
D14*
%TO.C,Q2*%
X44945945Y-90350000D02*
X39045945Y-90350000D01*
X39045945Y-85200000D02*
X44945945Y-85200000D01*
X45842055Y-89647000D02*
G75*
G03*
X45842055Y-89647000I-37110J0D01*
G01*
D20*
%TO.C,R10*%
X55862742Y-120072500D02*
X56337258Y-120072500D01*
X55862742Y-119027500D02*
X56337258Y-119027500D01*
%TO.C,R20*%
X67432742Y-129427500D02*
X67907258Y-129427500D01*
X67432742Y-130472500D02*
X67907258Y-130472500D01*
%TO.C,C2*%
X55560000Y-77290580D02*
X55560000Y-77009420D01*
X54540000Y-77290580D02*
X54540000Y-77009420D01*
%TO.C,C16*%
X66829420Y-123940000D02*
X67110580Y-123940000D01*
X66829420Y-124960000D02*
X67110580Y-124960000D01*
%TO.C,R13*%
X58080000Y-128046359D02*
X58080000Y-128353641D01*
X57320000Y-128046359D02*
X57320000Y-128353641D01*
%TO.C,C15*%
X48959420Y-120990000D02*
X49240580Y-120990000D01*
X48959420Y-122010000D02*
X49240580Y-122010000D01*
D17*
%TO.C,SW1*%
X79050000Y-87986500D02*
X79050000Y-87550000D01*
X82950000Y-90013500D02*
X82950000Y-90450000D01*
X82950000Y-87550000D02*
X82950000Y-87986500D01*
X79050000Y-90450000D02*
X79050000Y-90013500D01*
X79050000Y-87550000D02*
X82950000Y-87550000D01*
X82950000Y-90450000D02*
X79050000Y-90450000D01*
D18*
X84350000Y-89000000D02*
G75*
G03*
X84350000Y-89000000I-100000J0D01*
G01*
D20*
%TO.C,C22*%
X51770000Y-102259420D02*
X51770000Y-102540580D01*
X52790000Y-102259420D02*
X52790000Y-102540580D01*
D14*
%TO.C,Q5*%
X44950000Y-121050000D02*
X39050000Y-121050000D01*
X39050000Y-115900000D02*
X44950000Y-115900000D01*
X38228110Y-116603000D02*
G75*
G03*
X38228110Y-116603000I-37110J0D01*
G01*
D20*
%TO.C,C7*%
X68620000Y-108299420D02*
X68620000Y-108580580D01*
X69640000Y-108299420D02*
X69640000Y-108580580D01*
D14*
%TO.C,Q1*%
X44945945Y-96500000D02*
X39045945Y-96500000D01*
X39045945Y-91350000D02*
X44945945Y-91350000D01*
X38224055Y-92053000D02*
G75*
G03*
X38224055Y-92053000I-37110J0D01*
G01*
D19*
%TO.C,D6*%
X49290000Y-84300000D02*
G75*
G03*
X49290000Y-84300000I-50000J0D01*
G01*
D20*
%TO.C,C9*%
X53809420Y-120940000D02*
X54090580Y-120940000D01*
X53809420Y-121960000D02*
X54090580Y-121960000D01*
%TO.C,C29*%
X64480000Y-126125580D02*
X64480000Y-125844420D01*
X63460000Y-126125580D02*
X63460000Y-125844420D01*
%TO.C,R2*%
X75492500Y-128947258D02*
X75492500Y-128472742D01*
X74447500Y-128947258D02*
X74447500Y-128472742D01*
%TO.C,C3*%
X73589420Y-121950000D02*
X73870580Y-121950000D01*
X73589420Y-120930000D02*
X73870580Y-120930000D01*
%TO.C,C4*%
X74009420Y-112360000D02*
X74290580Y-112360000D01*
X74009420Y-111340000D02*
X74290580Y-111340000D01*
%TO.C,R16*%
X51050000Y-112175000D02*
X49350000Y-112175000D01*
X51050000Y-118575000D02*
X51050000Y-112175000D01*
X49350000Y-112175000D02*
X47600000Y-112175000D01*
X47600000Y-112175000D02*
X47600000Y-118575000D01*
X47600000Y-118575000D02*
X51050000Y-118575000D01*
%TO.C,C20*%
X73080000Y-118109420D02*
X73080000Y-118390580D01*
X72060000Y-118109420D02*
X72060000Y-118390580D01*
D19*
%TO.C,D4*%
X80000000Y-95350000D02*
X80000000Y-96550000D01*
X79600000Y-94850000D02*
X79600000Y-94850000D01*
X79700000Y-94850000D02*
X79700000Y-94850000D01*
X79200000Y-95350000D02*
X79200000Y-96550000D01*
X79600000Y-94850000D02*
G75*
G03*
X79700000Y-94850000I50000J0D01*
G01*
X79700000Y-94850000D02*
G75*
G03*
X79600000Y-94850000I-50000J0D01*
G01*
D20*
%TO.C,R19*%
X50900000Y-78493641D02*
X50900000Y-78186359D01*
X51660000Y-78493641D02*
X51660000Y-78186359D01*
%TO.C,R18*%
X63023641Y-109590000D02*
X62716359Y-109590000D01*
X63023641Y-108830000D02*
X62716359Y-108830000D01*
%TO.C,R23*%
X64492500Y-128797742D02*
X64492500Y-129272258D01*
X63447500Y-128797742D02*
X63447500Y-129272258D01*
%TO.C,C11*%
X48959420Y-97410000D02*
X49240580Y-97410000D01*
X48959420Y-96390000D02*
X49240580Y-96390000D01*
%TO.C,C6*%
X64930000Y-99980580D02*
X64930000Y-99699420D01*
X65950000Y-99980580D02*
X65950000Y-99699420D01*
D17*
%TO.C,U3*%
X56375000Y-124055000D02*
X56375000Y-127955000D01*
X51325000Y-124055000D02*
X51325000Y-127955000D01*
D18*
X56255000Y-121965000D02*
G75*
G03*
X56255000Y-121965000I-100000J0D01*
G01*
D20*
%TO.C,R5*%
X76970000Y-90463641D02*
X76970000Y-90156359D01*
X77730000Y-90463641D02*
X77730000Y-90156359D01*
%TO.C,R15*%
X47600000Y-99800000D02*
X47600000Y-106200000D01*
X49350000Y-99800000D02*
X47600000Y-99800000D01*
X51050000Y-99800000D02*
X49350000Y-99800000D01*
X51050000Y-106200000D02*
X51050000Y-99800000D01*
X47600000Y-106200000D02*
X51050000Y-106200000D01*
%TO.C,R22*%
X67290000Y-108246359D02*
X67290000Y-108553641D01*
X68050000Y-108246359D02*
X68050000Y-108553641D01*
D17*
%TO.C,U5*%
X57369000Y-112950000D02*
X57369000Y-116850000D01*
X52331000Y-116850000D02*
X52331000Y-112950000D01*
D18*
X53050000Y-119290000D02*
G75*
G03*
X53050000Y-119290000I-100000J0D01*
G01*
D14*
%TO.C,Q6*%
X44915000Y-115000000D02*
X39015000Y-115000000D01*
X39015000Y-109850000D02*
X44915000Y-109850000D01*
X45811110Y-114297000D02*
G75*
G03*
X45811110Y-114297000I-37110J0D01*
G01*
D20*
%TO.C,R6*%
X77730000Y-84666359D02*
X77730000Y-84973641D01*
X76970000Y-84666359D02*
X76970000Y-84973641D01*
%TD*%
M02*
