%TF.GenerationSoftware,KiCad,Pcbnew,6.0.10-86aedd382b~118~ubuntu22.04.1*%
%TF.CreationDate,2023-04-05T16:54:16+05:30*%
%TF.ProjectId,Quadruped,51756164-7275-4706-9564-2e6b69636164,rev?*%
%TF.SameCoordinates,Original*%
%TF.FileFunction,Soldermask,Bot*%
%TF.FilePolarity,Negative*%
%FSLAX46Y46*%
G04 Gerber Fmt 4.6, Leading zero omitted, Abs format (unit mm)*
G04 Created by KiCad (PCBNEW 6.0.10-86aedd382b~118~ubuntu22.04.1) date 2023-04-05 16:54:16*
%MOMM*%
%LPD*%
G01*
G04 APERTURE LIST*
G04 Aperture macros list*
%AMRoundRect*
0 Rectangle with rounded corners*
0 $1 Rounding radius*
0 $2 $3 $4 $5 $6 $7 $8 $9 X,Y pos of 4 corners*
0 Add a 4 corners polygon primitive as box body*
4,1,4,$2,$3,$4,$5,$6,$7,$8,$9,$2,$3,0*
0 Add four circle primitives for the rounded corners*
1,1,$1+$1,$2,$3*
1,1,$1+$1,$4,$5*
1,1,$1+$1,$6,$7*
1,1,$1+$1,$8,$9*
0 Add four rect primitives between the rounded corners*
20,1,$1+$1,$2,$3,$4,$5,0*
20,1,$1+$1,$4,$5,$6,$7,0*
20,1,$1+$1,$6,$7,$8,$9,0*
20,1,$1+$1,$8,$9,$2,$3,0*%
G04 Aperture macros list end*
%ADD10C,4.000000*%
%ADD11R,3.000000X3.000000*%
%ADD12C,3.000000*%
%ADD13C,0.500000*%
%ADD14C,0.700000*%
%ADD15O,2.100000X1.050000*%
%ADD16RoundRect,0.200000X-0.275000X0.200000X-0.275000X-0.200000X0.275000X-0.200000X0.275000X0.200000X0*%
%ADD17RoundRect,0.225000X-0.250000X0.225000X-0.250000X-0.225000X0.250000X-0.225000X0.250000X0.225000X0*%
%ADD18RoundRect,0.225000X0.225000X0.250000X-0.225000X0.250000X-0.225000X-0.250000X0.225000X-0.250000X0*%
%ADD19RoundRect,0.065100X-0.589900X-0.399900X0.589900X-0.399900X0.589900X0.399900X-0.589900X0.399900X0*%
%ADD20RoundRect,0.314400X-0.340600X-1.305600X0.340600X-1.305600X0.340600X1.305600X-0.340600X1.305600X0*%
%ADD21R,2.500000X2.300000*%
%ADD22RoundRect,0.020500X0.714500X0.184500X-0.714500X0.184500X-0.714500X-0.184500X0.714500X-0.184500X0*%
G04 APERTURE END LIST*
D10*
%TO.C,H1*%
X32725000Y-126825000D03*
%TD*%
D11*
%TO.C,P1*%
X32800000Y-91500000D03*
D12*
X32800000Y-86420000D03*
%TD*%
D11*
%TO.C,J2*%
X32800000Y-107280000D03*
D12*
X32800000Y-102200000D03*
X32800000Y-97120000D03*
%TD*%
D10*
%TO.C,H2*%
X80280000Y-79360000D03*
%TD*%
D13*
%TO.C,U1*%
X62990000Y-84650000D03*
X65090000Y-83950000D03*
X64390000Y-84650000D03*
X63690000Y-82550000D03*
X65090000Y-85350000D03*
X63690000Y-83950000D03*
X65790000Y-84650000D03*
X62990000Y-83250000D03*
X65090000Y-82550000D03*
X64390000Y-83250000D03*
X63690000Y-85350000D03*
X65790000Y-83250000D03*
%TD*%
D11*
%TO.C,P2*%
X32800000Y-117840000D03*
D12*
X32800000Y-112760000D03*
%TD*%
D14*
%TO.C,J1*%
X77875000Y-100210000D03*
X77875000Y-105990000D03*
D15*
X77345000Y-107420000D03*
X77345000Y-98780000D03*
X81525000Y-107420000D03*
X81525000Y-98780000D03*
%TD*%
D10*
%TO.C,H3*%
X32850000Y-79400000D03*
%TD*%
%TO.C,H4*%
X80250000Y-126800000D03*
%TD*%
D16*
%TO.C,R11*%
X61190000Y-100495000D03*
X61190000Y-102145000D03*
%TD*%
D17*
%TO.C,C26*%
X72670000Y-117450000D03*
X72670000Y-119000000D03*
%TD*%
%TO.C,C25*%
X74270000Y-117475000D03*
X74270000Y-119025000D03*
%TD*%
D18*
%TO.C,C28*%
X75845000Y-113650000D03*
X74295000Y-113650000D03*
%TD*%
%TO.C,C27*%
X74645000Y-115350000D03*
X73095000Y-115350000D03*
%TD*%
D19*
%TO.C,U4*%
X76587500Y-120540000D03*
X76587500Y-118250000D03*
X76587500Y-115960000D03*
D20*
X83277500Y-118250000D03*
%TD*%
D17*
%TO.C,C8*%
X54330000Y-96515000D03*
X54330000Y-98065000D03*
%TD*%
D21*
%TO.C,D1*%
X82620000Y-111450000D03*
X78320000Y-111450000D03*
%TD*%
D22*
%TO.C,U2*%
X59395000Y-101150000D03*
X59395000Y-101800000D03*
X59395000Y-102450000D03*
X59395000Y-103100000D03*
X59395000Y-103750000D03*
X59395000Y-104400000D03*
X59395000Y-105050000D03*
X53655000Y-105050000D03*
X53655000Y-104400000D03*
X53655000Y-103750000D03*
X53655000Y-103100000D03*
X53655000Y-102450000D03*
X53655000Y-101800000D03*
X53655000Y-101150000D03*
%TD*%
M02*
