M48
; DRILL file {KiCad 6.0.10-86aedd382b~118~ubuntu22.04.1} date Wed 05 Apr 2023 04:55:18 PM IST
; FORMAT={-:-/ absolute / inch / decimal}
; #@! TF.CreationDate,2023-04-05T16:55:18+05:30
; #@! TF.GenerationSoftware,Kicad,Pcbnew,6.0.10-86aedd382b~118~ubuntu22.04.1
; #@! TF.FileFunction,Plated,1,4,PTH
FMAT,2
INCH
; #@! TA.AperFunction,Plated,PTH,ComponentDrill
T1C0.0079
; #@! TA.AperFunction,Plated,PTH,ViaDrill
T2C0.0118
; #@! TA.AperFunction,Plated,PTH,ViaDrill
T3C0.0157
; #@! TA.AperFunction,Plated,PTH,ComponentDrill
T4C0.0256
; #@! TA.AperFunction,Plated,PTH,ComponentDrill
T5C0.0598
%
G90
G05
T1
X2.4799Y-3.2776
X2.4799Y-3.3327
X2.5075Y-3.25
X2.5075Y-3.3051
X2.5075Y-3.3602
X2.535Y-3.2776
X2.535Y-3.3327
X2.5626Y-3.25
X2.5626Y-3.3051
X2.5626Y-3.3602
X2.5902Y-3.2776
X2.5902Y-3.3327
X2.689Y-4.9823
X2.689Y-5.0295
X2.7067Y-5.0059
X2.7244Y-4.9823
X2.7244Y-5.0295
T2
X1.1646Y-3.311
X1.1646Y-3.3417
X1.1646Y-3.5197
X1.1646Y-3.5472
X1.1646Y-3.5748
X1.1646Y-3.6024
X1.1646Y-3.6299
X1.1646Y-3.6575
X1.1646Y-3.685
X1.165Y-3.4031
X1.1654Y-3.3717
X1.1654Y-3.437
X1.1673Y-3.4693
X1.1921Y-3.5197
X1.1921Y-3.5472
X1.1921Y-3.5748
X1.1921Y-3.6024
X1.1921Y-3.6299
X1.1921Y-3.6575
X1.1921Y-3.685
X1.1961Y-3.311
X1.1961Y-3.3386
X1.1961Y-3.3661
X1.1961Y-3.3937
X1.1961Y-3.4213
X1.1972Y-3.4551
X1.2197Y-3.5197
X1.2197Y-3.685
X1.2236Y-3.311
X1.2276Y-3.3386
X1.2343Y-3.4689
X1.2472Y-3.5197
X1.2472Y-3.685
X1.2512Y-3.311
X1.2748Y-3.5197
X1.2748Y-3.685
X1.2787Y-3.311
X1.3024Y-3.5197
X1.3024Y-3.685
X1.3063Y-3.311
X1.3299Y-3.5197
X1.3299Y-3.685
X1.3339Y-3.311
X1.3378Y-3.3386
X1.3571Y-3.463
X1.3575Y-3.5197
X1.3575Y-3.685
X1.3614Y-3.311
X1.3654Y-3.3386
X1.3693Y-3.3661
X1.3701Y-3.4335
X1.3705Y-3.3996
X1.3748Y-3.635
X1.3752Y-3.5783
X1.3752Y-3.6634
X1.3756Y-3.5488
X1.3756Y-3.6071
X1.389Y-3.311
X1.3969Y-3.3346
X1.3969Y-3.3622
X1.3969Y-3.3898
X1.3969Y-3.4173
X1.3969Y-3.4449
X1.3969Y-3.4724
X1.613Y-4.1118
X1.613Y-4.7181
X1.6134Y-4.689
X1.6138Y-4.1425
X1.6138Y-4.172
X1.6138Y-4.2016
X1.6138Y-4.2319
X1.6138Y-4.6295
X1.6138Y-4.6594
X1.615Y-4.5984
X1.6209Y-3.665
X1.6213Y-3.6323
X1.622Y-3.6949
X1.622Y-3.724
X1.6244Y-3.7594
X1.6445Y-4.1118
X1.6453Y-4.1417
X1.6461Y-4.1709
X1.6465Y-4.2
X1.6472Y-4.2315
X1.6496Y-4.6583
X1.6496Y-4.6882
X1.65Y-3.6323
X1.6504Y-4.6291
X1.6504Y-4.7181
X1.652Y-4.5976
X1.6524Y-3.6642
X1.6535Y-3.6957
X1.6555Y-3.728
X1.6583Y-3.761
X1.6768Y-4.1118
X1.6776Y-4.1429
X1.6776Y-4.174
X1.6811Y-4.2031
X1.6811Y-4.2339
X1.6819Y-3.6315
X1.6831Y-4.6583
X1.6835Y-3.6626
X1.6839Y-3.6949
X1.6839Y-4.598
X1.6839Y-4.6283
X1.6843Y-4.6882
X1.6843Y-4.7193
X1.6846Y-3.7283
X1.687Y-3.761
X1.7102Y-4.1118
X1.713Y-4.1449
X1.7134Y-4.176
X1.7146Y-4.6567
X1.7154Y-3.7626
X1.7154Y-4.2067
X1.7154Y-4.5976
X1.7154Y-4.6882
X1.7161Y-3.728
X1.7161Y-4.2378
X1.7165Y-4.7185
X1.7169Y-3.6307
X1.7169Y-3.6972
X1.7173Y-4.6291
X1.7181Y-3.6626
X1.7421Y-4.1437
X1.7421Y-4.176
X1.7425Y-4.1114
X1.7437Y-4.2071
X1.7445Y-4.6878
X1.7457Y-4.237
X1.7461Y-4.6567
X1.7469Y-4.5976
X1.7469Y-4.6283
X1.7469Y-4.7185
X1.7472Y-3.6307
X1.7472Y-3.661
X1.7472Y-3.698
X1.748Y-3.7299
X1.748Y-3.7634
X1.8693Y-4.563
X1.8693Y-4.5906
X1.8709Y-3.6047
X1.8713Y-3.6315
X1.8776Y-4.1075
X1.8783Y-4.0811
X1.8933Y-3.6701
X1.8969Y-4.563
X1.8969Y-4.5906
X1.8972Y-4.1512
X1.8996Y-3.6043
X1.9Y-3.6307
X1.9039Y-4.1075
X1.9063Y-4.0807
X1.9213Y-3.6697
X1.9244Y-4.563
X1.9244Y-4.5906
X1.9276Y-3.6307
X1.9276Y-4.1508
X1.928Y-3.6035
X1.9319Y-4.1067
X1.9346Y-4.0811
X1.948Y-3.6701
X1.952Y-4.563
X1.952Y-4.5906
X1.9543Y-3.6299
X1.9547Y-3.6031
X1.9563Y-4.9996
X1.9571Y-4.1512
X1.9606Y-4.1075
X1.9795Y-4.563
X1.9795Y-4.5906
X2.0071Y-4.563
X2.0489Y-4.1148
X2.0508Y-4.1462
X2.114Y-4.2241
X2.1169Y-4.2559
X2.1327Y-5.1224
X2.1582Y-4.3112
X2.1783Y-3.7429
X2.1823Y-4.2827
X2.211Y-5.1276
X2.2143Y-4.7475
X2.2185Y-4.2831
X2.2346Y-4.5075
X2.2433Y-4.5512
X2.252Y-4.2835
X2.2682Y-3.8784
X2.28Y-3.8492
X2.2868Y-4.2832
X2.2989Y-3.824
X2.3197Y-4.2815
X2.32Y-3.8007
X2.3408Y-3.777
X2.3609Y-4.2824
X2.363Y-3.7547
X2.3952Y-4.2819
X2.4264Y-4.2575
X2.463Y-4.235
X2.4733Y-4.1986
X2.479Y-4.156
X2.4856Y-4.1253
X2.4878Y-4.0927
X2.5111Y-3.8186
X2.5165Y-4.0039
X2.5263Y-4.0928
X2.5289Y-4.0614
X2.5337Y-4.0303
X2.5617Y-5.002
X2.5951Y-3.8287
X2.6276Y-4.174
X2.6388Y-4.0392
X2.6388Y-4.0726
X2.7224Y-3.7563
X2.7543Y-3.9028
X2.7807Y-4.3291
X2.7866Y-4.0906
X2.7941Y-5.0768
X2.7976Y-3.9007
X2.81Y-3.8071
X2.8457Y-3.0118
X2.8508Y-3.8181
X2.865Y-4.4587
X2.8713Y-3.0508
X2.8728Y-4.7343
X2.8776Y-3.1008
X2.8776Y-3.5
X2.8776Y-3.5461
X2.8783Y-3.4512
X2.8787Y-3.4012
X2.8795Y-3.3512
X2.8807Y-3.202
X2.8811Y-3.1516
X2.8874Y-3.8937
X2.8906Y-4.989
X2.9047Y-4.1898
X2.9283Y-4.2756
X2.9413Y-4.2118
X2.9484Y-4.0736
X2.9496Y-4.037
X2.9598Y-4.9764
X2.9962Y-3.311
X3.0346Y-3.2835
X3.1069Y-3.9476
X3.2098Y-3.3661
X3.2122Y-3.5035
T3
X1.4963Y-3.7944
X1.5331Y-3.2622
X1.5343Y-3.0803
X1.5398Y-5.0606
X1.5418Y-3.7728
X1.542Y-4.7394
X1.5427Y-4.2551
X1.5514Y-4.871
X1.5984Y-5.063
X1.6035Y-4.8705
X1.613Y-3.2622
X1.6169Y-3.0803
X1.7492Y-3.0764
X1.7543Y-4.8744
X1.7547Y-3.2697
X1.7587Y-5.0618
X1.765Y-3.5307
X1.813Y-3.7776
X1.8138Y-3.6205
X1.8138Y-3.6728
X1.8138Y-3.7248
X1.8138Y-4.1012
X1.8138Y-4.2587
X1.8138Y-4.5854
X1.8142Y-4.1547
X1.8142Y-4.2067
X1.8142Y-4.7429
X1.815Y-4.6906
X1.8154Y-4.6386
X1.826Y-3.8661
X1.826Y-4.3227
X1.8299Y-3.3661
X1.8331Y-4.0157
X1.8339Y-4.8756
X1.8358Y-3.2697
X1.8362Y-5.0618
X1.8382Y-3.0764
X1.9419Y-4.6377
X1.9598Y-4.8795
X2.015Y-4.2323
X2.0465Y-3.0276
X2.0496Y-4.7382
X2.1083Y-3.5
X2.1612Y-3.1269
X2.1646Y-3.2067
X2.1646Y-3.3016
X2.1646Y-3.3586
X2.1646Y-3.4055
X2.1651Y-3.2564
X2.1652Y-3.1661
X2.1661Y-3.4512
X2.1795Y-3.6012
X2.1823Y-3.5378
X2.2043Y-4.7815
X2.2323Y-4.0661
X2.2335Y-3.7969
X2.2374Y-4.8638
X2.2567Y-3.7531
X2.2713Y-4.9803
X2.2717Y-5.1063
X2.3138Y-3.0512
X2.3165Y-3.102
X2.3173Y-3.2516
X2.3181Y-3.1768
X2.4193Y-3.7728
X2.4721Y-3.8025
X2.5205Y-3.7732
X2.5608Y-5.0738
X2.5634Y-4.9311
X2.5693Y-3.7736
X2.5846Y-5.1084
X2.6197Y-3.774
X2.6272Y-4.2272
X2.6489Y-3.9119
X2.7308Y-3.8461
X2.8535Y-3.6024
X2.9169Y-4.3358
X2.9244Y-4.9531
X3.0067Y-4.3799
X3.0343Y-4.8209
X3.0449Y-3.6154
X3.0591Y-3.8413
X3.0819Y-4.0992
X3.0843Y-4.0315
X3.1321Y-3.585
X3.1335Y-3.8413
X3.1579Y-3.3657
X3.2087Y-3.8413
X3.2535Y-3.5799
X3.2701Y-3.7508
T5
X1.2913Y-3.4024
X1.2913Y-3.6024
X1.2913Y-3.8236
X1.2913Y-4.0236
X1.2913Y-4.2236
X1.2913Y-4.4394
X1.2913Y-4.6394
T4
G00X3.0234Y-3.889
M15
G01X3.0667Y-3.889
M16
G05
G00X3.0234Y-4.2291
M15
G01X3.0667Y-4.2291
M16
G05
G00X3.1978Y-3.889
M15
G01X3.2215Y-3.889
M16
G05
G00X3.1978Y-4.2291
M15
G01X3.2215Y-4.2291
M16
G05
T0
M30
