%TF.GenerationSoftware,KiCad,Pcbnew,6.0.10-86aedd382b~118~ubuntu22.04.1*%
%TF.CreationDate,2023-04-05T16:55:25+05:30*%
%TF.ProjectId,Quadruped,51756164-7275-4706-9564-2e6b69636164,rev?*%
%TF.SameCoordinates,Original*%
%TF.FileFunction,Drillmap*%
%TF.FilePolarity,Positive*%
%FSLAX45Y45*%
G04 Gerber Fmt 4.5, Leading zero omitted, Abs format (unit mm)*
G04 Created by KiCad (PCBNEW 6.0.10-86aedd382b~118~ubuntu22.04.1) date 2023-04-05 16:55:25*
%MOMM*%
%LPD*%
G01*
G04 APERTURE LIST*
%ADD10C,0.100000*%
%ADD11C,0.200000*%
%ADD12C,0.070000*%
%ADD13C,0.400000*%
G04 APERTURE END LIST*
D10*
X2879000Y-12686000D02*
G75*
G03*
X3278000Y-13085000I399000J0D01*
G01*
X3283000Y-7533000D02*
X8031000Y-7534000D01*
X8433000Y-7936000D02*
G75*
G03*
X8031000Y-7534000I-402000J0D01*
G01*
X8020622Y-13084622D02*
G75*
G03*
X8425622Y-12679622I-2J405002D01*
G01*
X8425622Y-12679622D02*
X8433000Y-7936000D01*
X3283000Y-7533000D02*
G75*
G03*
X2877000Y-7939000I0J-406000D01*
G01*
X3278000Y-13085000D02*
X8020622Y-13084622D01*
X2879000Y-12686000D02*
X2877000Y-7939000D01*
D11*
D12*
X7752500Y-9986000D02*
X7822500Y-10056000D01*
X7822500Y-9986000D02*
X7752500Y-10056000D01*
X7752500Y-10564000D02*
X7822500Y-10634000D01*
X7822500Y-10564000D02*
X7752500Y-10634000D01*
D13*
X3472500Y-12682500D02*
G75*
G03*
X3472500Y-12682500I-200000J0D01*
G01*
X3485000Y-7940000D02*
G75*
G03*
X3485000Y-7940000I-200000J0D01*
G01*
X8225000Y-12680000D02*
G75*
G03*
X8225000Y-12680000I-200000J0D01*
G01*
X8228000Y-7936000D02*
G75*
G03*
X8228000Y-7936000I-200000J0D01*
G01*
D11*
X3129619Y-13400476D02*
X3129619Y-13200476D01*
X3177238Y-13200476D01*
X3205809Y-13210000D01*
X3224857Y-13229048D01*
X3234381Y-13248095D01*
X3243905Y-13286190D01*
X3243905Y-13314762D01*
X3234381Y-13352857D01*
X3224857Y-13371905D01*
X3205809Y-13390952D01*
X3177238Y-13400476D01*
X3129619Y-13400476D01*
X3329619Y-13400476D02*
X3329619Y-13267143D01*
X3329619Y-13305238D02*
X3339143Y-13286190D01*
X3348667Y-13276667D01*
X3367714Y-13267143D01*
X3386762Y-13267143D01*
X3453428Y-13400476D02*
X3453428Y-13267143D01*
X3453428Y-13200476D02*
X3443905Y-13210000D01*
X3453428Y-13219524D01*
X3462952Y-13210000D01*
X3453428Y-13200476D01*
X3453428Y-13219524D01*
X3577238Y-13400476D02*
X3558190Y-13390952D01*
X3548667Y-13371905D01*
X3548667Y-13200476D01*
X3682000Y-13400476D02*
X3662952Y-13390952D01*
X3653428Y-13371905D01*
X3653428Y-13200476D01*
X3910571Y-13400476D02*
X3910571Y-13200476D01*
X3977238Y-13343333D01*
X4043905Y-13200476D01*
X4043905Y-13400476D01*
X4224857Y-13400476D02*
X4224857Y-13295714D01*
X4215333Y-13276667D01*
X4196286Y-13267143D01*
X4158190Y-13267143D01*
X4139143Y-13276667D01*
X4224857Y-13390952D02*
X4205810Y-13400476D01*
X4158190Y-13400476D01*
X4139143Y-13390952D01*
X4129619Y-13371905D01*
X4129619Y-13352857D01*
X4139143Y-13333809D01*
X4158190Y-13324286D01*
X4205810Y-13324286D01*
X4224857Y-13314762D01*
X4320095Y-13267143D02*
X4320095Y-13467143D01*
X4320095Y-13276667D02*
X4339143Y-13267143D01*
X4377238Y-13267143D01*
X4396286Y-13276667D01*
X4405810Y-13286190D01*
X4415333Y-13305238D01*
X4415333Y-13362381D01*
X4405810Y-13381428D01*
X4396286Y-13390952D01*
X4377238Y-13400476D01*
X4339143Y-13400476D01*
X4320095Y-13390952D01*
X4501048Y-13381428D02*
X4510571Y-13390952D01*
X4501048Y-13400476D01*
X4491524Y-13390952D01*
X4501048Y-13381428D01*
X4501048Y-13400476D01*
X4501048Y-13276667D02*
X4510571Y-13286190D01*
X4501048Y-13295714D01*
X4491524Y-13286190D01*
X4501048Y-13276667D01*
X4501048Y-13295714D01*
D12*
X2802000Y-13695000D02*
X2872000Y-13765000D01*
X2872000Y-13695000D02*
X2802000Y-13765000D01*
D11*
X3167714Y-13620476D02*
X3186762Y-13620476D01*
X3205809Y-13630000D01*
X3215333Y-13639524D01*
X3224857Y-13658571D01*
X3234381Y-13696667D01*
X3234381Y-13744286D01*
X3224857Y-13782381D01*
X3215333Y-13801428D01*
X3205809Y-13810952D01*
X3186762Y-13820476D01*
X3167714Y-13820476D01*
X3148667Y-13810952D01*
X3139143Y-13801428D01*
X3129619Y-13782381D01*
X3120095Y-13744286D01*
X3120095Y-13696667D01*
X3129619Y-13658571D01*
X3139143Y-13639524D01*
X3148667Y-13630000D01*
X3167714Y-13620476D01*
X3320095Y-13801428D02*
X3329619Y-13810952D01*
X3320095Y-13820476D01*
X3310571Y-13810952D01*
X3320095Y-13801428D01*
X3320095Y-13820476D01*
X3396286Y-13620476D02*
X3529619Y-13620476D01*
X3443905Y-13820476D01*
X3643905Y-13620476D02*
X3662952Y-13620476D01*
X3682000Y-13630000D01*
X3691524Y-13639524D01*
X3701048Y-13658571D01*
X3710571Y-13696667D01*
X3710571Y-13744286D01*
X3701048Y-13782381D01*
X3691524Y-13801428D01*
X3682000Y-13810952D01*
X3662952Y-13820476D01*
X3643905Y-13820476D01*
X3624857Y-13810952D01*
X3615333Y-13801428D01*
X3605809Y-13782381D01*
X3596286Y-13744286D01*
X3596286Y-13696667D01*
X3605809Y-13658571D01*
X3615333Y-13639524D01*
X3624857Y-13630000D01*
X3643905Y-13620476D01*
X3834381Y-13620476D02*
X3853428Y-13620476D01*
X3872476Y-13630000D01*
X3882000Y-13639524D01*
X3891524Y-13658571D01*
X3901048Y-13696667D01*
X3901048Y-13744286D01*
X3891524Y-13782381D01*
X3882000Y-13801428D01*
X3872476Y-13810952D01*
X3853428Y-13820476D01*
X3834381Y-13820476D01*
X3815333Y-13810952D01*
X3805809Y-13801428D01*
X3796286Y-13782381D01*
X3786762Y-13744286D01*
X3786762Y-13696667D01*
X3796286Y-13658571D01*
X3805809Y-13639524D01*
X3815333Y-13630000D01*
X3834381Y-13620476D01*
X3986762Y-13820476D02*
X3986762Y-13687143D01*
X3986762Y-13706190D02*
X3996286Y-13696667D01*
X4015333Y-13687143D01*
X4043905Y-13687143D01*
X4062952Y-13696667D01*
X4072476Y-13715714D01*
X4072476Y-13820476D01*
X4072476Y-13715714D02*
X4082000Y-13696667D01*
X4101048Y-13687143D01*
X4129619Y-13687143D01*
X4148667Y-13696667D01*
X4158190Y-13715714D01*
X4158190Y-13820476D01*
X4253429Y-13820476D02*
X4253429Y-13687143D01*
X4253429Y-13706190D02*
X4262952Y-13696667D01*
X4282000Y-13687143D01*
X4310571Y-13687143D01*
X4329619Y-13696667D01*
X4339143Y-13715714D01*
X4339143Y-13820476D01*
X4339143Y-13715714D02*
X4348667Y-13696667D01*
X4367714Y-13687143D01*
X4396286Y-13687143D01*
X4415333Y-13696667D01*
X4424857Y-13715714D01*
X4424857Y-13820476D01*
X4815333Y-13610952D02*
X4643905Y-13868095D01*
X5072476Y-13620476D02*
X5091524Y-13620476D01*
X5110571Y-13630000D01*
X5120095Y-13639524D01*
X5129619Y-13658571D01*
X5139143Y-13696667D01*
X5139143Y-13744286D01*
X5129619Y-13782381D01*
X5120095Y-13801428D01*
X5110571Y-13810952D01*
X5091524Y-13820476D01*
X5072476Y-13820476D01*
X5053429Y-13810952D01*
X5043905Y-13801428D01*
X5034381Y-13782381D01*
X5024857Y-13744286D01*
X5024857Y-13696667D01*
X5034381Y-13658571D01*
X5043905Y-13639524D01*
X5053429Y-13630000D01*
X5072476Y-13620476D01*
X5224857Y-13801428D02*
X5234381Y-13810952D01*
X5224857Y-13820476D01*
X5215333Y-13810952D01*
X5224857Y-13801428D01*
X5224857Y-13820476D01*
X5358190Y-13620476D02*
X5377238Y-13620476D01*
X5396286Y-13630000D01*
X5405810Y-13639524D01*
X5415333Y-13658571D01*
X5424857Y-13696667D01*
X5424857Y-13744286D01*
X5415333Y-13782381D01*
X5405810Y-13801428D01*
X5396286Y-13810952D01*
X5377238Y-13820476D01*
X5358190Y-13820476D01*
X5339143Y-13810952D01*
X5329619Y-13801428D01*
X5320095Y-13782381D01*
X5310571Y-13744286D01*
X5310571Y-13696667D01*
X5320095Y-13658571D01*
X5329619Y-13639524D01*
X5339143Y-13630000D01*
X5358190Y-13620476D01*
X5501048Y-13639524D02*
X5510571Y-13630000D01*
X5529619Y-13620476D01*
X5577238Y-13620476D01*
X5596286Y-13630000D01*
X5605809Y-13639524D01*
X5615333Y-13658571D01*
X5615333Y-13677619D01*
X5605809Y-13706190D01*
X5491524Y-13820476D01*
X5615333Y-13820476D01*
X5682000Y-13620476D02*
X5815333Y-13620476D01*
X5729619Y-13820476D01*
X5977238Y-13620476D02*
X5939143Y-13620476D01*
X5920095Y-13630000D01*
X5910571Y-13639524D01*
X5891524Y-13668095D01*
X5882000Y-13706190D01*
X5882000Y-13782381D01*
X5891524Y-13801428D01*
X5901048Y-13810952D01*
X5920095Y-13820476D01*
X5958190Y-13820476D01*
X5977238Y-13810952D01*
X5986762Y-13801428D01*
X5996286Y-13782381D01*
X5996286Y-13734762D01*
X5986762Y-13715714D01*
X5977238Y-13706190D01*
X5958190Y-13696667D01*
X5920095Y-13696667D01*
X5901048Y-13706190D01*
X5891524Y-13715714D01*
X5882000Y-13734762D01*
X6072476Y-13620476D02*
X6072476Y-13658571D01*
X6148667Y-13620476D02*
X6148667Y-13658571D01*
X6443905Y-13896667D02*
X6434381Y-13887143D01*
X6415333Y-13858571D01*
X6405809Y-13839524D01*
X6396286Y-13810952D01*
X6386762Y-13763333D01*
X6386762Y-13725238D01*
X6396286Y-13677619D01*
X6405809Y-13649048D01*
X6415333Y-13630000D01*
X6434381Y-13601428D01*
X6443905Y-13591905D01*
X6510571Y-13639524D02*
X6520095Y-13630000D01*
X6539143Y-13620476D01*
X6586762Y-13620476D01*
X6605809Y-13630000D01*
X6615333Y-13639524D01*
X6624857Y-13658571D01*
X6624857Y-13677619D01*
X6615333Y-13706190D01*
X6501048Y-13820476D01*
X6624857Y-13820476D01*
X6862952Y-13820476D02*
X6862952Y-13620476D01*
X6948667Y-13820476D02*
X6948667Y-13715714D01*
X6939143Y-13696667D01*
X6920095Y-13687143D01*
X6891524Y-13687143D01*
X6872476Y-13696667D01*
X6862952Y-13706190D01*
X7072476Y-13820476D02*
X7053428Y-13810952D01*
X7043905Y-13801428D01*
X7034381Y-13782381D01*
X7034381Y-13725238D01*
X7043905Y-13706190D01*
X7053428Y-13696667D01*
X7072476Y-13687143D01*
X7101048Y-13687143D01*
X7120095Y-13696667D01*
X7129619Y-13706190D01*
X7139143Y-13725238D01*
X7139143Y-13782381D01*
X7129619Y-13801428D01*
X7120095Y-13810952D01*
X7101048Y-13820476D01*
X7072476Y-13820476D01*
X7253428Y-13820476D02*
X7234381Y-13810952D01*
X7224857Y-13791905D01*
X7224857Y-13620476D01*
X7405809Y-13810952D02*
X7386762Y-13820476D01*
X7348667Y-13820476D01*
X7329619Y-13810952D01*
X7320095Y-13791905D01*
X7320095Y-13715714D01*
X7329619Y-13696667D01*
X7348667Y-13687143D01*
X7386762Y-13687143D01*
X7405809Y-13696667D01*
X7415333Y-13715714D01*
X7415333Y-13734762D01*
X7320095Y-13753809D01*
X7491524Y-13810952D02*
X7510571Y-13820476D01*
X7548667Y-13820476D01*
X7567714Y-13810952D01*
X7577238Y-13791905D01*
X7577238Y-13782381D01*
X7567714Y-13763333D01*
X7548667Y-13753809D01*
X7520095Y-13753809D01*
X7501048Y-13744286D01*
X7491524Y-13725238D01*
X7491524Y-13715714D01*
X7501048Y-13696667D01*
X7520095Y-13687143D01*
X7548667Y-13687143D01*
X7567714Y-13696667D01*
X7643905Y-13896667D02*
X7653428Y-13887143D01*
X7672476Y-13858571D01*
X7682000Y-13839524D01*
X7691524Y-13810952D01*
X7701048Y-13763333D01*
X7701048Y-13725238D01*
X7691524Y-13677619D01*
X7682000Y-13649048D01*
X7672476Y-13630000D01*
X7653428Y-13601428D01*
X7643905Y-13591905D01*
X8005809Y-13896667D02*
X7996286Y-13887143D01*
X7977238Y-13858571D01*
X7967714Y-13839524D01*
X7958190Y-13810952D01*
X7948667Y-13763333D01*
X7948667Y-13725238D01*
X7958190Y-13677619D01*
X7967714Y-13649048D01*
X7977238Y-13630000D01*
X7996286Y-13601428D01*
X8005809Y-13591905D01*
X8082000Y-13687143D02*
X8082000Y-13820476D01*
X8082000Y-13706190D02*
X8091524Y-13696667D01*
X8110571Y-13687143D01*
X8139143Y-13687143D01*
X8158190Y-13696667D01*
X8167714Y-13715714D01*
X8167714Y-13820476D01*
X8291524Y-13820476D02*
X8272476Y-13810952D01*
X8262952Y-13801428D01*
X8253428Y-13782381D01*
X8253428Y-13725238D01*
X8262952Y-13706190D01*
X8272476Y-13696667D01*
X8291524Y-13687143D01*
X8320095Y-13687143D01*
X8339143Y-13696667D01*
X8348667Y-13706190D01*
X8358190Y-13725238D01*
X8358190Y-13782381D01*
X8348667Y-13801428D01*
X8339143Y-13810952D01*
X8320095Y-13820476D01*
X8291524Y-13820476D01*
X8415333Y-13687143D02*
X8491524Y-13687143D01*
X8443905Y-13620476D02*
X8443905Y-13791905D01*
X8453429Y-13810952D01*
X8472476Y-13820476D01*
X8491524Y-13820476D01*
X8710571Y-13687143D02*
X8710571Y-13887143D01*
X8710571Y-13696667D02*
X8729619Y-13687143D01*
X8767714Y-13687143D01*
X8786762Y-13696667D01*
X8796286Y-13706190D01*
X8805810Y-13725238D01*
X8805810Y-13782381D01*
X8796286Y-13801428D01*
X8786762Y-13810952D01*
X8767714Y-13820476D01*
X8729619Y-13820476D01*
X8710571Y-13810952D01*
X8920095Y-13820476D02*
X8901048Y-13810952D01*
X8891524Y-13791905D01*
X8891524Y-13620476D01*
X9082000Y-13820476D02*
X9082000Y-13715714D01*
X9072476Y-13696667D01*
X9053429Y-13687143D01*
X9015333Y-13687143D01*
X8996286Y-13696667D01*
X9082000Y-13810952D02*
X9062952Y-13820476D01*
X9015333Y-13820476D01*
X8996286Y-13810952D01*
X8986762Y-13791905D01*
X8986762Y-13772857D01*
X8996286Y-13753809D01*
X9015333Y-13744286D01*
X9062952Y-13744286D01*
X9082000Y-13734762D01*
X9148667Y-13687143D02*
X9224857Y-13687143D01*
X9177238Y-13620476D02*
X9177238Y-13791905D01*
X9186762Y-13810952D01*
X9205810Y-13820476D01*
X9224857Y-13820476D01*
X9367714Y-13810952D02*
X9348667Y-13820476D01*
X9310571Y-13820476D01*
X9291524Y-13810952D01*
X9282000Y-13791905D01*
X9282000Y-13715714D01*
X9291524Y-13696667D01*
X9310571Y-13687143D01*
X9348667Y-13687143D01*
X9367714Y-13696667D01*
X9377238Y-13715714D01*
X9377238Y-13734762D01*
X9282000Y-13753809D01*
X9548667Y-13820476D02*
X9548667Y-13620476D01*
X9548667Y-13810952D02*
X9529619Y-13820476D01*
X9491524Y-13820476D01*
X9472476Y-13810952D01*
X9462952Y-13801428D01*
X9453429Y-13782381D01*
X9453429Y-13725238D01*
X9462952Y-13706190D01*
X9472476Y-13696667D01*
X9491524Y-13687143D01*
X9529619Y-13687143D01*
X9548667Y-13696667D01*
X9624857Y-13896667D02*
X9634381Y-13887143D01*
X9653429Y-13858571D01*
X9662952Y-13839524D01*
X9672476Y-13810952D01*
X9682000Y-13763333D01*
X9682000Y-13725238D01*
X9672476Y-13677619D01*
X9662952Y-13649048D01*
X9653429Y-13630000D01*
X9634381Y-13601428D01*
X9624857Y-13591905D01*
X2872000Y-13994000D02*
G75*
G03*
X2872000Y-13994000I-100000J0D01*
G01*
X3215333Y-13951143D02*
X3215333Y-14084476D01*
X3167714Y-13874952D02*
X3120095Y-14017809D01*
X3243905Y-14017809D01*
X3320095Y-14065428D02*
X3329619Y-14074952D01*
X3320095Y-14084476D01*
X3310571Y-14074952D01*
X3320095Y-14065428D01*
X3320095Y-14084476D01*
X3453428Y-13884476D02*
X3472476Y-13884476D01*
X3491524Y-13894000D01*
X3501048Y-13903524D01*
X3510571Y-13922571D01*
X3520095Y-13960667D01*
X3520095Y-14008286D01*
X3510571Y-14046381D01*
X3501048Y-14065428D01*
X3491524Y-14074952D01*
X3472476Y-14084476D01*
X3453428Y-14084476D01*
X3434381Y-14074952D01*
X3424857Y-14065428D01*
X3415333Y-14046381D01*
X3405809Y-14008286D01*
X3405809Y-13960667D01*
X3415333Y-13922571D01*
X3424857Y-13903524D01*
X3434381Y-13894000D01*
X3453428Y-13884476D01*
X3643905Y-13884476D02*
X3662952Y-13884476D01*
X3682000Y-13894000D01*
X3691524Y-13903524D01*
X3701048Y-13922571D01*
X3710571Y-13960667D01*
X3710571Y-14008286D01*
X3701048Y-14046381D01*
X3691524Y-14065428D01*
X3682000Y-14074952D01*
X3662952Y-14084476D01*
X3643905Y-14084476D01*
X3624857Y-14074952D01*
X3615333Y-14065428D01*
X3605809Y-14046381D01*
X3596286Y-14008286D01*
X3596286Y-13960667D01*
X3605809Y-13922571D01*
X3615333Y-13903524D01*
X3624857Y-13894000D01*
X3643905Y-13884476D01*
X3834381Y-13884476D02*
X3853428Y-13884476D01*
X3872476Y-13894000D01*
X3882000Y-13903524D01*
X3891524Y-13922571D01*
X3901048Y-13960667D01*
X3901048Y-14008286D01*
X3891524Y-14046381D01*
X3882000Y-14065428D01*
X3872476Y-14074952D01*
X3853428Y-14084476D01*
X3834381Y-14084476D01*
X3815333Y-14074952D01*
X3805809Y-14065428D01*
X3796286Y-14046381D01*
X3786762Y-14008286D01*
X3786762Y-13960667D01*
X3796286Y-13922571D01*
X3805809Y-13903524D01*
X3815333Y-13894000D01*
X3834381Y-13884476D01*
X3986762Y-14084476D02*
X3986762Y-13951143D01*
X3986762Y-13970190D02*
X3996286Y-13960667D01*
X4015333Y-13951143D01*
X4043905Y-13951143D01*
X4062952Y-13960667D01*
X4072476Y-13979714D01*
X4072476Y-14084476D01*
X4072476Y-13979714D02*
X4082000Y-13960667D01*
X4101048Y-13951143D01*
X4129619Y-13951143D01*
X4148667Y-13960667D01*
X4158190Y-13979714D01*
X4158190Y-14084476D01*
X4253429Y-14084476D02*
X4253429Y-13951143D01*
X4253429Y-13970190D02*
X4262952Y-13960667D01*
X4282000Y-13951143D01*
X4310571Y-13951143D01*
X4329619Y-13960667D01*
X4339143Y-13979714D01*
X4339143Y-14084476D01*
X4339143Y-13979714D02*
X4348667Y-13960667D01*
X4367714Y-13951143D01*
X4396286Y-13951143D01*
X4415333Y-13960667D01*
X4424857Y-13979714D01*
X4424857Y-14084476D01*
X4815333Y-13874952D02*
X4643905Y-14132095D01*
X5072476Y-13884476D02*
X5091524Y-13884476D01*
X5110571Y-13894000D01*
X5120095Y-13903524D01*
X5129619Y-13922571D01*
X5139143Y-13960667D01*
X5139143Y-14008286D01*
X5129619Y-14046381D01*
X5120095Y-14065428D01*
X5110571Y-14074952D01*
X5091524Y-14084476D01*
X5072476Y-14084476D01*
X5053429Y-14074952D01*
X5043905Y-14065428D01*
X5034381Y-14046381D01*
X5024857Y-14008286D01*
X5024857Y-13960667D01*
X5034381Y-13922571D01*
X5043905Y-13903524D01*
X5053429Y-13894000D01*
X5072476Y-13884476D01*
X5224857Y-14065428D02*
X5234381Y-14074952D01*
X5224857Y-14084476D01*
X5215333Y-14074952D01*
X5224857Y-14065428D01*
X5224857Y-14084476D01*
X5424857Y-14084476D02*
X5310571Y-14084476D01*
X5367714Y-14084476D02*
X5367714Y-13884476D01*
X5348667Y-13913048D01*
X5329619Y-13932095D01*
X5310571Y-13941619D01*
X5605809Y-13884476D02*
X5510571Y-13884476D01*
X5501048Y-13979714D01*
X5510571Y-13970190D01*
X5529619Y-13960667D01*
X5577238Y-13960667D01*
X5596286Y-13970190D01*
X5605809Y-13979714D01*
X5615333Y-13998762D01*
X5615333Y-14046381D01*
X5605809Y-14065428D01*
X5596286Y-14074952D01*
X5577238Y-14084476D01*
X5529619Y-14084476D01*
X5510571Y-14074952D01*
X5501048Y-14065428D01*
X5682000Y-13884476D02*
X5815333Y-13884476D01*
X5729619Y-14084476D01*
X5986762Y-13884476D02*
X5891524Y-13884476D01*
X5882000Y-13979714D01*
X5891524Y-13970190D01*
X5910571Y-13960667D01*
X5958190Y-13960667D01*
X5977238Y-13970190D01*
X5986762Y-13979714D01*
X5996286Y-13998762D01*
X5996286Y-14046381D01*
X5986762Y-14065428D01*
X5977238Y-14074952D01*
X5958190Y-14084476D01*
X5910571Y-14084476D01*
X5891524Y-14074952D01*
X5882000Y-14065428D01*
X6072476Y-13884476D02*
X6072476Y-13922571D01*
X6148667Y-13884476D02*
X6148667Y-13922571D01*
X6443905Y-14160667D02*
X6434381Y-14151143D01*
X6415333Y-14122571D01*
X6405809Y-14103524D01*
X6396286Y-14074952D01*
X6386762Y-14027333D01*
X6386762Y-13989238D01*
X6396286Y-13941619D01*
X6405809Y-13913048D01*
X6415333Y-13894000D01*
X6434381Y-13865428D01*
X6443905Y-13855905D01*
X6605809Y-13951143D02*
X6605809Y-14084476D01*
X6558190Y-13874952D02*
X6510571Y-14017809D01*
X6634381Y-14017809D01*
X6862952Y-14084476D02*
X6862952Y-13884476D01*
X6948667Y-14084476D02*
X6948667Y-13979714D01*
X6939143Y-13960667D01*
X6920095Y-13951143D01*
X6891524Y-13951143D01*
X6872476Y-13960667D01*
X6862952Y-13970190D01*
X7072476Y-14084476D02*
X7053428Y-14074952D01*
X7043905Y-14065428D01*
X7034381Y-14046381D01*
X7034381Y-13989238D01*
X7043905Y-13970190D01*
X7053428Y-13960667D01*
X7072476Y-13951143D01*
X7101048Y-13951143D01*
X7120095Y-13960667D01*
X7129619Y-13970190D01*
X7139143Y-13989238D01*
X7139143Y-14046381D01*
X7129619Y-14065428D01*
X7120095Y-14074952D01*
X7101048Y-14084476D01*
X7072476Y-14084476D01*
X7253428Y-14084476D02*
X7234381Y-14074952D01*
X7224857Y-14055905D01*
X7224857Y-13884476D01*
X7405809Y-14074952D02*
X7386762Y-14084476D01*
X7348667Y-14084476D01*
X7329619Y-14074952D01*
X7320095Y-14055905D01*
X7320095Y-13979714D01*
X7329619Y-13960667D01*
X7348667Y-13951143D01*
X7386762Y-13951143D01*
X7405809Y-13960667D01*
X7415333Y-13979714D01*
X7415333Y-13998762D01*
X7320095Y-14017809D01*
X7491524Y-14074952D02*
X7510571Y-14084476D01*
X7548667Y-14084476D01*
X7567714Y-14074952D01*
X7577238Y-14055905D01*
X7577238Y-14046381D01*
X7567714Y-14027333D01*
X7548667Y-14017809D01*
X7520095Y-14017809D01*
X7501048Y-14008286D01*
X7491524Y-13989238D01*
X7491524Y-13979714D01*
X7501048Y-13960667D01*
X7520095Y-13951143D01*
X7548667Y-13951143D01*
X7567714Y-13960667D01*
X7643905Y-14160667D02*
X7653428Y-14151143D01*
X7672476Y-14122571D01*
X7682000Y-14103524D01*
X7691524Y-14074952D01*
X7701048Y-14027333D01*
X7701048Y-13989238D01*
X7691524Y-13941619D01*
X7682000Y-13913048D01*
X7672476Y-13894000D01*
X7653428Y-13865428D01*
X7643905Y-13855905D01*
X8005809Y-14160667D02*
X7996286Y-14151143D01*
X7977238Y-14122571D01*
X7967714Y-14103524D01*
X7958190Y-14074952D01*
X7948667Y-14027333D01*
X7948667Y-13989238D01*
X7958190Y-13941619D01*
X7967714Y-13913048D01*
X7977238Y-13894000D01*
X7996286Y-13865428D01*
X8005809Y-13855905D01*
X8082000Y-13951143D02*
X8082000Y-14084476D01*
X8082000Y-13970190D02*
X8091524Y-13960667D01*
X8110571Y-13951143D01*
X8139143Y-13951143D01*
X8158190Y-13960667D01*
X8167714Y-13979714D01*
X8167714Y-14084476D01*
X8291524Y-14084476D02*
X8272476Y-14074952D01*
X8262952Y-14065428D01*
X8253428Y-14046381D01*
X8253428Y-13989238D01*
X8262952Y-13970190D01*
X8272476Y-13960667D01*
X8291524Y-13951143D01*
X8320095Y-13951143D01*
X8339143Y-13960667D01*
X8348667Y-13970190D01*
X8358190Y-13989238D01*
X8358190Y-14046381D01*
X8348667Y-14065428D01*
X8339143Y-14074952D01*
X8320095Y-14084476D01*
X8291524Y-14084476D01*
X8415333Y-13951143D02*
X8491524Y-13951143D01*
X8443905Y-13884476D02*
X8443905Y-14055905D01*
X8453429Y-14074952D01*
X8472476Y-14084476D01*
X8491524Y-14084476D01*
X8710571Y-13951143D02*
X8710571Y-14151143D01*
X8710571Y-13960667D02*
X8729619Y-13951143D01*
X8767714Y-13951143D01*
X8786762Y-13960667D01*
X8796286Y-13970190D01*
X8805810Y-13989238D01*
X8805810Y-14046381D01*
X8796286Y-14065428D01*
X8786762Y-14074952D01*
X8767714Y-14084476D01*
X8729619Y-14084476D01*
X8710571Y-14074952D01*
X8920095Y-14084476D02*
X8901048Y-14074952D01*
X8891524Y-14055905D01*
X8891524Y-13884476D01*
X9082000Y-14084476D02*
X9082000Y-13979714D01*
X9072476Y-13960667D01*
X9053429Y-13951143D01*
X9015333Y-13951143D01*
X8996286Y-13960667D01*
X9082000Y-14074952D02*
X9062952Y-14084476D01*
X9015333Y-14084476D01*
X8996286Y-14074952D01*
X8986762Y-14055905D01*
X8986762Y-14036857D01*
X8996286Y-14017809D01*
X9015333Y-14008286D01*
X9062952Y-14008286D01*
X9082000Y-13998762D01*
X9148667Y-13951143D02*
X9224857Y-13951143D01*
X9177238Y-13884476D02*
X9177238Y-14055905D01*
X9186762Y-14074952D01*
X9205810Y-14084476D01*
X9224857Y-14084476D01*
X9367714Y-14074952D02*
X9348667Y-14084476D01*
X9310571Y-14084476D01*
X9291524Y-14074952D01*
X9282000Y-14055905D01*
X9282000Y-13979714D01*
X9291524Y-13960667D01*
X9310571Y-13951143D01*
X9348667Y-13951143D01*
X9367714Y-13960667D01*
X9377238Y-13979714D01*
X9377238Y-13998762D01*
X9282000Y-14017809D01*
X9548667Y-14084476D02*
X9548667Y-13884476D01*
X9548667Y-14074952D02*
X9529619Y-14084476D01*
X9491524Y-14084476D01*
X9472476Y-14074952D01*
X9462952Y-14065428D01*
X9453429Y-14046381D01*
X9453429Y-13989238D01*
X9462952Y-13970190D01*
X9472476Y-13960667D01*
X9491524Y-13951143D01*
X9529619Y-13951143D01*
X9548667Y-13960667D01*
X9624857Y-14160667D02*
X9634381Y-14151143D01*
X9653429Y-14122571D01*
X9662952Y-14103524D01*
X9672476Y-14074952D01*
X9682000Y-14027333D01*
X9682000Y-13989238D01*
X9672476Y-13941619D01*
X9662952Y-13913048D01*
X9653429Y-13894000D01*
X9634381Y-13865428D01*
X9624857Y-13855905D01*
M02*
